<svg width="306" height="202" viewBox="0 0 306 202" fill="none" xmlns="http://www.w3.org/2000/svg">
<path d="M276.299 85.717C286.772 65.5134 297.619 35.5824 267.245 11.7042C236.87 -12.1761 206.874 5.79678 192.762 18.7918C184.621 26.2893 177.209 34.9874 170.718 42.6042C166.934 47.0447 163.463 51.1178 160.344 54.3711C139.319 76.2958 118.186 82.1296 88.7136 90.2657C77.2251 93.4371 64.4693 96.9584 49.9588 101.919C10.4719 115.419 4.79039 128.124 9.36297 139.931C10.8275 139.317 12.3624 138.71 13.9651 138.112C40.6315 128.167 86.0791 120.664 138.816 120.664C206.155 120.664 276.189 144.997 302.393 164.489C298.398 156.457 288.033 147.846 278.545 139.963C270.82 133.546 263.677 127.612 261.027 122.866C255.72 113.368 259.257 109.072 265.247 101.796C268.543 97.7929 272.582 92.8875 276.299 85.717Z" fill="#5CC8FF"/>
<path d="M276.689 195.622L276.331 195.631L274.761 195.664C222.384 196.676 116.43 189.988 49.2146 181.309C49.2135 181.309 49.2124 181.308 49.2114 181.308L49.2029 181.308C49.2068 181.308 49.2107 181.309 49.2146 181.309C76.1929 192.194 114.481 199.539 153.776 199.651C186.285 199.744 208.616 200.268 224.592 200.642C258.137 201.428 263.668 201.558 276.591 195.667L276.689 195.622Z" fill="#5CC8FF"/>
<path fill-rule="evenodd" clip-rule="evenodd" d="M141.938 129.785L143.223 129.868L141.321 160.373L140.405 161.526L138.996 160.559L141.938 129.785Z" fill="white"/>
<circle cx="238.824" cy="55.2803" r="35.5799" fill="white"/>
<path fill-rule="evenodd" clip-rule="evenodd" d="M145.684 89.9515C145.684 89.9515 145.605 87.9101 148.038 87.7896C150.469 87.6692 170.326 89.9515 170.326 89.9515C170.326 89.9515 174.599 90.5667 173.894 95.3683C173.186 100.17 170.607 111.235 170.607 111.235C170.607 111.235 170.91 113.128 167.807 112.626C164.704 112.123 155.492 109.728 145.684 111.248C145.684 111.248 144.064 111.438 144.111 118.326L143.223 118.163C143.223 118.163 144.52 91.8838 145.684 89.9515Z" fill="white"/>
<path fill-rule="evenodd" clip-rule="evenodd" d="M160.258 73.7047C160.258 73.7047 160.45 73.4996 160.258 73.7047C159.48 74.5401 158.817 75.2833 158.39 75.8195C156.352 78.3822 153.622 80.8112 152.52 82.6682C152.52 82.6682 147.639 84.8922 145.684 82.5798C145.684 82.5798 150.168 76.7001 153.724 74.0735C153.724 74.0735 157.178 72.3726 160.258 73.7047ZM164.048 69.7837L160.439 68.7357C160.439 68.7357 164.099 66.4553 166.127 65.5917L167.807 66.047C167.807 66.047 166.07 67.7441 164.048 69.7837C164.048 69.7837 163.997 69.8382 164.048 69.7837Z" fill="white"/>
<path fill-rule="evenodd" clip-rule="evenodd" d="M104.131 167.594C104.131 167.594 97.7828 166.186 96.272 158.928C96.272 158.928 97.4291 156.833 101.965 151.985C101.965 151.985 107.7 148.303 106.756 142.466C106.756 142.466 100.5 140.844 102.592 131.339L103.926 128.902C103.926 128.902 102.449 118.349 103.7 112.101C103.7 112.101 102.543 104.131 107.363 103.559C107.363 103.559 109.392 103.261 109.616 102.467C109.616 102.467 106.647 94.2432 115.339 90.2563C124.03 86.2713 130.792 93.1369 130.519 100.454C130.519 100.454 129.767 105.463 126.7 107.704C126.7 107.704 133.287 111.824 136.954 117.241C136.954 117.241 141.054 121.493 142.856 120.776C142.856 120.776 148.352 120.656 147.603 122.577C146.856 124.496 146.329 127.247 138.282 127.664C138.282 127.664 130.502 126.667 128.474 126.611L127.048 126.112C127.048 126.112 128.803 129.836 126.893 133.386C124.984 136.935 123.595 138.163 123.8 138.852L128.03 158.63C128.03 158.63 127.725 161.97 131.464 161.385C135.202 160.798 134.211 163.08 133.466 163.628C132.721 164.177 126.56 169.445 121.39 162.726C116.22 156.006 115.46 154.625 115.46 154.625L105.121 161.863C105.121 161.863 104.317 162.644 104.902 164.461C104.902 164.461 106.02 167.152 104.131 167.594Z" fill="white"/>
<path fill-rule="evenodd" clip-rule="evenodd" d="M198.711 58.1622C196.868 16.7637 239.48 18.7783 239.571 18.7918C290.448 26.3178 278.338 90.8602 238.91 92.9024C238.883 92.9038 200.301 93.8851 198.711 58.1622ZM200.172 58.1129C199.062 33.1777 215.495 24.9884 227.43 22.3243C227.47 22.3668 227.523 22.4122 227.584 22.4609C228.404 23.1138 229.217 23.7147 230.319 23.927C230.966 24.0513 231.592 24.2777 232.219 24.5042C232.702 24.679 233.186 24.8539 233.68 24.9823C234.334 25.1522 235.014 25.2281 235.692 25.3038C235.888 25.3257 236.083 25.3475 236.278 25.3716C236.458 25.3938 236.641 25.3949 236.824 25.396C237.054 25.3975 237.284 25.3989 237.507 25.4425C237.801 25.5002 238.09 25.583 238.38 25.6656C238.738 25.7681 239.096 25.8704 239.462 25.9247C239.721 25.9634 239.99 25.9501 240.259 25.9368C240.58 25.9209 240.899 25.9052 241.198 25.9785C241.985 26.1714 242.748 26.4677 243.508 26.7629L243.51 26.7636C243.617 26.8051 243.724 26.8465 243.83 26.8877L244.002 26.9537C244.807 27.2642 245.618 27.5765 246.384 27.9697C247.119 28.3474 247.806 28.2734 248.197 27.613C248.794 26.6087 249.42 25.6724 250.749 25.5501C251.006 25.5263 251.256 25.4168 251.506 25.3074C251.62 25.2576 251.733 25.2078 251.848 25.1661L251.711 25.1124L251.71 25.1121C251.382 24.9829 251.053 24.8537 250.726 24.7209C250.72 24.7186 250.721 24.7022 250.723 24.6843C250.724 24.6637 250.726 24.641 250.717 24.6348C249.925 24.056 248.611 24.5298 248.167 25.3817C247.895 25.9063 247.368 26.4267 246.83 26.6549C246.28 26.888 245.816 26.5989 245.326 26.2931C245.124 26.1669 244.917 26.0378 244.698 25.9415C243.759 25.6609 242.912 25.3834 242.069 25.0988C241.805 25.0095 241.541 24.9139 241.278 24.8184L241.278 24.8183C240.717 24.6146 240.156 24.411 239.58 24.2683C239.291 24.1966 238.986 24.2017 238.678 24.2069C238.439 24.2109 238.198 24.215 237.964 24.1826C237.503 24.1187 237.044 24.0335 236.585 23.9484C236.076 23.8539 235.568 23.7594 235.055 23.6938C234.715 23.6504 234.368 23.6408 234.021 23.6313C233.457 23.6157 232.896 23.6003 232.378 23.4396C232.188 23.3807 232.004 23.313 231.821 23.2455C231.341 23.0686 230.867 22.8938 230.306 22.8857C229.809 22.8786 229.23 22.5369 228.846 22.1762C228.797 22.1298 228.749 22.0903 228.703 22.057C234.746 20.8674 239.347 21.0718 239.376 21.0762C285.376 28.1975 275.907 89.141 238.91 91.0573C238.885 91.0587 201.665 91.633 200.172 58.1129ZM96.3946 161.282L96.4334 161.395C96.6724 162.095 97.0801 162.737 97.4999 163.398L97.5 163.398C97.6637 163.656 97.8293 163.917 97.9873 164.185C98.0895 164.31 98.1819 164.432 98.271 164.55C98.4319 164.763 98.5819 164.962 98.7582 165.133C99.8794 166.227 101.104 167.184 102.561 167.794C102.658 167.835 102.784 167.811 102.909 167.787C103.035 167.763 103.16 167.738 103.257 167.781C104.564 168.358 105.862 167.617 105.809 166.176C105.791 165.681 105.643 165.191 105.494 164.699C105.39 164.356 105.285 164.012 105.225 163.664C105.162 163.303 105.226 162.84 105.412 162.531C105.901 161.722 106.676 161.229 107.493 160.75C107.878 160.523 108.206 160.202 108.535 159.88L108.535 159.879C108.792 159.628 109.049 159.376 109.336 159.167C109.789 158.837 110.272 158.547 110.755 158.257L110.755 158.257L110.756 158.256C111.109 158.044 111.462 157.832 111.804 157.604C112.039 157.446 112.26 157.27 112.481 157.095C113.002 156.682 113.521 156.27 114.227 156.093C115.12 155.871 116.052 156.153 116.584 156.985C116.811 157.341 117.082 157.669 117.353 157.998C117.558 158.247 117.764 158.497 117.951 158.759C118.405 159.393 118.832 160.05 119.231 160.719C119.392 160.988 119.531 161.272 119.671 161.556C119.913 162.049 120.154 162.54 120.5 162.943C120.972 163.492 121.515 163.98 122.059 164.468C122.428 164.8 122.798 165.132 123.146 165.483C124.126 166.473 125.389 166.733 126.668 166.842C127.324 166.896 127.988 166.767 128.637 166.642C129.044 166.563 129.445 166.485 129.833 166.454C130.347 166.414 130.757 166.212 131.159 166.012C131.533 165.827 131.901 165.645 132.341 165.6C132.753 165.558 133.133 165.21 133.514 164.861L133.514 164.86C133.684 164.704 133.854 164.549 134.026 164.42C135.117 163.609 135.153 162.104 134.062 161.338C133.951 161.261 133.786 161.255 133.622 161.249C133.453 161.243 133.284 161.237 133.179 161.15C132.34 160.464 131.441 160.646 130.522 160.846C129.71 161.021 128.721 160.121 128.733 159.295C128.738 158.959 128.648 158.619 128.559 158.284C128.536 158.197 128.513 158.111 128.492 158.025C128.441 157.814 128.376 157.604 128.311 157.395L128.311 157.394L128.311 157.394L128.311 157.394L128.311 157.394L128.311 157.394L128.311 157.394L128.311 157.393C128.194 157.017 128.078 156.641 128.04 156.258C128.007 155.922 127.925 155.598 127.843 155.274C127.736 154.848 127.629 154.422 127.631 153.969C127.632 153.696 127.527 153.427 127.42 153.155C127.342 152.955 127.264 152.753 127.226 152.548C127.173 152.252 127.151 151.95 127.13 151.649L127.13 151.649L127.13 151.649L127.13 151.649L127.13 151.648L127.129 151.648L127.129 151.648L127.129 151.648L127.129 151.648L127.129 151.647L127.129 151.647L127.129 151.647L127.129 151.647L127.129 151.647L127.129 151.647C127.107 151.334 127.085 151.022 127.026 150.715C126.947 150.301 126.843 149.892 126.74 149.482C126.622 149.018 126.504 148.555 126.423 148.085C126.363 147.737 126.363 147.379 126.363 147.021V147.021C126.362 146.788 126.362 146.555 126.346 146.324C126.336 146.188 126.335 146.042 126.335 145.893V145.893V145.893V145.893V145.893V145.893V145.893C126.334 145.474 126.332 145.043 126.122 144.806C125.864 144.515 125.875 144.212 125.886 143.904C125.895 143.646 125.905 143.385 125.759 143.124C125.481 142.623 125.464 141.972 125.448 141.326C125.442 141.085 125.436 140.844 125.417 140.612C125.403 140.451 125.422 140.27 125.441 140.093C125.474 139.79 125.505 139.497 125.371 139.325C124.878 138.697 125.162 138.074 125.372 137.612L125.407 137.534C125.75 136.771 126.159 136.037 126.567 135.304C127.004 134.517 127.441 133.731 127.798 132.91C128.131 132.145 128.237 131.273 128.341 130.416C128.361 130.244 128.382 130.073 128.405 129.904C128.445 129.598 128.434 129.284 128.423 128.971C128.41 128.622 128.397 128.273 128.457 127.937C128.499 127.699 128.826 127.494 129.104 127.32C129.145 127.294 129.186 127.269 129.224 127.244C129.252 127.226 129.316 127.282 129.392 127.349C129.481 127.426 129.587 127.519 129.675 127.53C129.927 127.563 130.203 127.56 130.476 127.557H130.476C131.009 127.552 131.535 127.547 131.869 127.801C132.467 128.255 133.096 128.231 133.695 128.208C133.943 128.199 134.186 128.189 134.42 128.214C135.733 128.354 137.068 128.271 138.404 128.189L138.404 128.189L138.405 128.189L138.405 128.189L138.405 128.189L138.406 128.189L138.406 128.189L138.406 128.189L138.407 128.189L138.407 128.189L138.407 128.189L138.408 128.189L138.408 128.189L138.408 128.189L138.409 128.189L138.409 128.189L138.409 128.189L138.41 128.189L138.41 128.188L138.41 128.188L138.411 128.188C138.933 128.156 139.456 128.124 139.977 128.105C140.323 128.093 140.671 128.079 141.011 128.024C142.704 127.751 144.369 127.356 145.708 126.211C146.122 125.858 146.469 125.426 146.816 124.995L146.816 124.994C146.962 124.814 147.106 124.633 147.256 124.459C147.656 123.994 147.805 123.465 147.976 122.859C148.291 121.738 147.591 120.332 146.378 120.423C145.88 120.46 145.543 120.304 145.142 120.111C144.903 119.996 144.581 119.995 144.305 120.025C144.114 120.047 143.921 120.084 143.729 120.12C142.951 120.269 142.181 120.415 141.556 119.542C141.426 119.359 141.168 119.26 140.921 119.165L140.921 119.165C140.848 119.137 140.776 119.11 140.709 119.08C140.569 119.02 140.418 118.976 140.266 118.931C139.996 118.853 139.729 118.774 139.538 118.606C138.752 117.916 138.021 117.158 137.314 116.386C136.953 115.991 136.61 115.578 136.268 115.166C135.913 114.739 135.559 114.313 135.184 113.905C134.444 113.103 133.67 112.329 132.867 111.59C132.208 110.983 131.506 110.418 130.785 109.884C130.262 109.496 129.698 109.161 129.136 108.827L129.136 108.827L128.975 108.731C128.231 108.287 128.17 107.506 128.153 106.805C128.15 106.641 128.441 106.47 128.734 106.299C128.868 106.221 129.003 106.142 129.109 106.063C129.134 106.045 129.16 106.023 129.175 105.997C129.299 105.772 129.423 105.547 129.548 105.322C129.916 104.659 130.283 103.996 130.631 103.323C130.722 103.148 130.758 102.944 130.793 102.741C130.806 102.666 130.819 102.592 130.835 102.519C130.89 102.261 130.955 102.003 131.02 101.746C131.189 101.071 131.358 100.395 131.365 99.7178C131.369 99.3848 131.301 98.9342 131.235 98.5426C131.111 97.8006 130.98 97.0553 130.777 96.3324C130.704 96.0731 130.578 95.8296 130.452 95.5853L130.452 95.5851L130.452 95.585L130.452 95.5849L130.452 95.5848L130.452 95.5847L130.452 95.5845L130.452 95.5844L130.452 95.5843L130.452 95.5842L130.452 95.5841L130.452 95.584L130.452 95.5839L130.451 95.5837L130.451 95.5836L130.451 95.5835L130.451 95.5834L130.451 95.5833L130.451 95.5832L130.451 95.5831C130.355 95.3977 130.259 95.212 130.186 95.0188C130.097 94.7812 130.032 94.5253 129.968 94.2705C129.847 93.7947 129.728 93.3223 129.447 92.9781C129.192 92.6653 128.979 92.3156 128.765 91.9651C128.268 91.1498 127.768 90.3303 126.735 89.9626C126.319 89.8142 125.924 89.5857 125.531 89.3585C125.006 89.0549 124.486 88.7537 123.923 88.6491C122.472 88.3793 120.952 88.4037 119.464 88.4288C118.291 88.4485 117.073 88.499 115.968 88.8372C115.171 89.0811 114.366 89.4745 113.602 89.9861C113.463 90.0792 113.322 90.1717 113.179 90.2646C112.451 90.7401 111.706 91.2262 111.23 91.8657C111.046 92.1122 110.834 92.348 110.621 92.586C109.975 93.3047 109.312 94.0426 109.356 95.1482C108.631 95.5614 108.61 96.2718 108.591 96.9304C108.585 97.1364 108.579 97.3374 108.552 97.5227L108.549 97.5442C108.436 98.3136 108.314 99.1378 108.491 100.046C108.707 101.16 108.951 102.159 109.532 103.114C109.876 103.68 110.16 104.281 109.207 104.595C109.074 104.639 108.909 104.755 108.865 104.876C108.638 105.493 108.331 106.053 107.678 106.273C107.078 106.475 107.123 106.895 107.167 107.307C107.178 107.413 107.189 107.518 107.19 107.619C107.19 107.673 107.692 107.846 107.814 107.758C108.186 107.491 108.546 107.206 108.906 106.921C109.399 106.531 109.892 106.141 110.416 105.798C110.732 105.591 111.29 105.562 111.666 105.679C112.074 105.807 112.457 106.011 112.84 106.215C113.074 106.339 113.308 106.463 113.548 106.571C114.165 106.848 114.789 107.111 115.413 107.374L115.415 107.374C115.74 107.511 116.066 107.649 116.391 107.788C116.815 107.97 116.893 108.208 116.497 108.516C116.293 108.675 116.087 108.833 115.882 108.992L115.881 108.993C115.349 109.403 114.817 109.814 114.294 110.235C112.844 111.404 112.114 113.027 111.914 114.785C111.776 116 111.911 117.336 112.299 118.492C112.606 119.406 113.233 120.226 113.844 121.026C113.954 121.17 114.063 121.313 114.169 121.455C114.963 122.516 116.092 123.144 117.216 123.769L117.216 123.769L117.217 123.77C117.538 123.948 117.858 124.126 118.17 124.315C118.893 124.75 119.731 125.018 120.545 125.27C120.945 125.394 121.359 125.471 121.774 125.547L121.774 125.547L121.774 125.547L121.774 125.547L121.774 125.547L121.774 125.547L121.774 125.547L121.774 125.547L121.774 125.547L121.774 125.547L121.774 125.547L121.774 125.547L121.774 125.547L121.774 125.547L121.775 125.547L121.775 125.547L121.775 125.547L121.775 125.547L121.775 125.547L121.775 125.547L121.775 125.547L121.775 125.547L121.775 125.547L121.775 125.547L121.775 125.547L121.775 125.547L121.776 125.547L121.776 125.547L121.776 125.547L121.776 125.547L121.776 125.547L121.776 125.547L121.776 125.547L121.776 125.547L121.776 125.547L121.776 125.547L121.776 125.548L121.777 125.548L121.777 125.548L121.777 125.548L121.777 125.548C122.108 125.608 122.439 125.669 122.763 125.755C123.06 125.833 123.349 125.942 123.638 126.052C123.907 126.153 124.176 126.255 124.452 126.332C124.948 126.47 125.452 126.583 125.955 126.697L125.956 126.697L125.956 126.697C126.207 126.753 126.458 126.81 126.708 126.869C126.714 126.87 126.715 126.885 126.716 126.901C126.717 126.92 126.719 126.943 126.729 126.95C127.064 127.216 127.536 129.216 127.406 129.603C127.17 130.305 126.971 131.02 126.771 131.734L126.771 131.734L126.73 131.879C126.687 132.033 126.66 132.196 126.632 132.358C126.583 132.649 126.534 132.939 126.394 133.177L126.26 133.403L126.26 133.403C125.644 134.446 125.022 135.499 124.256 136.426C123.495 137.349 122.606 138.219 121.472 138.703C121.251 138.797 121.061 138.943 120.869 139.09C120.474 139.393 120.073 139.7 119.38 139.579C119.007 139.514 118.551 139.919 118.096 140.323C117.896 140.502 117.696 140.68 117.503 140.817C117.456 140.85 117.421 140.899 117.386 140.95L117.386 140.95C117.37 140.972 117.354 140.994 117.338 141.014C117.355 141.02 117.373 141.026 117.39 141.032L117.419 141.043L117.419 141.043C117.475 141.064 117.532 141.086 117.588 141.086C117.784 141.088 117.98 141.083 118.176 141.078C118.578 141.066 118.98 141.055 119.372 141.112C119.753 141.167 120.434 141.485 120.417 141.605C120.326 142.234 120.289 142.866 120.252 143.5C120.193 144.515 120.134 145.535 119.851 146.552C119.673 147.192 119.384 147.767 119.097 148.338C118.879 148.772 118.662 149.203 118.494 149.66C118.055 150.862 116.981 151.918 115.982 152.811C115.126 153.577 114.179 154.239 113.231 154.901C112.758 155.231 112.285 155.561 111.824 155.905C111.275 156.314 110.738 156.737 110.201 157.161L110.2 157.161C109.887 157.408 109.575 157.654 109.261 157.897L109.168 157.969C108.686 158.34 108.203 158.712 107.709 159.069C107.508 159.214 107.311 159.366 107.114 159.518C106.597 159.917 106.079 160.316 105.502 160.584C104.574 161.013 104.002 161.717 104.01 162.612C104.015 163.267 104.193 163.92 104.371 164.573L104.371 164.574C104.46 164.9 104.549 165.227 104.617 165.555C104.658 165.751 104.66 165.955 104.663 166.159C104.664 166.253 104.666 166.346 104.671 166.439C104.482 166.433 104.289 166.442 104.095 166.451C103.657 166.471 103.219 166.491 102.847 166.343C102.4 166.167 101.997 165.889 101.591 165.609C101.308 165.413 101.023 165.216 100.722 165.054C99.6401 164.471 99.0451 163.482 98.475 162.479C98.0672 161.761 97.7275 161.001 97.3898 160.247L97.3437 160.144C97.3318 160.117 97.3193 160.09 97.3065 160.061C97.1727 159.767 97.0016 159.39 97.1055 159.188C97.4458 158.526 97.8935 157.907 98.368 157.327C99.3097 156.176 100.281 155.05 101.252 153.923L101.587 153.534C101.726 153.373 101.862 153.207 101.998 153.041C102.391 152.56 102.786 152.077 103.263 151.7C104.568 150.667 105.614 149.449 106.53 148.066C107.244 146.988 107.524 145.904 107.257 144.655C107.241 144.576 107.293 144.482 107.345 144.389C107.37 144.345 107.395 144.301 107.412 144.258C107.192 144.203 106.973 144.147 106.753 144.091L106.753 144.09L106.741 144.088L106.739 144.087C106.51 144.028 106.28 143.97 106.051 143.912C106.029 144.005 105.998 144.098 105.968 144.192C105.902 144.395 105.837 144.598 105.857 144.793C106.016 146.313 105.531 147.449 104.38 148.554C102.903 149.97 101.548 151.514 100.194 153.058C99.7435 153.571 99.293 154.085 98.8382 154.593C98.5962 154.864 98.3415 155.118 98.0875 155.372C97.217 156.243 96.3564 157.103 96.0584 158.543C95.8309 159.641 96.1075 160.446 96.3946 161.282ZM138.841 126.533C138.458 126.562 138.075 126.591 137.689 126.613C131.869 126.95 125.275 125.227 124.81 125.012C124.302 124.776 123.747 124.643 123.192 124.51L123.192 124.51L123.192 124.51L123.192 124.51L123.192 124.51L123.192 124.51L123.191 124.51L123.191 124.51C122.971 124.457 122.751 124.405 122.534 124.345C122.346 124.294 122.157 124.247 121.968 124.201L121.967 124.2L121.967 124.2C121.671 124.127 121.375 124.054 121.084 123.964C120.301 123.722 119.522 123.465 118.749 123.194C118.471 123.097 118.203 122.96 117.952 122.806C117.767 122.693 117.578 122.584 117.389 122.475C116.864 122.172 116.337 121.869 115.902 121.468C115.469 121.069 115.156 120.531 114.849 120.004C114.793 119.907 114.737 119.81 114.68 119.715C114.343 119.148 114.035 118.55 113.789 117.943C112.753 115.389 114.051 112.629 114.595 111.743C115.285 110.621 116.568 110.005 117.615 109.816C118.513 109.653 119.699 109.616 120.787 109.992C121.536 110.25 122.187 110.641 122.836 111.03L122.836 111.03C123.221 111.261 123.605 111.492 124.007 111.693C125.359 112.37 126.57 113.248 127.77 114.119L127.77 114.119L127.911 114.221C128.604 114.723 129.199 115.357 129.795 115.992L129.795 115.993C130.162 116.383 130.529 116.774 130.919 117.135C131.524 117.695 132.178 118.203 132.83 118.712L132.831 118.712L132.832 118.713C132.922 118.783 133.012 118.854 133.102 118.924L133.191 118.993L133.292 119.073C133.454 119.2 133.613 119.332 133.773 119.464L133.773 119.464C134.256 119.862 134.741 120.262 135.286 120.54C135.977 120.893 136.72 121.146 137.462 121.398L137.463 121.398L137.463 121.398L137.464 121.398L137.465 121.399L137.466 121.399L137.467 121.399C137.703 121.48 137.94 121.56 138.174 121.644C138.746 121.847 139.325 122.04 139.913 122.185C139.951 122.194 139.99 122.204 140.029 122.214L140.111 122.235L140.111 122.235C140.572 122.351 141.048 122.472 141.503 122.435C142.828 122.326 142.888 122.28 143.992 121.441L144.178 121.299C144.312 121.198 144.534 121.125 144.69 121.157C145.602 121.348 146.54 121.578 147.132 122.339C147.26 122.504 146.953 123.173 146.683 123.452L146.532 123.608C145.726 124.441 144.939 125.256 143.769 125.737C142.754 126.154 141.794 126.391 140.728 126.421C140.097 126.439 139.47 126.486 138.841 126.533ZM110.006 101.436C110 101.341 109.995 101.246 109.984 101.155C109.935 100.744 109.891 100.332 109.848 99.9212C109.83 99.7522 109.812 99.5832 109.794 99.4143C109.897 98.5582 109.989 97.8882 110.108 97.2233L110.117 97.1718C110.122 97.1408 110.127 97.1097 110.132 97.0785C110.144 97.0066 110.155 96.9341 110.166 96.8615L110.166 96.861C110.224 96.469 110.283 96.0726 110.456 95.7392C110.654 95.3587 110.902 95.0044 111.15 94.65C111.388 94.3101 111.626 93.97 111.82 93.6067C112.481 92.3701 113.627 91.7583 114.757 91.1553C115.061 90.9934 115.363 90.8321 115.654 90.6595C116.279 90.2894 117.058 90.1676 117.826 90.0473L117.827 90.0473L117.827 90.0473L117.827 90.0473L117.827 90.0472L117.828 90.0471L117.828 90.0471L117.828 90.047L117.829 90.0469L117.829 90.0469L117.83 90.0468L117.83 90.0467C118.076 90.0083 118.32 89.9701 118.559 89.9238C119.19 89.8015 119.843 89.7263 120.484 89.7385C121.51 89.7582 122.5 89.9948 123.505 90.2467C124.873 90.5895 125.972 91.2932 126.977 92.1882C127.183 92.3717 127.302 92.6514 127.422 92.9318C127.481 93.0686 127.539 93.2057 127.608 93.3318C127.75 93.5929 127.894 93.8529 128.039 94.1128C128.281 94.5489 128.523 94.985 128.756 95.4265C129.079 96.0419 128.54 96.7345 127.829 96.7721C127.331 96.7985 123.649 97.1101 122.319 98.2756C121.185 99.2694 120.91 99.6511 120.466 100.266C120.389 100.373 120.307 100.486 120.215 100.611C119.889 101.053 119.612 103.079 119.789 103.619C119.944 104.093 120.157 104.546 120.37 105.001L120.37 105.001C120.541 105.363 120.711 105.726 120.852 106.099C120.953 106.366 120.977 106.662 121.001 106.958C121.012 107.092 121.023 107.227 121.041 107.358C120.911 107.354 120.78 107.356 120.649 107.357C120.351 107.361 120.054 107.364 119.769 107.306C119.452 107.242 119.146 107.122 118.84 107.002C118.703 106.949 118.567 106.895 118.429 106.846C117.836 106.637 117.242 106.427 116.649 106.218L115.763 105.906C115.572 105.838 115.378 105.775 115.184 105.713C114.758 105.575 114.331 105.437 113.929 105.246C112.414 104.526 110.996 103.656 110.146 102.134C110.036 101.938 110.021 101.686 110.006 101.436V101.436ZM125.638 150.801C125.731 151.188 125.825 151.576 125.911 151.965C125.925 152.029 125.883 152.105 125.84 152.18C125.82 152.215 125.801 152.251 125.787 152.285C125.912 152.996 126.031 153.521 126.164 154.042C126.259 154.411 126.357 154.78 126.454 155.149L126.454 155.149L126.454 155.15L126.455 155.151L126.455 155.151L126.455 155.152L126.455 155.153L126.455 155.153L126.455 155.154L126.456 155.154L126.456 155.155L126.456 155.156L126.456 155.156L126.456 155.157L126.456 155.158L126.457 155.158L126.457 155.159L126.457 155.16L126.457 155.16L126.457 155.161L126.457 155.162L126.458 155.162C126.643 155.864 126.83 156.566 126.995 157.273C127.087 157.668 127.131 158.095 127.092 158.496C126.988 159.576 128.234 161.918 129.228 162.08C129.905 162.19 130.6 162.18 131.297 162.17H131.297H131.298H131.298H131.298H131.299H131.299H131.299H131.3H131.3H131.3H131.301H131.301H131.301H131.301H131.302H131.302H131.302H131.303H131.303H131.303C131.733 162.164 132.163 162.157 132.589 162.18C132.925 162.196 133.291 162.354 133.56 162.558C133.645 162.622 133.537 163.117 133.38 163.288C133.012 163.688 132.59 164.055 132.138 164.358C130.54 165.435 128.715 165.418 126.896 165.355C125.289 165.301 123.823 164.932 122.847 163.468C122.389 162.781 121.905 162.112 121.421 161.442L121.42 161.441C121.121 161.027 120.822 160.613 120.529 160.195C120.283 159.844 120.044 159.488 119.805 159.133L119.805 159.133L119.805 159.133L119.805 159.132L119.804 159.132L119.804 159.132L119.804 159.132L119.804 159.132L119.804 159.132L119.804 159.132L119.804 159.131L119.804 159.131L119.804 159.131L119.804 159.131L119.804 159.131L119.803 159.131L119.803 159.131L119.803 159.13L119.803 159.13L119.803 159.13L119.803 159.13C119.511 158.696 119.219 158.263 118.916 157.837C118.686 157.516 118.442 157.203 118.198 156.889L118.198 156.889C117.673 156.214 117.149 155.54 116.769 154.793C116.572 154.403 116.969 153.534 117.334 153.073C117.722 152.582 118.162 152.131 118.602 151.68C119.103 151.165 119.605 150.651 120.029 150.078C120.233 149.802 120.304 149.423 120.374 149.046C120.449 148.65 120.522 148.257 120.749 147.989C121.328 147.309 121.336 146.55 121.343 145.805C121.347 145.483 121.35 145.164 121.399 144.855C121.471 144.406 121.537 143.955 121.603 143.503L121.604 143.503L121.604 143.503L121.604 143.502L121.604 143.502L121.604 143.502L121.604 143.501L121.604 143.501L121.604 143.501C121.743 142.554 121.883 141.605 122.07 140.67C122.139 140.327 122.505 140.037 122.858 139.758C122.976 139.665 123.092 139.573 123.195 139.481C123.242 139.44 123.602 139.605 123.649 139.735C123.807 140.172 123.928 140.631 123.993 141.092C124.07 141.642 124.135 142.194 124.2 142.747L124.2 142.747L124.2 142.747C124.284 143.47 124.369 144.192 124.481 144.909C124.54 145.282 124.643 145.648 124.746 146.014L124.746 146.014L124.747 146.014L124.747 146.014L124.747 146.014L124.747 146.014L124.747 146.015L124.747 146.015L124.747 146.015L124.747 146.015L124.747 146.015L124.747 146.015L124.747 146.015L124.747 146.015L124.747 146.015L124.747 146.016L124.747 146.016L124.747 146.016L124.747 146.016L124.747 146.016L124.747 146.016C124.837 146.337 124.928 146.657 124.988 146.983C125.049 147.309 125.077 147.64 125.106 147.972L125.106 147.972L125.106 147.972L125.106 147.973L125.106 147.973L125.106 147.973L125.107 147.973L125.107 147.973L125.107 147.973L125.107 147.974L125.107 147.974L125.107 147.974L125.107 147.974L125.107 147.974L125.107 147.975L125.107 147.975L125.107 147.975L125.107 147.975L125.107 147.975L125.107 147.975L125.107 147.976C125.137 148.321 125.167 148.665 125.232 149.003C125.349 149.606 125.494 150.203 125.638 150.8L125.638 150.801ZM124.58 107.338C124.227 107.442 123.648 107.156 123.321 106.875C123.029 106.626 122.811 106.291 122.593 105.955C122.499 105.811 122.406 105.667 122.306 105.529C122.217 105.396 122.129 105.27 122.044 105.147L122.044 105.147C121.767 104.751 121.523 104.4 121.386 104.012C121.303 103.776 121.303 103.513 121.303 103.248C121.303 103.036 121.303 102.823 121.26 102.621C121.062 101.687 121.567 101.103 122.088 100.501C122.164 100.412 122.241 100.324 122.316 100.233C122.919 99.5061 123.661 98.9665 124.48 98.5565C124.95 98.3214 125.519 98.2233 126.051 98.1887C126.394 98.1664 126.742 98.1817 127.088 98.1969C127.589 98.2189 128.088 98.2408 128.568 98.1492C129.103 98.0468 129.271 98.3005 129.448 98.5859C129.613 98.8518 129.715 99.197 129.724 99.5108C129.748 100.34 129.72 101.172 129.676 102.001C129.673 102.066 129.602 102.125 129.529 102.186C129.457 102.246 129.384 102.306 129.373 102.375C129.115 103.961 128.143 105.156 127.045 106.175C126.405 106.769 125.448 107.082 124.58 107.338ZM135.871 119.245C135.865 119.252 135.858 119.259 135.853 119.264C135.714 119.145 135.58 119.028 135.449 118.914L135.449 118.914C134.911 118.446 134.424 118.023 133.914 117.63C133.785 117.53 133.629 117.465 133.472 117.401C133.302 117.33 133.132 117.26 133 117.145C132.552 116.758 132.118 116.354 131.685 115.951L131.685 115.95C131.318 115.608 130.951 115.266 130.575 114.934C129.805 114.255 129.015 113.599 128.218 112.952C128.051 112.817 127.886 112.679 127.72 112.542L127.72 112.541L127.719 112.54L127.719 112.54C127.153 112.069 126.586 111.598 125.963 111.223C125.371 110.868 124.742 110.578 124.112 110.288L124.112 110.288L124.112 110.288L124.112 110.288L124.112 110.288L124.112 110.288L124.111 110.288L124.111 110.288L124.111 110.288L124.111 110.288L124.111 110.288L124.111 110.288L124.111 110.288L124.111 110.288L124.111 110.288L124.111 110.287L124.111 110.287L124.11 110.287L124.11 110.287L124.11 110.287L124.11 110.287C123.73 110.112 123.349 109.937 122.977 109.747C122.564 109.536 122.176 109.276 121.789 109.017C121.731 108.979 121.673 108.94 121.615 108.901C121.606 108.895 121.733 108.565 121.817 108.555C122.12 108.518 122.428 108.464 122.736 108.409L122.737 108.409C123.531 108.269 124.33 108.128 125.063 108.284C126.101 108.505 127.15 108.879 128.133 109.555C129.754 110.671 131.186 111.948 132.546 113.332C134.039 114.85 135.51 116.389 136.982 117.927L136.982 117.927L136.983 117.928L136.983 117.928L136.984 117.929L136.984 117.929L136.985 117.93L136.985 117.93L136.986 117.931L136.986 117.931L136.987 117.932L136.987 117.932L136.988 117.932L136.988 117.933L136.988 117.933L136.989 117.934L136.989 117.934L136.99 117.935L136.99 117.935L136.991 117.936L136.991 117.936L137.532 118.501C138.185 119.184 138.82 119.885 139.453 120.586C139.511 120.649 139.551 120.813 139.512 120.864L139.512 120.864C139.384 121.033 139.161 121.326 139.072 121.295C138.779 121.191 138.512 120.997 138.253 120.809L138.207 120.775C137.817 120.492 137.43 120.206 137.043 119.919C136.689 119.658 136.336 119.396 135.981 119.138C135.976 119.134 135.939 119.173 135.903 119.212C135.892 119.223 135.881 119.235 135.871 119.245ZM305.463 165.086C305.295 165.093 305.117 165.118 304.939 165.143C304.548 165.199 304.156 165.254 303.864 165.111C303.851 165.105 303.823 165.091 303.781 165.069L303.697 165.027C300.762 163.547 261.21 143.592 220.861 131.315C185.885 120.672 149.149 117.659 147.578 117.53L147.533 117.526C147.365 117.512 184.864 116.583 221.413 127.543C263.431 140.143 305.288 164.875 305.463 165.086ZM174.377 95.304L174.378 95.3014C174.422 94.8901 174.467 94.4739 174.518 94.052C174.491 93.9444 174.466 93.839 174.441 93.7357L174.44 93.7308L174.438 93.7239L174.438 93.7235L174.438 93.723L174.438 93.7226L174.438 93.7224C174.319 93.2271 174.212 92.7794 174.044 92.3559C174.021 92.2973 173.998 92.2384 173.976 92.1795C173.719 91.5145 173.461 90.8485 172.598 90.6412C172.408 90.5956 172.245 90.4494 172.08 90.3009C171.945 90.1786 171.807 90.0548 171.651 89.9844C171.195 89.7788 170.698 89.6358 170.204 89.549C169.954 89.5051 169.698 89.4988 169.442 89.4924C169.19 89.4862 168.937 89.4799 168.691 89.4378C168.25 89.3624 167.811 89.2675 167.372 89.1727L167.372 89.1727C166.697 89.0269 166.022 88.8812 165.34 88.8062C165.077 88.7774 164.814 88.7525 164.551 88.7276C163.818 88.6583 163.087 88.5891 162.357 88.4342C161.68 88.2908 160.976 88.2709 160.274 88.251C160.049 88.2446 159.825 88.2382 159.602 88.2278C159.5 88.223 159.394 88.2569 159.289 88.2906C159.173 88.3279 159.058 88.3649 158.949 88.3484C158.176 88.2318 157.406 88.0912 156.637 87.9507L156.636 87.9506L156.636 87.9506L156.636 87.9505L156.636 87.9505L156.635 87.9504L156.635 87.9504L156.635 87.9503L156.635 87.9503L156.634 87.9502L156.634 87.9502L156.634 87.9501L156.633 87.9501L156.633 87.9501L156.633 87.95L156.633 87.95L156.632 87.9499L156.632 87.9499L156.632 87.9498C156.435 87.9139 156.239 87.878 156.042 87.8425C155.699 87.7805 155.358 87.7858 155.013 87.7911C154.627 87.7971 154.237 87.8031 153.833 87.7157C153.14 87.5655 152.418 87.5601 151.69 87.5546C151.2 87.5509 150.708 87.5471 150.221 87.4993C149.214 87.4005 148.195 87.424 147.176 87.4476C146.759 87.4572 146.343 87.4668 145.927 87.4681C145.312 87.4701 144.548 88.1778 144.505 88.7799C144.492 88.9511 144.502 89.139 144.511 89.3264C144.531 89.7201 144.551 90.112 144.367 90.3445C143.902 90.9331 143.965 91.5659 144.029 92.2014C144.081 92.7228 144.133 93.2459 143.894 93.748C143.657 94.2453 143.687 94.8426 143.717 95.4398C143.732 95.7312 143.746 96.0226 143.73 96.3023C143.702 96.7727 143.66 97.2432 143.618 97.714C143.535 98.6357 143.452 99.5587 143.479 100.485C143.482 100.61 143.515 100.737 143.548 100.863C143.59 101.022 143.631 101.179 143.612 101.331C143.532 101.98 143.434 102.626 143.336 103.272C143.254 103.812 143.173 104.352 143.101 104.893C143.05 105.282 143.052 105.672 143.054 106.063C143.058 106.565 143.061 107.07 142.95 107.583C142.823 108.178 142.82 108.794 142.817 109.415C142.815 109.884 142.813 110.356 142.758 110.825C142.686 111.428 142.698 112.036 142.71 112.647V112.647C142.726 113.471 142.742 114.298 142.553 115.122C142.436 115.631 142.405 116.16 142.374 116.689V116.689V116.689C142.354 117.028 142.334 117.368 142.292 117.703C142.276 117.827 142.197 117.966 142.124 118.095C142.036 118.248 141.957 118.387 142.003 118.469C142.15 118.731 142.495 118.931 142.798 119.043C143.626 119.349 144.739 118.947 144.786 118.359C144.807 118.097 144.838 117.832 144.868 117.568L144.868 117.567C144.947 116.875 145.026 116.182 144.942 115.51C144.863 114.885 145.005 114.305 145.146 113.728L145.147 113.728C145.266 113.239 145.386 112.752 145.369 112.243C145.364 112.087 145.554 111.789 145.663 111.784C147.075 111.724 148.488 111.689 149.902 111.681C150.405 111.678 150.909 111.693 151.413 111.707C151.967 111.723 152.52 111.739 153.073 111.732C153.653 111.724 154.233 111.7 154.813 111.675H154.813H154.813H154.814H154.814H154.814H154.814H154.814H154.814H154.814H154.815H154.815H154.815H154.815H154.815H154.815H154.815H154.816H154.816L154.816 111.675C155.753 111.635 156.69 111.595 157.625 111.628C158.212 111.649 158.795 111.767 159.379 111.886C159.785 111.969 160.192 112.052 160.602 112.102C160.856 112.133 161.11 112.138 161.366 112.144H161.366C161.781 112.154 162.197 112.163 162.614 112.28C162.859 112.349 163.125 112.341 163.392 112.332C163.64 112.324 163.888 112.316 164.12 112.37C164.502 112.458 164.872 112.592 165.242 112.727L165.242 112.727L165.243 112.727L165.243 112.727L165.243 112.727L165.243 112.727L165.243 112.727L165.243 112.727L165.243 112.727L165.244 112.727L165.244 112.727L165.244 112.727L165.244 112.727L165.244 112.727L165.244 112.727L165.244 112.728L165.244 112.728L165.245 112.728L165.245 112.728C165.562 112.843 165.879 112.958 166.204 113.044C166.575 113.142 166.959 113.194 167.344 113.245C167.537 113.271 167.731 113.297 167.923 113.329C168.093 113.357 168.272 113.408 168.45 113.458C168.836 113.567 169.221 113.675 169.52 113.559C170.11 113.332 170.688 112.821 171.032 112.28C171.381 111.73 171.523 111.029 171.658 110.367L171.678 110.268C171.719 110.066 171.697 109.841 171.675 109.619V109.619C171.647 109.329 171.619 109.046 171.735 108.834C172.085 108.189 172.177 107.502 172.269 106.817C172.315 106.481 172.36 106.144 172.436 105.814C172.472 105.656 172.453 105.471 172.435 105.291C172.41 105.053 172.387 104.825 172.494 104.684C172.97 104.052 173.038 103.331 173.107 102.609C173.15 102.154 173.193 101.7 173.338 101.266C173.538 100.669 173.653 100.025 173.767 99.382L173.767 99.3817L173.768 99.381L173.768 99.3803C173.817 99.1013 173.867 98.8223 173.924 98.5471C174.141 97.492 174.257 96.4159 174.377 95.304ZM170.925 106.528C170.797 107.184 170.67 107.837 170.378 108.446C170.37 108.519 170.364 108.589 170.358 108.657C170.353 108.716 170.349 108.773 170.345 108.828C170.321 109.143 170.303 109.389 170.199 109.59C170.037 109.902 170.016 110.265 169.995 110.627C169.96 111.218 169.926 111.807 169.28 112.172C169.252 112.187 169.223 112.204 169.194 112.221C168.988 112.34 168.751 112.477 168.568 112.437C168.382 112.396 168.208 112.298 168.034 112.201C167.851 112.098 167.669 111.997 167.474 111.96C167.131 111.896 166.78 111.869 166.429 111.841C166.027 111.81 165.625 111.779 165.235 111.692C164.903 111.618 164.584 111.484 164.265 111.351C163.94 111.215 163.615 111.079 163.277 111.006C162.846 110.912 162.402 110.88 161.958 110.847C161.612 110.822 161.267 110.797 160.926 110.743C158.009 110.28 155.08 110.35 152.152 110.419C150.396 110.461 148.641 110.503 146.888 110.43C146.282 110.405 145.772 110.371 145.727 109.596C145.712 109.317 145.662 109.026 145.612 108.735C145.509 108.136 145.407 107.54 145.604 107.067C146.021 106.07 145.971 105.085 145.922 104.105V104.105V104.104V104.104V104.103V104.103V104.103V104.102V104.102V104.102V104.101V104.101V104.101V104.1V104.1V104.099V104.099V104.099V104.098C145.901 103.689 145.881 103.28 145.895 102.872C146.026 99.0034 146.061 95.1313 146.091 91.2604C146.092 91.2037 146.092 91.1473 146.092 91.0912C146.093 90.458 146.095 89.8707 146.561 89.3432C146.83 89.0399 147.067 88.9266 147.482 88.9565C147.97 88.9916 148.46 88.9985 148.95 89.0054H148.95C149.505 89.0131 150.06 89.0209 150.611 89.0698C151.164 89.1188 151.714 89.2051 152.264 89.2914L152.264 89.2915C152.843 89.3823 153.421 89.4731 154.004 89.5204C154.378 89.5509 154.766 89.5235 155.152 89.4964C155.751 89.4542 156.344 89.4124 156.87 89.5876C157.935 89.9421 159.01 89.9679 160.083 89.9936C160.639 90.007 161.195 90.0203 161.748 90.0794C162.178 90.1253 162.63 90.0911 163.078 90.0572C163.751 90.0061 164.416 89.9558 164.981 90.1799C165.91 90.5488 166.839 90.5557 167.754 90.5625C168.117 90.5652 168.478 90.5679 168.836 90.5931C170.346 90.6994 171.657 91.1301 172.493 92.2352C172.979 92.877 173.447 93.9397 172.836 94.9377C172.782 95.0252 172.796 95.1521 172.81 95.2812L172.81 95.2815C172.818 95.354 172.827 95.4272 172.823 95.4946C172.805 95.8151 172.808 96.1441 172.812 96.4733C172.82 97.2284 172.828 97.984 172.575 98.6376C172.331 99.2652 172.214 99.9096 172.098 100.552L172.098 100.552C172.001 101.091 171.903 101.629 171.731 102.154C171.611 102.52 171.614 102.933 171.617 103.343C171.62 103.806 171.622 104.265 171.448 104.649C171.173 105.255 171.049 105.893 170.925 106.527L170.925 106.528V106.528L170.925 106.528L170.925 106.528ZM143.918 110.587C143.893 110.561 143.868 110.536 143.849 110.515C144.198 110.55 144.591 110.621 144.674 110.822C144.765 111.04 144.752 111.301 144.738 111.563C144.733 111.674 144.727 111.785 144.729 111.893C144.703 111.893 144.673 111.897 144.644 111.901C144.578 111.909 144.513 111.917 144.484 111.889C144.444 111.848 144.415 111.787 144.387 111.729C144.352 111.653 144.318 111.581 144.262 111.561C143.613 111.329 143.596 111.287 144.02 110.706C144.027 110.696 143.973 110.642 143.919 110.587L143.919 110.587L143.918 110.587L143.918 110.587L143.918 110.587ZM214.029 180.978C214.527 181.206 214.981 181.438 215.425 181.665C215.65 181.78 215.873 181.894 216.097 182.005C216.265 182.089 216.442 182.159 216.618 182.23C216.908 182.346 217.197 182.462 217.446 182.635C217.755 182.849 218.014 183.136 218.272 183.422C218.329 183.484 218.385 183.547 218.441 183.608C218.466 183.635 218.491 183.662 218.517 183.689C218.554 183.73 218.528 183.918 218.498 183.928C218.471 183.936 218.443 183.945 218.415 183.955C218.367 183.972 218.318 183.991 218.269 184.01C218.054 184.092 217.832 184.177 217.668 184.116C217.398 184.015 217.121 183.933 216.843 183.852L216.843 183.852L216.842 183.852L216.842 183.852L216.842 183.852L216.842 183.852L216.842 183.852L216.841 183.851L216.841 183.851L216.841 183.851L216.841 183.851L216.841 183.851L216.841 183.851C216.013 183.608 215.186 183.366 214.569 182.607C214.069 181.99 213.376 181.478 212.675 181.094C212.358 180.923 211.781 181.175 211.651 181.7C211.322 183.023 207.726 188.27 202.341 188.27C196.957 188.27 188.485 187.716 186.234 185.012C183.07 181.213 184.289 173.959 184.406 173.261L184.412 173.222C184.45 172.985 184.275 172.686 184.126 172.464C184.081 172.396 183.76 172.436 183.624 172.52C183.209 172.783 182.805 173.062 182.401 173.342C182.237 173.455 182.073 173.569 181.908 173.681C181.721 173.808 181.537 173.937 181.352 174.067L181.352 174.067L181.351 174.067L181.351 174.067C180.849 174.419 180.346 174.771 179.811 175.064C179.647 175.154 179.377 175.066 179.124 174.984L179.124 174.984C179.049 174.96 178.976 174.936 178.907 174.917C178.764 174.877 178.629 174.808 178.494 174.738C178.433 174.707 178.371 174.675 178.309 174.646C178.42 174.548 178.527 174.446 178.634 174.343C178.872 174.115 179.111 173.888 179.38 173.708C179.746 173.465 180.129 173.248 180.513 173.031L180.513 173.031L180.513 173.03L180.514 173.03C180.792 172.872 181.071 172.715 181.344 172.547C182.049 172.11 182.745 171.655 183.431 171.19C183.515 171.133 183.6 171.078 183.685 171.022C184.037 170.791 184.392 170.558 184.666 170.255C185.831 168.968 187.141 167.877 188.499 166.791C189.131 166.288 189.823 165.943 190.511 165.599C190.994 165.358 191.475 165.118 191.933 164.825C192.255 164.62 192.661 164.552 193.069 164.483C193.294 164.446 193.519 164.408 193.732 164.347C194.142 164.229 194.548 164.099 194.955 163.969L194.956 163.969C195.257 163.872 195.559 163.776 195.861 163.685C195.948 163.659 196.043 163.663 196.138 163.666C196.169 163.667 196.2 163.668 196.23 163.668C196.604 163.668 196.98 163.658 197.355 163.648L197.357 163.648C198.239 163.624 199.122 163.6 199.988 163.707C200.53 163.775 201.049 164.029 201.568 164.283C201.801 164.397 202.034 164.511 202.27 164.609C202.257 164.629 202.246 164.655 202.235 164.68C202.213 164.731 202.191 164.781 202.159 164.791C200.91 165.137 199.69 165.342 198.411 164.753C198.016 164.572 197.488 164.638 196.994 164.7C196.895 164.712 196.797 164.725 196.702 164.735C196.242 164.784 195.787 164.897 195.335 165.009L195.335 165.009L195.335 165.009L195.335 165.009L195.205 165.042C195.147 165.056 195.088 165.07 195.03 165.085C194.936 165.107 194.841 165.128 194.746 165.149C194.395 165.227 194.043 165.306 193.726 165.455C192.582 165.993 191.449 166.563 190.335 167.166C189.967 167.365 189.614 167.592 189.261 167.82L189.261 167.82L189.261 167.82L189.26 167.82L189.26 167.82L189.26 167.821L189.26 167.821L189.26 167.821L189.26 167.821L189.26 167.821L189.259 167.821L189.259 167.821L189.259 167.821L189.259 167.821L189.259 167.821L189.259 167.821C188.939 168.028 188.62 168.234 188.288 168.419C188.106 168.521 187.908 168.6 187.711 168.68C187.2 168.886 186.691 169.091 186.443 169.687C186.423 169.732 186.365 169.763 186.307 169.793C186.281 169.806 186.256 169.819 186.234 169.833C186.364 169.837 186.497 169.85 186.629 169.862C186.927 169.891 187.225 169.92 187.494 169.843C187.949 169.715 188.381 169.508 188.814 169.301L188.814 169.301L188.815 169.3L188.816 169.3L188.817 169.3L188.818 169.299C188.964 169.229 189.11 169.159 189.257 169.092C189.472 168.995 189.683 168.89 189.895 168.785C190.306 168.581 190.717 168.377 191.146 168.23C191.401 168.144 191.678 168.127 191.956 168.11C192.154 168.098 192.354 168.086 192.546 168.048C192.905 167.979 193.26 167.884 193.615 167.788L193.615 167.788C193.794 167.74 193.973 167.692 194.153 167.647C194.24 167.626 194.334 167.621 194.424 167.621C194.808 167.62 195.196 167.64 195.585 167.659L195.585 167.659C196.515 167.705 197.445 167.752 198.304 167.525C198.65 167.434 198.961 167.463 199.267 167.493C199.516 167.516 199.761 167.54 200.02 167.497C200.515 167.414 201.077 167.645 201.613 167.864L201.616 167.865C201.677 167.89 201.738 167.915 201.799 167.94C201.826 167.951 201.853 167.961 201.88 167.972L201.931 167.992L201.984 168.012C202.571 168.234 203.188 168.473 203.672 168.855C204.239 169.306 204.758 169.817 205.277 170.327C205.497 170.543 205.716 170.759 205.939 170.97C205.897 171.013 205.85 171.071 205.803 171.128L205.802 171.129L205.802 171.129C205.7 171.253 205.598 171.377 205.553 171.359C205.337 171.273 191.941 169.601 186.708 172.464C184.81 173.502 186.556 181.045 186.702 181.676L186.708 181.7C187.494 185.113 199.757 187.081 204.423 186.3C210.04 185.361 210.377 179.49 210.487 177.586V177.586V177.586C210.506 177.252 210.518 177.04 210.55 176.998C210.851 176.613 211.331 176.406 211.758 176.763C211.961 176.932 212.097 177.262 212.131 177.533C212.162 177.789 212.243 178.034 212.321 178.271C212.383 178.46 212.444 178.644 212.477 178.827C212.581 179.403 212.952 179.765 213.327 180.13C213.59 180.386 213.854 180.644 214.029 180.978ZM77.7388 145.826C77.5628 145.786 77.3872 145.747 77.2701 145.812C76.861 146.041 59.4646 153.824 47.3181 147.165C47.1691 147.083 46.9553 146.973 46.6992 146.84C45.1787 146.054 42.166 144.497 42.3465 143.615C42.8381 141.212 49.7122 137.91 50.6062 137.48L50.6825 137.443C50.6932 137.438 50.6995 137.435 50.7013 137.434C50.6626 137.373 50.6274 137.3 50.5922 137.228C50.5144 137.067 50.4365 136.906 50.3212 136.872C49.989 136.774 49.6014 136.761 49.2584 136.826C48.8578 136.903 44.4985 137.874 43.7348 138.358C42.932 138.868 40.7348 141.545 40.775 142.409C40.7924 142.778 40.6694 143.152 40.5458 143.529L40.5457 143.529C40.4809 143.727 40.4159 143.925 40.3709 144.123C40.3445 144.238 40.3393 144.365 40.3342 144.49C40.3261 144.689 40.3181 144.884 40.2258 145.03C40.1252 145.188 40.0065 145.443 39.8628 145.751L39.8626 145.752L39.8626 145.752L39.8625 145.752L39.8625 145.752C39.5798 146.359 39.2 147.173 38.6695 147.878C38.2716 148.406 37.731 148.849 37.3198 149.187L37.3197 149.187L37.3196 149.187L37.3194 149.187C37.0737 149.389 36.8743 149.552 36.7795 149.673C36.7224 149.746 36.6472 149.818 36.5703 149.893C36.358 150.098 36.1328 150.316 36.2417 150.576C36.3891 150.928 36.9081 150.756 37.1872 150.663L37.1932 150.661C37.5996 150.527 37.9861 150.268 38.318 149.987C38.7829 149.594 39.2211 149.159 39.6132 148.695C40.0149 148.217 40.4072 147.713 40.6943 147.165C41.0114 146.557 41.7124 146.306 42.3465 146.742C60.1826 159.007 77.0129 147.316 77.7988 146.618C77.9066 146.522 77.9257 146.327 77.9448 146.132C77.9536 146.041 77.9625 145.951 77.98 145.871C77.9034 145.863 77.8211 145.844 77.7388 145.826ZM158.29 76.8833C157.938 77.2357 157.588 77.5816 157.24 77.9247C156.366 78.7878 155.509 79.6337 154.7 80.5229C154.415 80.8355 154.238 81.2462 154.06 81.6563C153.984 81.8334 153.907 82.0104 153.822 82.1793C153.363 83.0885 152.687 83.4298 151.497 83.9459C150.809 84.2443 150.089 84.5295 149.453 84.4048C149.006 84.3173 148.558 84.324 148.116 84.3307C147.626 84.338 147.144 84.3453 146.681 84.2238C146.118 84.0761 145.5 83.592 145.217 83.0855C144.971 82.6467 145.246 82.0772 145.736 81.6057C146.277 81.0854 146.743 80.4885 147.209 79.8908L147.21 79.8904L147.21 79.8901L147.21 79.8899L147.21 79.8897L147.21 79.8895L147.21 79.8894L147.211 79.8892L147.211 79.889L147.211 79.8889L147.211 79.8887L147.211 79.8885L147.211 79.8883L147.211 79.8882L147.212 79.888L147.212 79.8878C147.48 79.5434 147.749 79.1987 148.033 78.8685C148.338 78.5139 148.64 78.1567 148.942 77.7994L148.942 77.7993C149.94 76.6189 150.939 75.4377 152.031 74.3513C152.933 73.4531 154.056 72.8744 155.38 72.502C156.584 72.1633 157.504 72.2469 158.581 72.7076C158.982 72.8792 159.445 72.9036 159.91 72.9281C160.136 72.94 160.363 72.952 160.583 72.981C161.285 73.0738 161.701 73.7351 161.249 74.0569C160.849 74.3416 160.104 74.6215 159.77 74.4366C157.937 73.4202 156.11 73.6603 154.315 74.3427C153.836 74.5245 153.44 74.9408 153.051 75.3493C152.927 75.4798 152.803 75.6096 152.678 75.7307C151.717 76.6594 150.76 77.5935 149.848 78.5699C149.496 78.9478 149.193 79.3736 148.892 79.7989L148.891 79.7995C148.78 79.9567 148.668 80.114 148.554 80.2687C148.478 80.3714 148.402 80.4739 148.327 80.5765C147.942 81.0956 147.557 81.6151 147.199 82.1521C146.933 82.5511 146.968 82.6268 147.384 82.7594C148.423 83.0904 149.436 83.0255 150.469 82.6497C151.73 82.191 152.455 81.2293 153.209 80.2309L153.209 80.2304C153.301 80.1085 153.393 79.9861 153.487 79.864C154.101 79.064 154.847 78.3647 155.592 77.6653C155.917 77.3605 156.242 77.0556 156.556 76.7424C156.611 76.6875 156.668 76.634 156.724 76.5805C156.825 76.4854 156.926 76.3903 157.018 76.2872C157.475 75.7739 157.936 75.28 158.713 75.3216C158.749 75.3236 158.784 75.2793 158.822 75.2316C158.851 75.1954 158.881 75.1571 158.915 75.1357C158.964 75.1041 159.023 75.0878 159.082 75.0715C159.096 75.0678 159.109 75.0641 159.123 75.0602C159.135 75.0566 159.147 75.0528 159.159 75.0488C159.156 75.075 159.154 75.1021 159.152 75.1293C159.148 75.1883 159.144 75.2473 159.119 75.2962C158.863 75.812 158.599 76.3233 158.29 76.8833ZM165.204 69.5748C166.499 68.3506 167.802 67.1179 168.685 65.4531C168.472 65.3821 168.257 65.3659 168.045 65.3498L168.044 65.3498C167.944 65.3422 167.844 65.3347 167.745 65.3214C167.579 65.2994 167.413 65.2575 167.247 65.2157C166.956 65.1426 166.667 65.07 166.391 65.1056C165.878 65.1713 165.349 65.3811 164.904 65.6543C164.252 66.0549 163.558 66.3735 162.863 66.6928C161.838 67.1637 160.809 67.6361 159.907 68.3751C159.659 68.5779 159.538 68.8049 159.421 69.0213C159.328 69.1954 159.238 69.3627 159.089 69.5053C159.163 69.52 159.238 69.5335 159.312 69.547C159.477 69.5769 159.641 69.6067 159.802 69.6496C160.186 69.7518 160.569 69.8581 160.951 69.9643L160.952 69.9644L160.952 69.9644L160.952 69.9645L160.952 69.9645L160.952 69.9646C161.277 70.0549 161.603 70.1451 161.929 70.2329C162.016 70.2565 162.104 70.2817 162.192 70.3069L162.192 70.307C162.473 70.3877 162.755 70.4687 163.042 70.4995C163.119 70.5078 163.203 70.5194 163.289 70.5314C163.666 70.5834 164.095 70.6425 164.269 70.4709C164.576 70.1688 164.89 69.8723 165.204 69.5752L165.204 69.5748ZM165.207 66.8296C165.239 66.8428 165.27 66.8561 165.298 66.8643C165.51 66.7075 165.817 66.6665 165.908 66.7881C166.03 66.9495 166.09 67.3694 165.991 67.45C165.349 67.9719 164.68 68.4709 163.969 68.8916C163.697 69.0528 163.289 69.0282 162.948 69.0052C162.842 68.9981 162.638 68.6701 162.679 68.5727L162.697 68.5272L162.718 68.478L162.73 68.4476L162.73 68.4475C162.87 68.1064 163.05 67.6651 163.26 67.6381C163.91 67.5539 164.394 67.228 164.892 66.8929L164.996 66.8232L165.038 66.7948C165.072 66.7723 165.14 66.801 165.207 66.8296ZM195.355 129.283C193.339 129.044 191.346 129.044 189.359 129.044C188.747 129.044 188.135 129.044 187.523 129.037C187.146 129.032 186.717 128.955 186.414 128.758C186.234 128.641 186.164 128.202 186.215 127.942C186.249 127.777 186.597 127.558 186.8 127.562C187.192 127.569 187.852 127.538 188.648 127.5C190.541 127.411 193.197 127.285 194.809 127.562C198.509 128.196 200.426 130.558 200.315 130.548C200.144 130.533 199.97 130.525 199.795 130.518C199.352 130.498 198.907 130.479 198.509 130.334C198.202 130.223 197.904 130.089 197.604 129.955C196.901 129.639 196.191 129.32 195.355 129.283ZM174.264 62.6154C174.981 62.3302 175.009 61.9067 174.329 61.502C174.136 61.5553 173.964 61.616 173.802 61.6732L173.802 61.6732C173.614 61.7394 173.441 61.8008 173.262 61.8404C172.875 61.9266 172.486 62.0038 172.097 62.081C171.506 62.1982 170.915 62.3154 170.332 62.4638C170.124 62.5165 169.823 62.861 169.848 63.028C169.893 63.32 170.089 63.5961 170.273 63.8552L170.273 63.8554L170.305 63.9006L170.331 63.937C170.365 63.9854 170.614 63.9124 170.747 63.8561C170.914 63.785 171.079 63.7058 171.244 63.6266C171.51 63.4986 171.776 63.3706 172.054 63.2774C172.363 63.1738 172.679 63.09 172.995 63.0062L172.995 63.0062C173.425 62.8923 173.854 62.7786 174.264 62.6154ZM176.399 60.3731C176.41 59.7728 176.413 59.7722 177.279 59.6249L177.369 59.6095C177.552 59.5783 177.727 59.5022 177.902 59.4259C178.047 59.363 178.192 59.3 178.342 59.2616C178.418 59.2423 178.657 59.4737 178.639 59.5362L178.629 59.5701L178.616 59.6154L178.604 59.6603C178.524 59.9441 178.424 60.3042 178.271 60.3362C178.101 60.3716 177.932 60.4573 177.762 60.5436C177.324 60.7655 176.879 60.9909 176.399 60.3731ZM181.413 58.0885C181.441 58.0853 181.47 58.0821 181.498 58.0791C181.539 58.0747 181.58 58.0709 181.62 58.0682C182.142 57.9736 182.156 57.6479 182.17 57.3325C182.176 57.1933 182.182 57.056 182.232 56.9416C182.155 56.9555 182.077 56.9662 181.999 56.977L181.999 56.977L181.999 56.977L181.999 56.977L181.999 56.977C181.823 57.0012 181.647 57.0254 181.485 57.0868L181.438 57.1046L181.377 57.1269C181.12 57.2207 180.805 57.3357 180.756 57.5071C180.56 58.1844 180.991 58.1359 181.413 58.0885ZM187.398 55.8345L187.345 55.859C187.189 55.9301 187.054 55.9914 186.937 55.9669C186.772 55.932 186.615 55.8564 186.458 55.7807C186.392 55.7486 186.325 55.7165 186.258 55.6875C186.349 55.6611 186.44 55.6328 186.531 55.6045L186.531 55.6045L186.532 55.6044C186.741 55.5393 186.95 55.4743 187.163 55.4313C187.477 55.3681 187.551 55.4572 187.453 55.8104L187.416 55.8266L187.398 55.8345ZM218.602 30.5065L218.602 30.507L218.602 30.5073L218.602 30.5075C218.644 30.6754 218.686 30.8469 218.733 31.0215C218.783 31.1913 218.84 31.3314 218.891 31.4601L218.891 31.4602L218.891 31.4604L218.892 31.4605L218.892 31.4607L218.892 31.4608L218.892 31.4612L218.892 31.4615L218.892 31.4618C218.935 31.5689 218.975 31.6681 219.006 31.7702C219.378 33.0028 219.531 34.2604 219.503 35.552C219.496 35.8338 219.564 36.1157 219.632 36.3989C219.683 36.6143 219.735 36.8304 219.755 37.0476C219.779 37.3158 219.773 37.593 219.767 37.8691V37.8693V37.8696V37.8698V37.87V37.8702V37.8704V37.8706V37.8708C219.757 38.3634 219.747 38.8524 219.907 39.2808C220.158 39.9558 220.099 40.6061 220.041 41.2387V41.2389C220.03 41.3593 220.019 41.4792 220.011 41.5984C219.933 42.6239 219.538 43.5121 218.455 44.0856C218.144 44.2501 217.834 44.295 217.528 44.3393C217.256 44.3788 216.987 44.4178 216.724 44.5402C216.365 44.7072 215.976 44.7646 215.58 44.8229C215.078 44.897 214.566 44.9725 214.093 45.276C213.815 45.4547 213.445 45.4866 213.074 45.5187C212.716 45.5496 212.356 45.5807 212.076 45.7434C211.442 46.111 210.998 46.0757 210.483 45.6952C210.247 45.5216 210.016 45.342 209.785 45.1622L209.785 45.1621L209.784 45.1614L209.783 45.1607L209.782 45.1604L209.782 45.1603C209.569 44.9942 209.355 44.8281 209.137 44.6664C208.883 44.4771 208.622 44.2958 208.351 44.1321C208.063 43.9579 207.714 43.8638 207.385 43.7754C207.075 43.692 206.784 43.6137 206.58 43.4777C206.017 43.1031 205.564 43.2452 205.122 43.384C204.913 43.4493 204.708 43.5138 204.494 43.5234C204.322 43.531 204.16 43.7921 203.999 44.0528L203.999 44.0529C203.926 44.1712 203.853 44.2893 203.779 44.3836C203.893 44.4418 204.013 44.521 204.132 44.6001C204.396 44.7752 204.66 44.9501 204.866 44.8977C204.928 44.8819 204.989 44.8656 205.048 44.8496C205.512 44.7243 205.915 44.6155 206.394 44.9304C206.61 45.0725 206.857 45.1662 207.105 45.2601C207.326 45.3438 207.547 45.4278 207.747 45.5464C207.816 45.5872 207.885 45.6278 207.954 45.6686C208.502 45.9909 209.064 46.3208 209.493 46.7671C210.161 47.4595 210.882 47.7137 211.841 47.4264C212.511 47.2255 213.189 47.0474 213.866 46.8692C214.389 46.7318 214.912 46.5944 215.431 46.4465C215.71 46.3672 215.99 46.2946 216.27 46.2222L216.27 46.2221L216.27 46.2221L216.27 46.2221L216.27 46.222L216.27 46.222L216.27 46.2219C217.465 45.9127 218.653 45.605 219.683 44.7776C221.26 43.5093 221.311 41.7904 221.119 40.107C221.084 39.8072 221.044 39.5075 221.004 39.2073L221.004 39.2065L221.004 39.2057L221.004 39.2049C220.915 38.5412 220.826 37.8751 220.795 37.2006C220.771 36.6634 220.785 36.1235 220.799 35.5836C220.835 34.2467 220.87 32.9092 220.319 31.6093C220.158 31.2287 220.067 30.8187 219.977 30.4083C219.889 30.0129 219.802 29.6173 219.651 29.2475C219.378 28.5733 218.951 27.9494 218.524 27.3534L218.472 27.281C218.188 26.8834 217.827 26.3793 217.454 26.3338C217.13 26.2942 216.777 26.4892 216.425 26.6844L216.424 26.6845C216.271 26.7693 216.118 26.8541 215.967 26.9197C216.046 26.9716 216.125 27.0232 216.203 27.0748C216.391 27.1977 216.579 27.3207 216.763 27.4488C216.863 27.5191 216.959 27.6036 217.038 27.6973C217.146 27.8251 217.262 27.9494 217.378 28.0738C217.659 28.3768 217.941 28.6803 218.122 29.0351C218.347 29.4784 218.47 29.9741 218.602 30.5065ZM203.077 48.5818L203.069 48.5666C203.006 48.5392 202.942 48.5336 202.898 48.5298C202.866 48.5271 202.845 48.5253 202.842 48.5169C202.774 48.3282 202.716 48.1361 202.658 47.9439L202.658 47.9434L202.658 47.9429L202.658 47.9424C202.643 47.8948 202.629 47.8471 202.614 47.7995C202.588 47.8861 202.553 47.9733 202.519 48.0606C202.442 48.254 202.365 48.4475 202.379 48.6341C202.475 49.9151 202.592 51.1542 203.22 52.371C203.503 52.9187 203.611 53.5515 203.721 54.1875L203.721 54.1876L203.721 54.1878L203.721 54.1879V54.188C203.813 54.7249 203.906 55.2641 204.104 55.7562L204.181 55.9475C204.542 56.8449 204.899 57.7351 205.075 58.6833C205.141 59.0387 205.064 59.4558 204.94 59.8041C204.794 60.2107 204.501 60.5367 204.208 60.8636C203.764 61.3573 203.318 61.8531 203.376 62.6316C203.381 62.7017 203.316 62.7771 203.25 62.8525C203.219 62.8884 203.187 62.9243 203.164 62.9596L203.184 62.9521L203.213 62.9422C203.243 62.9321 203.273 62.9226 203.303 62.9131C203.413 62.8791 203.523 62.845 203.609 62.781C203.662 62.7429 203.694 62.6772 203.726 62.6116C203.756 62.549 203.787 62.4864 203.835 62.4476C203.975 62.3368 204.116 62.2296 204.255 62.123C205.088 61.4879 205.889 60.8779 206.262 59.6848C206.59 58.6417 206.477 57.8289 206.114 56.9658C205.908 56.4789 205.658 56.0035 205.408 55.5294L205.408 55.5292L205.408 55.529C204.96 54.6798 204.514 53.8343 204.332 52.9321C204.091 51.7366 203.811 50.5676 203.446 49.411C203.361 49.1423 203.232 48.8876 203.077 48.582L203.077 48.5818ZM230.21 88.0312C229.815 87.9506 229.459 87.8673 229.115 87.787C228.924 87.7423 228.737 87.6985 228.549 87.6566L228.471 87.6392L228.346 87.6109L228.191 87.5756C227.703 87.4643 227.214 87.353 226.72 87.2792C226.453 87.2392 226.18 87.2312 225.908 87.2231H225.907H225.907C225.706 87.2172 225.505 87.2112 225.305 87.1924C225.004 87.1642 224.686 87.133 224.415 87.0158C224.173 86.9119 223.951 86.7647 223.728 86.6176L223.728 86.6171L223.727 86.617C223.632 86.5537 223.536 86.4904 223.439 86.4306C223.565 86.4252 223.691 86.422 223.817 86.4187C224.112 86.411 224.406 86.4034 224.697 86.3693C224.841 86.3525 224.983 86.3104 225.124 86.2685C225.312 86.2129 225.499 86.1576 225.685 86.1621L225.884 86.167C227.15 86.1978 228.419 86.2288 229.678 86.3552C230.494 86.4371 231.304 86.6113 232.111 86.785C232.302 86.8262 232.493 86.8673 232.684 86.9072C233.393 87.0548 234.095 87.2319 234.797 87.4089L235.034 87.4686C235.66 87.6258 236.281 87.7939 236.903 87.9623L236.905 87.9626L237.164 88.0329C237.254 88.057 237.34 88.0914 237.427 88.1258L237.427 88.1259C237.467 88.1419 237.507 88.1579 237.548 88.1729C237.516 88.2171 237.484 88.2734 237.452 88.3298C237.382 88.4532 237.311 88.5772 237.241 88.5767C236.907 88.5745 236.572 88.6351 236.237 88.6958C235.537 88.8224 234.835 88.9495 234.126 88.5082C233.999 88.4295 233.853 88.4455 233.686 88.4637C233.474 88.487 233.228 88.5139 232.946 88.3543C232.445 88.0718 231.788 88.0662 231.099 88.0603H231.099C230.805 88.0578 230.506 88.0553 230.21 88.0312ZM81.7386 119.916C92.3662 118.581 101.228 117.467 101.206 117.179C101.204 117.161 101.219 117.114 101.24 117.044C101.377 116.595 101.793 115.234 99.9599 115.211C92.0932 115.111 69.2538 117.79 47.7907 122.391C17.3381 128.635 -0.206441 137.337 0.00183358 137.93C0.0965046 138.199 7.6688 135.978 16.9622 133.252C28.1141 129.981 41.7443 125.984 47.9061 124.689L48.5925 124.547C54.4689 123.343 69.3112 121.478 81.7386 119.916ZM55.8094 138.755C57.7413 138.755 60.5296 138.964 64.0976 140.174L64.9931 140.481C65.6752 140.716 66.9426 141.064 68.7796 141.518C69.2062 141.623 69.4666 142.054 69.3612 142.481C69.2558 142.908 63.8147 141.759 63.8147 141.759C60.1363 140.505 58.6683 140.162 56.9492 140.238C55.2756 140.311 51.7396 141.61 49.0542 142.597L49.0541 142.597C47.1577 143.293 45.6855 143.834 45.5928 143.678C45.3689 143.299 45.6339 142.82 45.8719 142.588C48.2822 140.238 49.6177 139.575 55.8094 138.755ZM187.091 125.077C187.221 124.963 187.32 124.81 187.369 124.631C187.501 124.146 183.748 123.418 181.222 124.362C180.709 124.554 180.255 124.852 179.757 125.286C179.674 125.359 179.489 125.613 179.26 125.928C178.885 126.444 178.392 127.123 178.033 127.432C177.455 127.929 176.474 128.459 175.802 128.797C175.529 128.934 174.494 129.164 173.328 129.422L173.327 129.422L173.327 129.422C171.458 129.836 169.251 130.324 169.301 130.629C169.382 131.125 170.295 131.05 170.791 130.969C171.653 130.827 172.396 130.719 173.043 130.625L173.044 130.625L173.044 130.625C174.7 130.385 175.722 130.236 176.47 129.859C177.283 129.45 177.986 128.967 178.67 128.378C178.779 128.285 178.932 128.144 179.105 127.982L179.654 127.461C179.568 128.159 179.802 128.831 180.394 129.308L180.618 129.487C187.663 135.057 195.283 135.901 203.325 132.009L203.45 131.948L203.509 132.267C203.718 133.329 204.017 134.213 204.412 134.922C204.997 135.972 205.995 137.003 207.4 138.034L208.476 136.568L208.297 136.435C207.183 135.595 206.42 134.79 206.001 134.037C205.557 133.24 205.244 132.043 205.082 130.457L204.944 129.098L203.743 129.75L203.505 129.879C195.636 134.064 188.372 133.405 181.535 127.892C181.495 127.859 181.454 127.311 181.535 127.074C181.678 126.657 182.004 125.824 182.842 125.536C183.389 125.348 187.091 125.077 187.091 125.077ZM243.985 77.2247L243.607 76.5404C243.322 76.0307 242.953 75.3769 242.771 75.0764L242.712 74.9813C241.969 73.8314 241.834 72.3741 242.024 70.0145L242.103 69.1423L242.176 68.383C242.39 66.0455 242.336 65.1544 241.908 64.6941L241.843 64.6276C241.417 64.2164 240.919 64.2218 239.122 64.6209L238.683 64.72C236.607 65.196 235.233 65.3119 233.646 64.9343L232.274 64.5932C231.923 64.5072 231.575 64.4224 231.326 64.3617L231.325 64.3614C231.136 64.3154 231.004 64.2833 230.971 64.2751L230.6 64.18C227.326 63.3226 225.949 62.4015 225.434 60.1705C225.311 59.6379 225.361 59.0873 225.554 58.4006L225.598 58.2513C225.723 57.8372 226.333 56.1936 226.333 56.1944C226.47 55.8049 226.586 55.4494 226.688 55.0921L226.82 54.6278C226.931 54.2311 227.045 53.8096 227.165 53.3589L228.407 48.4953C228.63 47.6378 228.821 46.9263 228.898 46.6863L229.251 45.6495L229.399 45.2292C229.496 44.9607 229.589 44.7133 229.686 44.4724C230.462 42.5268 231.287 41.3256 232.448 40.9939C233.519 40.6882 234.307 40.7299 235.17 41.0739C235.35 41.1457 235.816 41.3681 236.17 41.537L236.171 41.5373C236.361 41.6281 236.519 41.7033 236.582 41.7311C237.446 42.1134 238.332 42.3564 239.532 42.4769L239.761 42.4981C240.339 42.5472 240.816 42.4838 242.228 42.1751L243.241 41.9507C244.318 41.7169 245.024 41.6012 245.796 41.5531C246.497 41.5094 247.149 41.54 247.77 41.6574C248.793 41.8508 250.36 42.4873 252.513 43.5713C252.85 43.7407 252.985 44.1507 252.816 44.4871C252.646 44.8236 252.236 44.959 251.9 44.7896L251.498 44.5893C249.66 43.6816 248.322 43.1499 247.517 42.9977C247.015 42.9028 246.475 42.8775 245.881 42.9145C245.15 42.96 244.461 43.0776 243.335 43.3264L242.487 43.5146C240.983 43.8435 240.441 43.9171 239.718 43.863L239.645 43.8572C238.173 43.7322 237.084 43.4445 236.03 42.9786L234.853 42.4237C234.771 42.3864 234.705 42.3572 234.664 42.3409C234.081 42.1083 233.602 42.0829 232.823 42.3055C232.22 42.4774 231.575 43.4176 230.952 44.9781C230.84 45.2609 230.73 45.5562 230.612 45.8907L230.199 47.0966C230.015 47.6315 228.675 52.9629 228.63 53.1467L228.411 53.9796C228.268 54.5138 228.132 55.0074 228 55.4685C227.911 55.7771 227.814 56.0825 227.704 56.4041L227.619 56.6486C227.509 56.9611 227.41 57.2386 227.323 57.4852C226.709 59.2201 226.634 59.431 226.682 59.609C226.688 59.6336 226.697 59.6576 226.707 59.685C226.722 59.7251 226.74 59.7724 226.757 59.8394L226.763 59.8635C227.137 61.4853 228.175 62.1542 231.13 62.9083L233.81 63.5696C235.159 63.9179 236.331 63.8454 238.164 63.4389L239.326 63.1756C240.099 63.0044 240.296 62.9823 240.741 62.9645C241.634 62.9287 242.349 63.165 242.908 63.7658C243.724 64.6441 243.799 65.6449 243.537 68.4849L243.401 69.9155L243.369 70.3161C243.23 72.2026 243.34 73.3719 243.808 74.1611L243.954 74.398C244.094 74.6304 244.305 75 244.513 75.3687L245.178 76.5619L245.266 76.7153C246.153 78.2425 246.884 79.0983 247.662 79.3942L247.745 79.4238C248.74 79.7498 249.97 79.1028 251.556 77.0421L251.761 76.7745C252.002 76.4772 252.247 76.2904 253.375 75.5916L255.117 74.5209L255.327 74.3888C256.415 73.6987 257.056 73.1855 257.198 72.8952C258.864 69.4939 259.926 64.1847 259.606 58.1491C259.566 57.3925 259.163 56.2334 258.391 54.7061L258.298 54.5256L258.256 54.5015C256.432 53.4648 255.105 52.4798 254.27 51.5301L254.172 51.4163C253.316 50.3982 252.456 48.7366 251.569 46.4169C251.435 46.0651 251.611 45.6708 251.963 45.5364C252.315 45.4019 252.709 45.5781 252.844 45.9299C253.681 48.1198 254.479 49.6609 255.216 50.5388C255.896 51.3475 257.07 52.2411 258.734 53.2031L259.143 53.4353L259.32 53.5344L259.414 53.7144C260.391 55.5796 260.912 57.0195 260.968 58.0768C261.301 64.3428 260.192 69.8835 258.423 73.4953C258.123 74.1078 257.386 74.6984 256.058 75.5408L255.727 75.7482L254.317 76.6141C253.145 77.3378 252.911 77.5124 252.751 77.724C250.802 80.308 249.015 81.2753 247.32 80.7199C246.05 80.3036 245.11 79.1984 243.985 77.2247ZM264.609 36.3164C264.267 36.1586 263.862 36.3079 263.704 36.6499C263.363 37.3886 262.83 37.8524 262.068 38.0775C261.521 38.2389 260.909 38.332 260.16 38.3809C259.899 38.398 259.674 38.4081 259.339 38.4177L258.187 38.4472C256.342 38.5073 255.538 38.6633 254.732 39.2439C253.663 40.0138 253.214 42.4748 253.589 43.8923L253.609 43.9698C253.623 44.0232 253.636 44.0803 253.651 44.1428L253.696 44.3482C253.699 44.3618 253.71 44.4118 253.725 44.481C253.757 44.6322 253.808 44.875 253.842 45.0309L253.906 45.3175C253.963 45.5649 254.02 45.7857 254.083 46.0009C254.336 46.8608 254.671 47.5573 255.163 48.1311C255.231 48.2102 255.421 48.5541 255.63 48.9475L256.347 50.3159C256.926 51.3362 257.528 52.0779 258.289 52.5741C258.61 52.7832 258.903 52.8698 259.454 52.9689L259.699 53.0136C260.146 53.0971 260.357 53.1498 260.623 53.2537L260.83 53.3377C261.037 53.4172 261.282 53.4756 261.636 53.5372L261.889 53.5791C261.876 53.577 262.486 53.6695 262.829 53.7245L263.196 53.7871C263.546 53.8509 263.857 53.9189 264.153 53.9989C264.441 54.077 264.709 54.1649 264.957 54.2651L265.114 54.3266C265.366 54.4213 265.576 54.4803 265.946 54.5676L266.289 54.6469C266.447 54.6838 266.558 54.7129 266.658 54.744L266.775 54.7831C267.215 54.9408 267.587 55.2166 268.054 55.7945C268.672 56.5597 268.672 56.9184 268.196 57.2471C267.886 57.4614 267.809 57.8862 268.023 58.196C268.237 58.5058 268.662 58.5832 268.972 58.369C270.184 57.5309 270.184 56.2616 269.115 54.9375C268.496 54.1716 267.92 53.7448 267.236 53.4992C267.099 53.4501 266.973 53.4119 266.816 53.3716L266.611 53.3215L266.186 53.2225C265.92 53.1587 265.765 53.1136 265.589 53.0476L265.284 52.9291C265.038 52.8372 264.78 52.7555 264.509 52.6822C264.107 52.5735 263.69 52.4862 263.209 52.4045L261.901 52.1988C261.591 52.1452 261.401 52.0997 261.292 52.0537C260.869 51.8751 260.61 51.7999 260.079 51.6975L259.605 51.6099C259.29 51.5501 259.145 51.5041 259.034 51.4314C258.49 51.0771 255.578 46.2488 255.392 45.6161C255.323 45.3805 255.261 45.1312 255.194 44.8313L255.004 43.9413C254.987 43.8655 254.971 43.7957 254.955 43.7301L254.908 43.5433C254.662 42.6135 255.006 40.7276 255.529 40.3506C256.057 39.9703 256.742 39.8527 258.426 39.8047L259.387 39.7809C259.734 39.771 259.97 39.7602 260.249 39.742L260.498 39.7239C261.232 39.6647 261.863 39.5601 262.454 39.3857C263.595 39.0488 264.438 38.3154 264.942 37.2214C265.1 36.8794 264.951 36.4743 264.609 36.3164Z" fill="#00160A"/>
<path fill-rule="evenodd" clip-rule="evenodd" d="M105.278 107.223C105.529 106.731 105.743 106.302 106.041 105.944C106.343 105.581 106.724 105.283 107.084 104.972C107.12 104.941 107.318 105.019 107.317 105.039C107.311 105.147 107.299 105.289 107.229 105.355C106.694 105.864 106.65 106.539 106.486 107.203C106.307 107.932 106.489 108.502 106.821 109.109C107.042 109.514 107.204 109.959 107.342 110.401C107.633 111.333 107.921 112.268 108.154 113.216C108.312 113.855 108.457 114.517 108.463 115.17C108.493 118.462 108.476 121.755 108.477 125.047C108.478 126.729 108.454 128.412 108.503 130.092C108.52 130.641 108.817 131.182 108.826 131.729C108.834 132.171 108.612 132.621 108.466 133.058C108.445 133.121 108.22 133.193 108.187 133.161C107.956 132.934 107.569 132.683 107.565 132.434C107.535 130.5 107.609 128.564 107.59 126.63C107.581 125.757 107.38 124.887 107.358 124.014C107.307 121.978 107.536 119.907 107.223 117.918C106.978 116.364 107.037 114.884 107.061 113.356C107.067 113.013 106.11 112.585 105.538 112.32C104.796 111.976 104.325 112.436 103.973 113.053C103.941 113.109 103.808 113.136 103.808 113.177C103.791 116.772 103.768 120.366 103.782 123.961C103.786 125.001 103.906 126.041 103.957 127.081C103.977 127.471 103.935 127.674 104.534 127.583C105.546 127.428 106.874 128.924 106.581 129.778C106.356 130.435 105.947 131.029 105.721 131.686C105.209 133.169 104.092 134.604 104.585 136.215C104.959 137.438 105.769 138.582 106.597 139.588C106.926 139.989 107.828 139.904 108.458 140.081C108.671 140.141 108.919 140.29 109.016 140.471C109.078 140.589 108.942 140.898 108.805 141.003C108.723 141.067 108.467 140.902 108.288 140.843C107.994 140.747 107.705 140.606 107.404 140.57C105.986 140.407 105.908 140.32 105.263 138.742C105.033 138.176 104.6 137.694 104.354 137.132C104.123 136.602 103.992 136.023 103.863 135.454C103.739 134.907 103.575 134.339 103.611 133.792C103.653 133.148 103.841 132.498 104.061 131.885C104.258 131.338 104.596 130.843 104.841 130.311C104.87 130.249 104.724 130.072 104.622 129.999C104.567 129.96 104.416 130.002 104.34 130.054C103.606 130.554 103.257 131.362 102.793 132.07C102.64 132.302 102.687 132.667 102.644 132.971C102.581 133.426 102.459 133.883 102.469 134.336C102.488 135.175 102.394 136.088 102.691 136.834C103.306 138.384 103.902 140.021 105.158 141.174C105.621 141.6 106.388 141.803 107.159 141.906C108.174 142.042 109.136 141.748 110.131 141.861C110.586 141.914 111.08 141.517 111.556 141.519C112.136 141.521 112.59 141.203 113.104 141.12C113.691 141.024 114.175 140.772 114.686 140.529C115.521 140.134 116.426 139.852 117.188 139.349C117.865 138.901 118.382 138.214 118.981 137.644C119.904 136.764 120.684 135.792 121.304 134.66C121.577 134.161 122.01 133.782 121.832 133.151C121.804 133.052 121.734 132.895 121.675 132.891C121.543 132.882 121.363 132.911 121.277 132.997C119.32 134.973 117.411 136.998 115.398 138.915C114.855 139.43 114.006 139.632 113.288 139.957C112.888 140.138 112.459 140.254 112.057 140.431C111.182 140.815 110.487 140.281 109.741 140.002C109.776 139.925 109.796 139.795 109.848 139.78C111.063 139.457 112.296 139.187 113.495 138.813C114.05 138.64 114.568 138.305 115.054 137.972C115.526 137.65 115.915 137.212 116.374 136.869C118.089 135.586 119.493 134.077 120.164 131.98C120.346 131.412 121.567 131.052 122.269 131.262C122.692 131.388 123.176 131.378 123.548 131.582C123.786 131.713 124.042 132.157 123.995 132.404C123.746 133.727 122.916 134.707 121.991 135.649C121.377 136.274 120.997 137.138 120.358 137.729C119.275 138.73 118.145 139.72 116.896 140.491C115.635 141.272 114.234 141.854 112.841 142.382C111.843 142.76 110.769 143.041 109.709 143.129C107.9 143.282 106.12 143.137 104.515 142.062C103.51 141.389 102.832 140.456 102.309 139.447C102.015 138.883 102.297 138.032 102.04 137.43C101.531 136.234 101.437 135.008 101.544 133.776C101.617 132.936 102.138 132.12 102.141 131.292C102.145 130.362 102.828 129.905 103.127 129.203C103.187 129.062 103.026 128.841 103.026 128.657C103.017 126.556 103.021 124.455 103.02 122.354C103.019 121.296 103.085 120.231 102.982 119.183C102.923 118.574 102.545 118.003 102.395 117.394C102.319 117.084 102.449 116.728 102.452 116.392C102.463 115.441 102.37 114.48 102.478 113.541C102.614 112.359 102.943 111.201 103.121 110.022C103.221 109.364 103.185 108.685 103.208 108.015C103.254 106.697 103.523 105.397 104.441 104.449C105.158 103.71 106.014 103.011 107.203 103.008C107.495 103.007 107.894 102.479 108.056 102.562C108.425 102.749 108.783 103.125 108.928 103.507C108.992 103.677 108.579 104.118 108.297 104.31C107.795 104.65 107.209 104.638 106.596 104.612C105.589 104.568 104.671 105.886 104.282 107.043C103.964 107.991 104.451 108.837 104.234 109.74C104.17 110.009 104.7 110.428 104.978 110.761C105.007 110.796 105.265 110.716 105.265 110.688C105.271 110.117 105.31 109.539 105.228 108.979C105.151 108.449 104.794 107.916 105.456 107.515C105.397 107.449 105.338 107.383 105.278 107.223Z" fill="#FFB61D"/>
<path fill-rule="evenodd" clip-rule="evenodd" d="M142.532 150.309C142.355 151.271 142.167 152.136 142.012 153.005C141.986 153.15 142.144 153.318 142.149 153.478C142.197 154.845 141.947 156.198 141.903 157.566C141.882 158.223 141.94 158.941 141.76 159.587C141.536 160.386 141.859 161.436 140.836 161.907C140.441 162.087 139.861 162.43 139.63 162.283C139.184 161.999 138.442 161.843 138.559 160.966C138.662 160.195 138.446 159.37 138.611 158.623C138.891 157.346 138.593 156.057 138.814 154.815C138.947 154.063 138.802 153.312 138.977 152.601C139.259 151.453 139.217 150.285 139.368 149.135C139.513 148.042 139.6 146.945 139.743 145.857C139.89 144.732 139.976 143.603 140.129 142.488C140.265 141.489 140.242 140.431 140.53 139.507C140.785 138.688 140.187 137.744 140.985 137.037C141.095 136.94 140.809 136.479 140.852 136.21C141.216 133.979 140.931 131.735 141.045 129.5C141.053 129.343 141.302 129.116 141.481 129.063C142.044 128.897 142.623 128.771 143.204 128.692C143.339 128.673 143.643 128.906 143.641 129.019C143.606 130.937 143.495 132.855 143.486 134.772C143.48 136.156 143.632 137.541 143.646 138.926C143.653 139.6 143.489 140.275 143.433 140.952C143.374 141.656 143.593 142.326 143.179 143.077C142.867 143.641 143.141 144.514 143.089 145.244C142.991 146.61 142.908 147.984 142.67 149.327C142.62 149.611 142.513 149.905 142.532 150.309ZM139.898 160.187C140.207 160.654 140.19 160.64 140.475 160.285C140.811 159.865 140.556 159.376 140.666 158.951C140.961 157.807 140.887 156.635 141.027 155.481C141.138 154.556 141.298 153.632 141.348 152.704C141.412 151.506 141.288 150.29 141.434 149.105C141.559 148.087 141.519 147.065 141.88 146.031C142.246 144.981 142.089 143.748 142.153 142.595C142.169 142.313 142.049 141.965 142.175 141.76C142.603 141.061 142.22 140.333 142.325 139.63C142.339 139.536 142.1 139.406 141.978 139.291C141.908 139.425 141.795 139.551 141.774 139.692C141.64 140.612 141.487 141.53 141.412 142.456C141.312 143.684 141.277 144.92 141.215 146.153C141.211 146.247 141.254 146.371 141.209 146.431C140.699 147.114 141.094 147.929 140.863 148.695C140.571 149.662 140.702 150.757 140.651 151.797C140.649 151.829 140.656 151.861 140.65 151.891C140.496 152.62 140.302 153.344 140.197 154.08C140.113 154.67 140.459 155.21 139.981 155.897C139.618 156.42 139.936 157.395 139.885 158.163C139.855 158.627 139.67 159.081 139.617 159.547C139.601 159.685 139.798 159.848 139.898 160.187ZM142.344 134.41C142.364 133.889 142.385 133.367 142.403 132.845C142.405 132.771 142.387 132.633 142.377 132.633C142.259 132.631 142.041 132.632 142.035 132.667C141.94 133.188 141.852 133.714 141.819 134.242C141.815 134.32 142.099 134.417 142.344 134.41Z" fill="#00160A"/>
<path fill-rule="evenodd" clip-rule="evenodd" d="M105.607 136.997C105.566 136.637 105.571 136.323 105.576 136.01C105.833 136.083 106.12 136.107 106.341 136.24C107.508 136.938 108.652 137.673 109.818 138.372C110.021 138.494 110.29 138.522 110.534 138.557C110.721 138.584 110.916 138.553 111.108 138.547C110.925 138.705 110.705 139.026 110.563 138.994C109.674 138.797 108.616 139.521 107.877 138.521C107.862 138.501 107.78 138.507 107.749 138.529C107.417 138.761 107.044 139.218 106.673 138.776C106.248 138.27 105.987 137.628 105.607 136.997Z" fill="#00160A"/>
</svg>
