<svg width="306" height="202" fill="none" xmlns="http://www.w3.org/2000/svg"><path d="M276.299 85.717c10.473-20.204 21.32-50.135-9.054-74.013-30.375-23.88-60.371-5.907-74.483 7.088-8.141 7.497-15.553 16.195-22.044 23.812-3.784 4.44-7.255 8.514-10.374 11.767-21.025 21.925-42.158 27.759-71.63 35.895-11.489 3.171-24.245 6.692-38.755 11.653-39.487 13.5-45.169 26.205-40.596 38.012 1.465-.614 3-1.221 4.602-1.819 26.667-9.945 72.114-17.448 124.851-17.448 67.339 0 137.373 24.333 163.577 43.825-3.995-8.032-14.36-16.643-23.848-24.526-7.725-6.417-14.868-12.351-17.518-17.097-5.307-9.498-1.77-13.794 4.22-21.07 3.296-4.003 7.335-8.909 11.052-16.079ZM276.689 195.622l-.358.009-1.57.033c-52.377 1.012-158.331-5.676-225.546-14.355l-.004-.001h-.008l.012.001c26.978 10.885 65.266 18.23 104.561 18.342 32.509.093 54.84.617 70.816.991 33.545.786 39.076.916 51.999-4.975l.098-.045Z" fill="#5CC8FF"/><path fill-rule="evenodd" clip-rule="evenodd" d="m141.938 129.785 1.285.083-1.902 30.505-.916 1.153-1.409-.967 2.942-30.774Z" fill="#fff"/><circle cx="238.824" cy="55.28" r="35.58" fill="#fff"/><path fill-rule="evenodd" clip-rule="evenodd" d="M145.684 89.951s-.079-2.04 2.354-2.161c2.431-.12 22.288 2.161 22.288 2.161s4.273.616 3.568 5.417c-.708 4.802-3.287 15.867-3.287 15.867s.303 1.893-2.8 1.391c-3.103-.503-12.315-2.898-22.123-1.378 0 0-1.62.19-1.573 7.078l-.888-.163s1.297-26.28 2.461-28.212ZM160.258 73.705s.192-.205 0 0c-.778.835-1.441 1.578-1.868 2.115-2.038 2.562-4.768 4.991-5.87 6.848 0 0-4.881 2.224-6.836-.088 0 0 4.484-5.88 8.04-8.507 0 0 3.454-1.7 6.534-.368Zm3.79-3.921-3.609-1.048s3.66-2.28 5.688-3.144l1.68.455s-1.737 1.697-3.759 3.737c0 0-.051.054 0 0Z" fill="#fff"/><path fill-rule="evenodd" clip-rule="evenodd" d="M104.131 167.594s-6.348-1.408-7.859-8.666c0 0 1.157-2.095 5.693-6.943 0 0 5.735-3.682 4.791-9.519 0 0-6.256-1.622-4.164-11.127l1.334-2.437s-1.477-10.553-.226-16.801c0 0-1.157-7.97 3.663-8.542 0 0 2.029-.298 2.253-1.092 0 0-2.969-8.224 5.723-12.21 8.691-3.986 15.453 2.88 15.18 10.197 0 0-.752 5.009-3.819 7.25 0 0 6.587 4.12 10.254 9.537 0 0 4.1 4.252 5.902 3.535 0 0 5.496-.12 4.747 1.801-.747 1.919-1.274 4.67-9.321 5.087 0 0-7.78-.997-9.808-1.053l-1.426-.499s1.755 3.724-.155 7.274c-1.909 3.549-3.298 4.777-3.093 5.466l4.23 19.778s-.305 3.34 3.434 2.755c3.738-.587 2.747 1.695 2.002 2.243-.745.549-6.906 5.817-12.076-.902-5.17-6.72-5.93-8.101-5.93-8.101l-10.339 7.238s-.804.781-.219 2.598c0 0 1.118 2.691-.771 3.133Z" fill="#fff"/><path fill-rule="evenodd" clip-rule="evenodd" d="M198.711 58.162c-1.843-41.398 40.769-39.384 40.86-39.37 50.877 7.526 38.767 72.068-.661 74.11-.027.002-38.609.983-40.199-34.74Zm1.461-.05c-1.11-24.934 15.323-33.124 27.258-35.788.04.043.093.088.154.137.82.653 1.633 1.254 2.735 1.466.647.124 1.273.35 1.9.577.483.175.967.35 1.461.478.654.17 1.334.246 2.012.322.196.022.391.044.586.068.18.022.363.023.546.024.23.002.46.003.683.046.294.058.583.141.873.224.358.102.716.204 1.082.259.259.038.528.025.797.012.321-.016.64-.032.939.041.787.193 1.55.49 2.31.785h.002l.32.125.172.066c.805.31 1.616.622 2.382 1.016.735.377 1.422.303 1.813-.357.597-1.004 1.223-1.94 2.552-2.063.257-.024.507-.133.757-.243.114-.05.227-.1.342-.14l-.137-.055h-.001c-.328-.13-.657-.258-.984-.391-.006-.002-.005-.019-.003-.037.001-.02.003-.043-.006-.05-.792-.578-2.106-.104-2.55.748-.272.524-.799 1.045-1.337 1.273-.55.233-1.014-.056-1.504-.362a5.027 5.027 0 0 0-.628-.351 76.687 76.687 0 0 1-2.629-.843c-.264-.09-.528-.185-.791-.28-.561-.204-1.122-.408-1.698-.55-.289-.072-.594-.067-.902-.062-.239.004-.48.008-.714-.024-.461-.064-.92-.15-1.379-.235-.509-.094-1.017-.189-1.53-.254-.34-.044-.687-.053-1.034-.063-.564-.015-1.125-.03-1.643-.191-.19-.06-.374-.127-.557-.195-.48-.176-.954-.351-1.515-.36-.497-.006-1.076-.348-1.46-.709a1.418 1.418 0 0 0-.143-.119c6.043-1.19 10.644-.985 10.673-.98 46 7.12 36.531 68.064-.466 69.98-.025.002-37.245.576-38.738-32.944ZM96.395 161.283l.038.113c.24.7.647 1.342 1.067 2.003.164.258.33.519.487.787.103.125.195.247.284.365.16.213.31.412.487.583 1.121 1.094 2.346 2.051 3.803 2.661.097.041.223.017.348-.007.126-.024.251-.049.348-.006 1.307.577 2.605-.164 2.552-1.605-.018-.495-.166-.985-.315-1.477-.104-.343-.209-.687-.269-1.035-.063-.361.001-.824.187-1.133.489-.809 1.264-1.302 2.081-1.781.385-.227.713-.548 1.042-.87v-.001c.257-.251.514-.503.801-.712.453-.33.936-.62 1.419-.91l.001-.001c.353-.212.706-.424 1.048-.652.235-.158.456-.334.677-.509.521-.413 1.04-.825 1.746-1.002.893-.222 1.825.06 2.357.892.227.356.498.684.769 1.013.205.249.411.499.598.761.454.634.881 1.291 1.28 1.96.161.269.3.553.44.837.242.493.483.984.829 1.387.472.549 1.015 1.037 1.559 1.525.369.332.739.664 1.087 1.015.98.99 2.243 1.25 3.522 1.359.656.054 1.32-.075 1.969-.2.407-.079.808-.157 1.196-.188.514-.04.924-.242 1.326-.442.374-.185.742-.367 1.182-.412.412-.042.792-.39 1.173-.739v-.001c.17-.156.34-.311.512-.44 1.091-.811 1.127-2.316.036-3.082-.111-.077-.276-.083-.44-.089-.169-.006-.338-.012-.443-.099-.839-.686-1.738-.504-2.657-.304-.812.175-1.801-.725-1.789-1.551.005-.336-.085-.676-.174-1.011-.023-.087-.046-.173-.067-.259a10.227 10.227 0 0 0-.181-.63v-.002c-.117-.376-.233-.752-.271-1.135-.033-.336-.115-.66-.197-.984-.107-.426-.214-.852-.212-1.305.001-.273-.104-.542-.211-.814a3.423 3.423 0 0 1-.194-.607 8.429 8.429 0 0 1-.096-.899v-.001h-.001v-.001a7.836 7.836 0 0 0-.103-.932c-.079-.414-.183-.823-.286-1.233-.118-.464-.236-.927-.317-1.397-.06-.348-.06-.706-.06-1.064-.001-.233-.001-.466-.017-.697a5.998 5.998 0 0 1-.011-.431c-.001-.419-.003-.85-.213-1.087-.258-.291-.247-.594-.236-.902.009-.258.019-.519-.127-.78-.278-.501-.295-1.152-.311-1.798-.006-.241-.012-.482-.031-.714a2.796 2.796 0 0 1 .024-.519c.033-.303.064-.596-.07-.768-.493-.628-.209-1.251.001-1.713l.035-.078c.343-.763.752-1.497 1.16-2.23.437-.787.874-1.573 1.231-2.394.333-.765.439-1.637.543-2.494a26.5 26.5 0 0 1 .064-.512c.04-.306.029-.62.018-.933-.013-.349-.026-.698.034-1.034.042-.238.369-.443.647-.617l.12-.076c.028-.018.092.038.168.105.089.077.195.17.283.181.252.033.528.03.801.027.533-.005 1.059-.01 1.393.244.598.454 1.227.43 1.826.407.248-.009.491-.019.725.006 1.313.14 2.648.057 3.984-.025h.006v-.001h.001a63.407 63.407 0 0 1 1.566-.083 8.282 8.282 0 0 0 1.034-.081c1.693-.273 3.358-.668 4.697-1.813.414-.353.761-.785 1.108-1.216v-.001c.146-.18.29-.361.44-.535.4-.465.549-.994.72-1.6.315-1.121-.385-2.527-1.598-2.436-.498.037-.835-.119-1.236-.312-.239-.115-.561-.116-.837-.086-.191.022-.384.059-.576.095-.778.149-1.548.295-2.173-.578-.13-.183-.388-.282-.635-.377-.073-.028-.145-.055-.212-.085-.14-.06-.291-.104-.443-.149-.27-.078-.537-.157-.728-.325-.786-.69-1.517-1.448-2.224-2.22a33.777 33.777 0 0 1-1.046-1.22c-.355-.427-.709-.853-1.084-1.261a40.152 40.152 0 0 0-2.317-2.315 25.238 25.238 0 0 0-2.082-1.706c-.523-.388-1.087-.723-1.649-1.057l-.161-.096c-.744-.444-.805-1.225-.822-1.926-.003-.164.288-.335.581-.506.134-.078.269-.157.375-.236a.23.23 0 0 0 .066-.066l.373-.675a77.1 77.1 0 0 0 1.083-1.999c.091-.175.127-.379.162-.582.013-.075.026-.149.042-.222.055-.258.12-.516.185-.773.169-.675.338-1.351.345-2.028.004-.333-.064-.784-.13-1.175-.124-.742-.255-1.488-.458-2.21-.073-.26-.199-.503-.325-.748v-.001h-.001a5.372 5.372 0 0 1-.265-.565 7.033 7.033 0 0 1-.218-.749c-.121-.475-.24-.948-.521-1.292-.255-.313-.468-.662-.682-1.013-.497-.815-.997-1.635-2.03-2.002-.416-.149-.811-.377-1.204-.604-.525-.304-1.045-.605-1.608-.71-1.451-.27-2.971-.245-4.459-.22-1.173.02-2.391.07-3.496.408a9.077 9.077 0 0 0-2.366 1.15l-.423.278c-.728.475-1.473.961-1.949 1.6-.184.247-.396.483-.609.721-.646.719-1.309 1.457-1.265 2.562-.725.413-.746 1.124-.765 1.782a5.264 5.264 0 0 1-.039.593l-.003.021c-.113.77-.235 1.594-.058 2.502.216 1.114.46 2.113 1.041 3.068.344.566.628 1.167-.325 1.481-.133.044-.298.16-.342.281-.227.617-.534 1.177-1.187 1.397-.6.202-.555.622-.511 1.034.011.106.022.211.023.312 0 .054.502.227.624.139.372-.267.732-.552 1.092-.837.493-.39.986-.78 1.51-1.123.316-.207.874-.236 1.25-.119.408.128.791.332 1.174.536.234.124.468.248.708.356.617.277 1.241.54 1.865.803h.002c.325.137.651.275.976.414.424.182.502.42.106.728l-.615.476-.001.001c-.532.41-1.064.821-1.587 1.242-1.45 1.169-2.18 2.792-2.38 4.55a8.847 8.847 0 0 0 .385 3.707c.307.914.934 1.734 1.545 2.534.11.144.219.287.325.429.794 1.061 1.923 1.689 3.047 2.314l.001.001c.321.178.641.356.953.545.723.435 1.561.703 2.375.955.4.124.814.201 1.229.277h.002v.001h.001c.331.06.662.121.986.207.297.078.586.187.875.297.269.101.538.203.814.28.496.138 1 .251 1.503.365h.001c.251.056.502.113.752.172.006.001.007.016.008.032.001.019.003.042.013.049.335.266.807 2.266.677 2.653-.236.702-.435 1.417-.635 2.131l-.041.145c-.043.154-.07.317-.098.479-.049.291-.098.581-.238.819l-.134.226c-.616 1.043-1.238 2.096-2.004 3.023-.761.923-1.65 1.793-2.784 2.277-.221.094-.411.24-.603.387-.395.303-.796.61-1.489.489-.373-.065-.829.34-1.284.744-.2.179-.4.357-.593.494a.504.504 0 0 0-.117.133 1.778 1.778 0 0 1-.048.064l.052.018.029.011c.056.021.113.043.169.043.196.002.392-.003.588-.008.402-.012.804-.023 1.196.034.381.055 1.062.373 1.045.493-.091.629-.128 1.261-.165 1.895-.059 1.015-.118 2.035-.401 3.052-.178.64-.467 1.215-.754 1.786-.218.434-.435.865-.603 1.322-.439 1.202-1.513 2.258-2.512 3.151-.856.766-1.803 1.428-2.751 2.09-.473.33-.946.66-1.407 1.004-.549.409-1.086.832-1.623 1.256h-.001c-.313.247-.625.493-.939.736l-.093.072c-.482.371-.965.743-1.459 1.1-.201.145-.398.297-.595.449-.517.399-1.035.798-1.612 1.066-.928.429-1.5 1.133-1.492 2.028.005.655.183 1.308.361 1.961v.001c.089.326.178.653.246.981.041.196.043.4.046.604.001.094.003.187.008.28-.189-.006-.382.003-.576.012-.438.02-.876.04-1.248-.108-.447-.176-.85-.454-1.256-.734a9.25 9.25 0 0 0-.869-.555c-1.082-.583-1.677-1.572-2.247-2.575-.408-.718-.747-1.478-1.085-2.232l-.046-.103-.037-.083c-.134-.294-.305-.671-.201-.873.34-.662.788-1.281 1.262-1.861.942-1.151 1.913-2.277 2.884-3.404l.335-.389c.139-.161.275-.327.411-.493.393-.481.788-.964 1.265-1.341 1.305-1.033 2.351-2.251 3.267-3.634.714-1.078.994-2.162.727-3.411-.016-.079.036-.173.088-.266.025-.044.05-.088.067-.131l-.659-.167v-.001l-.012-.002-.002-.001-.688-.175c-.022.093-.053.186-.083.28-.066.203-.131.406-.111.601.159 1.52-.326 2.656-1.477 3.761-1.477 1.416-2.832 2.96-4.186 4.504-.45.513-.901 1.027-1.356 1.535-.242.271-.496.525-.75.779-.871.871-1.732 1.731-2.03 3.171-.227 1.098.05 1.903.337 2.739Zm42.446-34.749c-.383.029-.766.058-1.152.08-5.82.337-12.414-1.386-12.879-1.601-.508-.236-1.063-.369-1.618-.502h-.001c-.22-.053-.44-.105-.657-.165a22.329 22.329 0 0 0-.566-.144l-.001-.001c-.296-.073-.592-.146-.883-.236a65.7 65.7 0 0 1-2.335-.77 4.165 4.165 0 0 1-.797-.388c-.185-.113-.374-.222-.563-.331-.525-.303-1.052-.606-1.487-1.007-.433-.399-.746-.937-1.053-1.464a19.949 19.949 0 0 0-.169-.289 13.228 13.228 0 0 1-.891-1.772c-1.036-2.554.262-5.314.806-6.2.69-1.122 1.973-1.738 3.02-1.927.898-.163 2.084-.2 3.172.176.749.258 1.4.649 2.049 1.038.385.231.769.462 1.171.663 1.352.677 2.563 1.555 3.763 2.426l.141.102c.693.502 1.288 1.136 1.884 1.771v.001c.367.39.734.781 1.124 1.142.605.56 1.259 1.068 1.911 1.577h.001l.001.001.27.211.089.069.101.08c.162.127.321.259.481.391.483.398.968.798 1.513 1.076.691.353 1.434.606 2.176.858h.002l.001.001h.002c.236.081.473.161.707.245a18.397 18.397 0 0 0 1.855.57l.082.021c.461.116.937.237 1.392.2 1.325-.109 1.385-.155 2.489-.994l.186-.142c.134-.101.356-.174.512-.142.912.191 1.85.421 2.442 1.182.128.165-.179.834-.449 1.113l-.151.156c-.806.833-1.593 1.648-2.763 2.129-1.015.417-1.975.654-3.041.684-.631.018-1.258.065-1.887.112Zm-28.835-25.097c-.006-.095-.011-.19-.022-.281a86.435 86.435 0 0 1-.136-1.234l-.054-.507c.103-.856.195-1.526.314-2.19l.009-.052a93.762 93.762 0 0 0 .049-.31v-.001c.058-.392.117-.788.29-1.122.198-.38.446-.735.694-1.089.238-.34.476-.68.67-1.043.661-1.237 1.807-1.849 2.937-2.452.304-.162.606-.323.897-.496.625-.37 1.404-.491 2.172-.612h.004c.246-.039.49-.077.729-.123a9.27 9.27 0 0 1 1.925-.186c1.026.02 2.016.257 3.021.509 1.368.343 2.467 1.046 3.472 1.941.206.184.325.463.445.744.059.137.117.274.186.4.142.26.286.52.431.78.242.437.484.873.717 1.315.323.615-.216 1.307-.927 1.345-.498.026-4.18.338-5.51 1.504-1.134.993-1.409 1.375-1.853 1.99l-.251.345c-.326.442-.603 2.468-.426 3.008.155.474.368.927.581 1.382.171.362.341.725.482 1.098.101.267.125.563.149.859.011.134.022.269.04.4-.13-.004-.261-.002-.392-.001-.298.004-.595.007-.88-.051-.317-.064-.623-.184-.929-.304-.137-.053-.273-.107-.411-.156l-1.78-.628-.886-.312a18.698 18.698 0 0 0-.579-.193c-.426-.138-.853-.276-1.255-.467-1.515-.72-2.933-1.59-3.783-3.112-.11-.196-.125-.448-.14-.698Zm15.632 49.365c.093.387.187.775.273 1.164.014.064-.028.14-.071.215a.94.94 0 0 0-.053.105c.125.711.244 1.236.377 1.757.095.369.193.738.29 1.107v.001l.001.001v.003h.001v.004h.001v.004h.001c.185.702.372 1.404.537 2.111.092.395.136.822.097 1.223-.104 1.08 1.142 3.422 2.136 3.584.677.11 1.372.1 2.069.09h.006c.43-.006.86-.013 1.286.01.336.016.702.174.971.378.085.064-.023.559-.18.73-.368.4-.79.767-1.242 1.07-1.598 1.077-3.423 1.06-5.242.997-1.607-.054-3.073-.423-4.049-1.887-.458-.687-.942-1.356-1.426-2.026l-.001-.001c-.299-.414-.598-.828-.891-1.246-.246-.351-.485-.707-.724-1.062v-.001h-.001v-.001h-.001v-.001a60.28 60.28 0 0 0-.887-1.293c-.23-.321-.474-.634-.718-.948-.525-.675-1.049-1.349-1.429-2.096-.197-.39.2-1.259.565-1.72.388-.491.828-.942 1.268-1.393.501-.515 1.003-1.029 1.427-1.602.204-.276.275-.655.345-1.032.075-.396.148-.789.375-1.057.579-.68.587-1.439.594-2.184.004-.322.007-.641.056-.95.072-.449.138-.9.204-1.352h.001v-.002c.139-.947.279-1.896.466-2.831.069-.343.435-.633.788-.912.118-.093.234-.185.337-.277.047-.041.407.124.454.254.158.437.279.896.344 1.357.077.55.142 1.102.207 1.655.084.723.169 1.445.281 2.162.059.373.162.739.265 1.105h.001v.002c.09.321.181.641.241.967.061.326.089.657.118.989v.001h.001v.003c.03.345.06.689.125 1.027.117.603.262 1.2.406 1.797v.001Zm-1.058-43.463c-.353.104-.932-.182-1.259-.463-.292-.249-.51-.584-.728-.92-.094-.144-.187-.288-.287-.426-.089-.133-.177-.259-.262-.382-.277-.396-.521-.747-.658-1.135-.083-.236-.083-.499-.083-.764 0-.212 0-.425-.043-.627-.198-.934.307-1.518.828-2.12.076-.089.153-.177.228-.268.603-.727 1.345-1.267 2.164-1.677.47-.235 1.039-.333 1.571-.367.343-.023.691-.007 1.037.008.501.022 1 .044 1.48-.048.535-.102.703.151.88.437.165.266.267.611.276.925.024.829-.004 1.661-.048 2.49-.003.065-.074.124-.147.185-.072.06-.145.12-.156.189-.258 1.586-1.23 2.781-2.328 3.8-.64.594-1.597.907-2.465 1.163Zm11.291 11.907a.35.35 0 0 1-.018.019c-.139-.119-.273-.236-.404-.35a33.728 33.728 0 0 0-1.535-1.284 1.85 1.85 0 0 0-.442-.229c-.17-.071-.34-.141-.472-.256-.448-.387-.882-.791-1.315-1.194v-.001a56.107 56.107 0 0 0-1.11-1.016 75.512 75.512 0 0 0-2.357-1.982c-.167-.135-.332-.273-.498-.41v-.001l-.001-.001c-.566-.471-1.133-.942-1.756-1.317-.592-.355-1.221-.645-1.851-.935h-.001v-.001h-.001c-.38-.175-.761-.35-1.133-.54-.413-.211-.801-.471-1.188-.73l-.174-.116c-.009-.006.118-.336.202-.346.303-.037.611-.091.919-.146h.001c.794-.14 1.593-.281 2.326-.125 1.038.221 2.087.595 3.07 1.271 1.621 1.116 3.053 2.393 4.413 3.777 1.493 1.518 2.964 3.057 4.436 4.595l.001.001.001.001.001.001.001.001.001.001h.001v.001l.001.001.001.001.001.001.541.565a99.582 99.582 0 0 1 1.921 2.085c.058.063.098.227.059.278-.128.169-.351.462-.44.431-.293-.104-.56-.298-.819-.486l-.046-.034c-.39-.283-.777-.569-1.164-.856-.354-.261-.707-.523-1.062-.781-.005-.004-.042.035-.078.074l-.032.033Zm169.592 45.841c-.168.007-.346.032-.524.057-.391.056-.783.111-1.075-.032a2.266 2.266 0 0 1-.083-.042l-.084-.042c-2.935-1.48-42.487-21.435-82.836-33.712-34.976-10.643-71.712-13.656-73.283-13.785l-.045-.004c-.168-.014 37.331-.943 73.88 10.017 42.018 12.6 83.875 37.332 84.05 37.543ZM174.377 95.304l.001-.003c.044-.41.089-.827.14-1.249l-.077-.316-.001-.005-.002-.007v-.001c-.119-.496-.226-.944-.394-1.367a11.445 11.445 0 0 1-.068-.176c-.257-.666-.515-1.332-1.378-1.539-.19-.045-.353-.192-.518-.34-.135-.122-.273-.246-.429-.317a6.127 6.127 0 0 0-1.447-.435c-.25-.044-.506-.05-.762-.057a5.222 5.222 0 0 1-.751-.054c-.441-.076-.88-.17-1.319-.265-.675-.146-1.35-.292-2.032-.367-.263-.029-.526-.053-.789-.078-.733-.07-1.464-.139-2.194-.294-.677-.143-1.381-.163-2.083-.183a37.06 37.06 0 0 1-.672-.023.92.92 0 0 0-.313.063c-.116.037-.231.074-.34.057a75.71 75.71 0 0 1-2.312-.397h-.004v-.001h-.001l-.59-.108c-.343-.061-.684-.056-1.029-.05-.386.005-.776.011-1.18-.076-.693-.15-1.415-.156-2.143-.161-.49-.004-.982-.008-1.469-.056-1.007-.099-2.026-.075-3.045-.051-.417.01-.833.019-1.249.02-.615.002-1.379.71-1.422 1.312-.013.171-.003.359.006.546.02.394.04.786-.144 1.019-.465.588-.402 1.22-.338 1.856.052.522.104 1.045-.135 1.547-.237.497-.207 1.095-.177 1.692.015.291.029.583.013.862-.028.47-.07.941-.112 1.412-.083.922-.166 1.845-.139 2.771.003.125.036.252.069.378.042.159.083.316.064.468-.08.649-.178 1.295-.276 1.941-.082.54-.163 1.08-.235 1.621-.051.389-.049.779-.047 1.17.004.502.007 1.007-.104 1.52-.127.595-.13 1.211-.133 1.832-.002.469-.004.941-.059 1.41-.072.603-.06 1.211-.048 1.822.016.824.032 1.651-.157 2.475-.117.509-.148 1.038-.179 1.567-.02.339-.04.679-.082 1.014-.016.124-.095.263-.168.392-.088.153-.167.292-.121.374.147.262.492.462.795.574.828.306 1.941-.096 1.988-.684.021-.262.052-.527.082-.791v-.001c.079-.692.158-1.385.074-2.057-.079-.625.063-1.205.204-1.782h.001c.119-.489.239-.976.222-1.485-.005-.156.185-.454.294-.459a115.19 115.19 0 0 1 4.239-.103c.503-.003 1.007.012 1.511.026.554.016 1.107.032 1.66.025.58-.008 1.16-.032 1.74-.057h.003c.937-.04 1.874-.08 2.809-.047.587.021 1.17.139 1.754.258.406.083.813.166 1.223.216.254.031.508.036.764.042.415.01.831.019 1.248.136.245.069.511.061.778.052.248-.008.496-.016.728.038.382.088.752.222 1.122.357h.002v.001h.001c.317.115.634.23.959.316.371.098.755.15 1.14.201.193.026.387.052.579.084.17.028.349.079.527.129.386.109.771.217 1.07.101.59-.227 1.168-.738 1.512-1.279.349-.55.491-1.251.626-1.913l.02-.099c.041-.202.019-.427-.003-.649-.028-.29-.056-.573.06-.785.35-.645.442-1.332.534-2.017.046-.336.091-.673.167-1.003.036-.158.017-.343-.001-.523-.025-.238-.048-.466.059-.607.476-.632.544-1.353.613-2.075.043-.455.086-.909.231-1.343.2-.597.315-1.241.429-1.884l.001-.001c.049-.28.099-.559.156-.834.217-1.055.333-2.131.453-3.243Zm-3.452 11.224c-.128.656-.255 1.309-.547 1.918-.008.073-.014.143-.02.211l-.013.171c-.024.315-.042.561-.146.762-.162.312-.183.675-.204 1.037-.035.591-.069 1.18-.715 1.545l-.086.049c-.206.119-.443.256-.626.216-.186-.041-.36-.139-.534-.236-.183-.103-.365-.204-.56-.241-.343-.064-.694-.091-1.045-.119-.402-.031-.804-.062-1.194-.149-.332-.074-.651-.208-.97-.341-.325-.136-.65-.272-.988-.345-.431-.094-.875-.126-1.319-.159-.346-.025-.691-.05-1.032-.104-2.917-.463-5.846-.393-8.774-.324-1.756.042-3.511.084-5.264.011-.606-.025-1.116-.059-1.161-.834a7.603 7.603 0 0 0-.115-.861c-.103-.599-.205-1.195-.008-1.668.417-.997.367-1.982.318-2.962v-.007a14.341 14.341 0 0 1-.027-1.226c.131-3.869.166-7.74.196-11.612l.001-.169c.001-.633.003-1.22.469-1.748.269-.303.506-.416.921-.386.488.035.978.042 1.468.048.555.008 1.11.016 1.661.065.553.049 1.103.135 1.653.221.579.091 1.157.182 1.74.23.374.03.762.002 1.148-.025.599-.042 1.192-.084 1.718.092 1.065.354 2.14.38 3.213.406.556.013 1.112.026 1.665.085.43.046.882.012 1.33-.022.673-.05 1.338-.101 1.903.123.929.369 1.858.376 2.773.382.363.003.724.006 1.082.031 1.51.106 2.821.537 3.657 1.642.486.642.954 1.705.343 2.703-.054.087-.04.214-.026.343.008.073.017.146.013.214-.018.32-.015.65-.011.978.008.755.016 1.511-.237 2.165-.244.627-.361 1.272-.477 1.914-.097.539-.195 1.077-.367 1.602-.12.366-.117.779-.114 1.189.003.463.005.922-.169 1.306-.275.606-.399 1.244-.523 1.878v.001Zm-27.007 4.059-.069-.072c.349.035.742.106.825.307.091.218.078.479.064.741-.005.111-.011.222-.009.33a.657.657 0 0 0-.085.008c-.066.008-.131.016-.16-.012-.04-.041-.069-.102-.097-.16-.035-.076-.069-.148-.125-.168-.649-.232-.666-.274-.242-.855.007-.01-.047-.064-.101-.119h-.001Zm70.111 70.391c.498.228.952.46 1.396.687.225.115.448.229.672.34.168.084.345.154.521.225.29.116.579.232.828.405.309.214.568.501.826.787l.169.186.076.081c.037.041.011.229-.019.239a1.595 1.595 0 0 0-.083.027c-.048.017-.097.036-.146.055-.215.082-.437.167-.601.106-.27-.101-.547-.183-.825-.264h-.001l-.001-.001c-.828-.243-1.655-.485-2.272-1.244-.5-.617-1.193-1.129-1.894-1.513-.317-.171-.894.081-1.024.606-.329 1.323-3.925 6.57-9.31 6.57-5.384 0-13.856-.554-16.107-3.258-3.164-3.799-1.945-11.053-1.828-11.751l.006-.039c.038-.237-.137-.536-.286-.758-.045-.068-.366-.028-.502.056-.415.263-.819.542-1.223.822-.164.113-.328.227-.493.339-.187.127-.371.256-.556.386h-.001c-.502.352-1.005.704-1.54.997-.164.09-.434.002-.687-.08-.075-.024-.148-.048-.217-.067a2.205 2.205 0 0 1-.413-.179c-.061-.031-.123-.063-.185-.092.111-.098.218-.2.325-.303.238-.228.477-.455.746-.635.366-.243.749-.46 1.133-.677v-.001h.001c.278-.158.557-.315.83-.483a61.064 61.064 0 0 0 2.087-1.357c.084-.057.169-.112.254-.168.352-.231.707-.464.981-.767 1.165-1.287 2.475-2.378 3.833-3.464.632-.503 1.324-.848 2.012-1.192.483-.241.964-.481 1.422-.774.322-.205.728-.273 1.136-.342.225-.037.45-.075.663-.136.41-.118.816-.248 1.223-.378h.001c.301-.097.603-.193.905-.284.087-.026.182-.022.277-.019l.092.002c.374 0 .75-.01 1.125-.02h.002c.882-.024 1.765-.048 2.631.059.542.068 1.061.322 1.58.576.233.114.466.228.702.326-.013.02-.024.046-.035.071-.022.051-.044.101-.076.111-1.249.346-2.469.551-3.748-.038-.395-.181-.923-.115-1.417-.053-.099.012-.197.025-.292.035-.46.049-.915.162-1.367.274l-.13.033-.175.043-.284.064c-.351.078-.703.157-1.02.306a67.227 67.227 0 0 0-3.391 1.711c-.368.199-.721.426-1.074.654h-.001v.001h-.001c-.32.207-.639.413-.971.598-.182.102-.38.181-.577.261-.511.206-1.02.411-1.268 1.007-.02.045-.078.076-.136.106a.825.825 0 0 0-.073.04c.13.004.263.017.395.029.298.029.596.058.865-.019.455-.128.887-.335 1.32-.542l.001-.001h.002l.001-.001c.146-.07.292-.14.439-.207.215-.097.426-.202.638-.307.411-.204.822-.408 1.251-.555.255-.086.532-.103.81-.12.198-.012.398-.024.59-.062.359-.069.714-.164 1.069-.26.179-.048.358-.096.538-.141a1.17 1.17 0 0 1 .271-.026c.384-.001.772.019 1.161.038.93.046 1.86.093 2.719-.134.346-.091.657-.062.963-.032.249.023.494.047.753.004.495-.083 1.057.148 1.593.367l.003.001.183.075.081.032.051.02.053.02c.587.222 1.204.461 1.688.843.567.451 1.086.962 1.605 1.472.22.216.439.432.662.643-.042.043-.089.101-.136.158l-.001.001c-.102.124-.204.248-.249.23-.216-.086-13.612-1.758-18.845 1.105-1.898 1.038-.152 8.581-.006 9.212l.006.024c.786 3.413 13.049 5.381 17.715 4.6 5.617-.939 5.954-6.81 6.064-8.714.019-.334.031-.546.063-.588.301-.385.781-.592 1.208-.235.203.169.339.499.373.77.031.256.112.501.19.738.062.189.123.373.156.556.104.576.475.938.85 1.303.263.256.527.514.702.848Zm-136.29-35.152c-.176-.04-.352-.079-.469-.014-.409.229-17.805 8.012-29.952 1.353-.149-.082-.363-.192-.619-.325-1.52-.786-4.533-2.343-4.352-3.225.491-2.403 7.365-5.705 8.26-6.135l.075-.037a.54.54 0 0 0 .02-.009c-.04-.061-.075-.134-.11-.206-.078-.161-.155-.322-.27-.356a2.34 2.34 0 0 0-1.064-.046c-.4.077-4.76 1.048-5.523 1.532-.803.51-3 3.187-2.96 4.051.017.369-.106.743-.23 1.12-.064.198-.13.396-.174.594a2.047 2.047 0 0 0-.037.367c-.008.199-.016.394-.108.54-.1.158-.22.413-.363.721v.001c-.283.607-.663 1.421-1.194 2.126-.397.528-.938.971-1.35 1.309-.245.202-.445.365-.54.486-.057.073-.132.145-.209.22-.212.205-.437.423-.328.683.147.352.666.18.945.087l.006-.002c.407-.134.793-.393 1.125-.674a10.99 10.99 0 0 0 1.295-1.292c.402-.478.794-.982 1.081-1.53.317-.608 1.018-.859 1.652-.423 17.837 12.265 34.667.574 35.453-.124.108-.096.127-.291.146-.486.009-.091.018-.181.035-.261-.077-.008-.159-.027-.241-.045Zm80.551-68.943c-.352.353-.702.699-1.05 1.042-.874.863-1.731 1.709-2.54 2.598-.285.313-.462.723-.64 1.133a9.5 9.5 0 0 1-.238.523c-.459.91-1.135 1.25-2.325 1.767-.688.298-1.408.584-2.044.459-.447-.088-.895-.081-1.337-.074-.49.007-.972.014-1.435-.107-.563-.148-1.181-.632-1.464-1.139-.246-.438.029-1.008.519-1.48.541-.52 1.007-1.117 1.473-1.714h.001v-.001h.001v-.001l.001-.001c.268-.345.537-.69.821-1.02.305-.354.607-.711.909-1.069.998-1.18 1.997-2.361 3.089-3.448.902-.898 2.025-1.477 3.349-1.849 1.204-.339 2.124-.255 3.201.206.401.171.864.196 1.329.22.226.012.453.024.673.053.702.093 1.118.754.666 1.076-.4.285-1.145.564-1.479.38-1.833-1.017-3.66-.777-5.455-.094-.479.181-.875.598-1.264 1.006-.124.13-.248.26-.373.382-.961.928-1.918 1.863-2.83 2.839-.352.378-.655.804-.956 1.229h-.001a28.56 28.56 0 0 1-.337.47l-.227.307c-.385.52-.77 1.04-1.128 1.576-.266.4-.231.475.185.607 1.039.331 2.052.266 3.085-.11 1.261-.458 1.986-1.42 2.74-2.418.092-.122.184-.245.278-.367.614-.8 1.36-1.5 2.105-2.199.325-.305.65-.61.964-.923.055-.055.112-.108.168-.162.101-.095.202-.19.294-.293.457-.513.918-1.007 1.695-.965.036.002.071-.043.109-.09.029-.037.059-.075.093-.096.049-.032.108-.048.167-.064l.041-.012.036-.011a2.01 2.01 0 0 0-.007.08c-.004.06-.008.118-.033.167-.256.516-.52 1.027-.829 1.587Zm6.914-7.308c1.295-1.224 2.598-2.457 3.481-4.122-.213-.07-.428-.087-.64-.103h-.001c-.1-.008-.2-.015-.299-.029-.166-.022-.332-.064-.498-.105-.291-.073-.58-.146-.856-.11-.513.065-1.042.275-1.487.548-.652.4-1.346.72-2.041 1.039-1.025.47-2.054.943-2.956 1.682-.248.203-.369.43-.486.646-.093.174-.183.342-.332.484.074.015.149.029.223.042.165.03.329.06.49.103.384.102.767.208 1.149.314h.001c.325.09.651.181.977.269.087.023.175.049.263.074.281.08.563.162.85.192l.247.032c.377.052.806.111.98-.06.307-.302.621-.599.935-.896Zm.003-2.745c.032.013.063.026.091.034.212-.157.519-.198.61-.076.122.162.182.581.083.662-.642.522-1.311 1.02-2.022 1.442-.272.16-.68.136-1.021.113-.106-.007-.31-.335-.269-.432l.018-.046.021-.049.012-.03c.14-.342.32-.783.53-.81.65-.084 1.134-.41 1.632-.745l.104-.07.042-.028c.034-.023.102.006.169.035Zm30.148 62.453c-2.016-.239-4.009-.239-5.996-.239-.612 0-1.224 0-1.836-.007-.377-.005-.806-.082-1.109-.279-.18-.117-.25-.556-.199-.816.034-.165.382-.384.585-.38.392.007 1.052-.024 1.848-.062 1.893-.089 4.549-.215 6.161.062 3.7.634 5.617 2.996 5.506 2.986a11.007 11.007 0 0 0-.52-.03c-.443-.02-.888-.039-1.286-.184-.307-.111-.605-.245-.905-.379-.703-.316-1.413-.635-2.249-.672Zm-21.091-66.668c.717-.285.745-.708.065-1.113a7.694 7.694 0 0 0-.527.171c-.188.066-.361.128-.54.167-.387.087-.776.164-1.165.241-.591.117-1.182.234-1.765.383-.208.053-.509.397-.484.564.045.292.241.568.425.827l.032.046.026.036c.034.048.283-.025.416-.08.167-.072.332-.151.497-.23.266-.128.532-.256.81-.35.309-.103.625-.187.941-.27.43-.115.859-.228 1.269-.392Zm2.135-2.242c.011-.6.014-.6.88-.748l.09-.016a2.35 2.35 0 0 0 .533-.183c.145-.063.29-.126.44-.164.076-.02.315.212.297.274l-.01.034-.013.045-.012.045c-.08.284-.18.644-.333.676-.17.036-.339.121-.509.208-.438.222-.883.447-1.363-.17Zm5.014-2.284a12.263 12.263 0 0 1 .207-.02c.522-.095.536-.421.55-.736.006-.14.012-.277.062-.391-.077.014-.155.024-.233.035-.176.024-.352.048-.514.11l-.047.018-.061.022c-.257.094-.572.209-.621.38-.196.677.235.629.657.582Zm5.985-2.255-.053.025c-.156.071-.291.132-.408.108a2.159 2.159 0 0 1-.479-.186 5.021 5.021 0 0 0-.2-.093l.273-.084h.001c.209-.065.418-.13.631-.173.314-.063.388.026.29.38l-.037.016-.018.008Zm31.204-25.328v.001c.042.168.084.34.131.514.05.17.107.31.158.44h.001c.043.108.083.207.114.31.372 1.232.525 2.49.497 3.781-.007.282.061.564.129.847.051.215.103.431.123.649.024.268.018.545.012.821v.001c-.01.493-.02.982.14 1.41.251.676.192 1.326.134 1.959-.011.12-.022.24-.03.36-.078 1.025-.473 1.913-1.556 2.487-.311.164-.621.209-.927.253-.272.04-.541.079-.804.201-.359.167-.748.225-1.144.283-.502.074-1.014.15-1.487.453-.278.179-.648.21-1.019.243-.358.03-.718.062-.998.224-.634.368-1.078.333-1.593-.048a32.292 32.292 0 0 1-.698-.533h-.001l-.001-.001h-.001a33.673 33.673 0 0 0-.645-.495 9.804 9.804 0 0 0-.786-.534c-.288-.174-.637-.268-.966-.357-.31-.083-.601-.161-.805-.297-.563-.375-1.016-.233-1.458-.094-.209.065-.414.13-.628.14-.172.007-.334.268-.495.529a3.72 3.72 0 0 1-.22.33c.114.059.234.138.353.217.264.175.528.35.734.298l.182-.048c.464-.126.867-.235 1.346.08.216.142.463.236.711.33.221.084.442.168.642.286l.207.123c.548.322 1.11.652 1.539 1.098.668.692 1.389.947 2.348.66.67-.202 1.348-.38 2.025-.558.523-.137 1.046-.275 1.565-.422.279-.08.559-.152.839-.225 1.195-.31 2.383-.617 3.413-1.444 1.577-1.269 1.628-2.988 1.436-4.671-.035-.3-.075-.6-.115-.9v-.002c-.089-.664-.178-1.33-.209-2.004-.024-.538-.01-1.078.004-1.617.036-1.337.071-2.675-.48-3.975-.161-.38-.252-.79-.342-1.2-.088-.396-.175-.792-.326-1.162-.273-.674-.7-1.298-1.127-1.894l-.052-.072c-.284-.398-.645-.902-1.018-.947-.324-.04-.677.155-1.029.35h-.001c-.153.085-.306.17-.457.236l.236.155c.188.123.376.246.56.374.1.07.196.155.275.248.108.128.224.252.34.377.281.303.563.606.744.961.225.443.348.94.48 1.471Zm-15.525 18.076-.008-.015a.533.533 0 0 0-.171-.037c-.032-.003-.053-.005-.056-.013a11.4 11.4 0 0 1-.184-.573v-.001l-.044-.143c-.026.086-.061.173-.095.26-.077.194-.154.387-.14.574.096 1.281.213 2.52.841 3.737.283.548.391 1.18.501 1.816v.001c.092.537.185 1.076.383 1.568l.077.191c.361.898.718 1.788.894 2.736.066.356-.011.773-.135 1.121-.146.407-.439.733-.732 1.06-.444.493-.89.99-.832 1.768.005.07-.06.145-.126.22-.031.036-.063.072-.086.108l.02-.008.029-.01.09-.029c.11-.034.22-.068.306-.132.053-.038.085-.104.117-.17a.464.464 0 0 1 .109-.163c.14-.111.281-.218.42-.325.833-.635 1.634-1.245 2.007-2.438.328-1.043.215-1.856-.148-2.72a18.927 18.927 0 0 0-.706-1.436c-.448-.85-.894-1.695-1.076-2.597a33.894 33.894 0 0 0-.886-3.521c-.085-.269-.214-.523-.369-.829Zm27.133 39.45c-.395-.081-.751-.165-1.095-.245-.191-.045-.378-.089-.566-.13l-.078-.018-.125-.028-.155-.035a19.787 19.787 0 0 0-1.471-.297c-.267-.04-.54-.048-.812-.056h-.001a9.366 9.366 0 0 1-.602-.03c-.301-.029-.619-.06-.89-.177-.242-.104-.464-.251-.687-.398l-.001-.001a9.747 9.747 0 0 0-.288-.186c.126-.006.252-.009.378-.012.295-.008.589-.016.88-.05a2.56 2.56 0 0 0 .427-.1c.188-.056.375-.111.561-.107l.199.005c1.266.03 2.535.062 3.794.188.816.082 1.626.256 2.433.43l.573.122c.709.148 1.411.325 2.113.502l.237.06c.626.157 1.247.325 1.869.493h.002l.259.07c.09.025.176.06.263.094l.121.047a1.77 1.77 0 0 0-.096.157c-.07.123-.141.247-.211.247-.334-.002-.669.058-1.004.119-.7.126-1.402.254-2.111-.188-.127-.078-.273-.063-.44-.044-.212.023-.458.05-.74-.11-.501-.282-1.158-.288-1.847-.294-.294-.002-.593-.005-.889-.029ZM81.739 119.915c10.627-1.335 19.489-2.449 19.467-2.737-.002-.018.013-.065.034-.135.137-.449.553-1.81-1.28-1.833-7.867-.1-30.706 2.579-52.17 7.18C17.339 128.635-.205 137.337.003 137.93c.095.269 7.667-1.952 16.96-4.678 11.152-3.271 24.782-7.268 30.944-8.563l.687-.142c5.876-1.204 20.718-3.069 33.146-4.631Zm-25.93 18.839c1.932 0 4.72.209 8.289 1.419l.895.307c.682.235 1.95.583 3.787 1.037a.795.795 0 0 1 .581.963c-.105.427-5.546-.722-5.546-.722-3.679-1.254-5.147-1.597-6.866-1.521-1.673.073-5.21 1.372-7.895 2.359-1.896.696-3.369 1.237-3.461 1.081-.224-.379.04-.858.279-1.09 2.41-2.35 3.746-3.013 9.937-3.833Zm131.282-13.678a.912.912 0 0 0 .278-.446c.132-.485-3.621-1.213-6.147-.269-.513.192-.967.49-1.465.924-.083.073-.268.327-.497.642-.375.516-.868 1.195-1.227 1.504-.578.497-1.559 1.027-2.231 1.365-.273.137-1.308.367-2.474.625h-.001c-1.869.414-4.076.902-4.026 1.207.081.496.994.421 1.49.34.862-.142 1.605-.25 2.252-.344h.001c1.656-.24 2.678-.389 3.426-.766a10.633 10.633 0 0 0 2.2-1.481c.109-.093.262-.234.435-.396l.549-.521c-.086.698.148 1.37.74 1.847l.224.179c7.045 5.57 14.665 6.414 22.707 2.522l.125-.061.059.319c.209 1.062.508 1.946.903 2.655.585 1.05 1.583 2.081 2.988 3.112l1.076-1.466-.179-.133c-1.114-.84-1.877-1.645-2.296-2.398-.444-.797-.757-1.994-.919-3.58l-.138-1.359-1.201.652-.238.129c-7.869 4.185-15.133 3.526-21.97-1.987-.04-.033-.081-.581 0-.818.143-.417.469-1.25 1.307-1.538.547-.188 4.249-.459 4.249-.459Zm56.894-47.852-.378-.685a65.568 65.568 0 0 0-.836-1.464l-.059-.095c-.743-1.15-.878-2.607-.688-4.966l.079-.873.073-.759c.214-2.337.16-3.229-.268-3.689l-.065-.066c-.426-.412-.924-.406-2.721-.007l-.439.099c-2.076.476-3.45.592-5.037.214l-1.372-.34c-.351-.087-.699-.172-.948-.232h-.001l-.354-.087-.371-.095c-3.274-.857-4.651-1.779-5.166-4.01-.123-.532-.073-1.083.12-1.77l.044-.149c.125-.414.735-2.057.735-2.057.137-.39.253-.745.355-1.102l.132-.464c.111-.397.225-.818.345-1.27l1.242-4.863c.223-.857.414-1.569.491-1.809l.353-1.036.148-.42c.097-.27.19-.517.287-.758.776-1.945 1.601-3.146 2.762-3.478 1.071-.306 1.859-.264 2.722.08.18.072.646.294 1 .463h.001c.19.091.348.166.411.194.864.382 1.75.625 2.95.746l.229.021c.578.05 1.055-.014 2.467-.323l1.013-.224c1.077-.234 1.783-.35 2.555-.398a7.915 7.915 0 0 1 1.974.104c1.023.194 2.59.83 4.743 1.914a.682.682 0 1 1-.613 1.219l-.402-.2c-1.838-.908-3.176-1.44-3.981-1.592a6.573 6.573 0 0 0-1.636-.084c-.731.046-1.42.164-2.546.412l-.848.189c-1.504.328-2.046.402-2.769.348l-.073-.006c-1.472-.125-2.561-.413-3.615-.878l-1.177-.555a4.958 4.958 0 0 0-.189-.083c-.583-.233-1.062-.258-1.841-.035-.603.171-1.248 1.112-1.871 2.672-.112.283-.222.578-.34.913l-.413 1.206c-.184.535-1.524 5.866-1.569 6.05l-.219.833a89.768 89.768 0 0 1-.411 1.489c-.089.308-.186.614-.296.935l-.085.245-.296.836c-.614 1.735-.689 1.946-.641 2.124.006.025.015.049.025.076.015.04.033.087.05.154l.006.025c.374 1.621 1.412 2.29 4.367 3.044l2.68.662c1.349.348 2.521.275 4.354-.131l1.162-.263c.773-.172.97-.194 1.415-.212.893-.035 1.608.201 2.167.802.816.878.891 1.879.629 4.719l-.136 1.43-.032.401c-.139 1.887-.029 3.056.439 3.845l.146.237c.14.232.351.602.559.97l.665 1.194.088.153c.887 1.528 1.618 2.383 2.396 2.68l.083.029c.995.326 2.225-.321 3.811-2.382l.205-.267c.241-.298.486-.485 1.614-1.183l1.742-1.071.21-.132c1.088-.69 1.729-1.203 1.871-1.494 1.666-3.401 2.728-8.71 2.408-14.746-.04-.757-.443-1.916-1.215-3.443l-.093-.18-.042-.025c-1.824-1.036-3.151-2.021-3.986-2.97l-.098-.115c-.856-1.018-1.716-2.68-2.603-5a.682.682 0 0 1 1.275-.486c.837 2.19 1.635 3.73 2.372 4.609.68.808 1.854 1.702 3.518 2.664l.409.232.177.1.094.18c.977 1.865 1.498 3.304 1.554 4.362.333 6.266-.776 11.806-2.545 15.418-.3.613-1.037 1.203-2.365 2.046l-.331.207-1.41.866c-1.172.724-1.406.898-1.566 1.11-1.949 2.584-3.736 3.551-5.431 2.996-1.27-.416-2.21-1.522-3.335-3.495Zm20.624-40.909a.682.682 0 0 0-.905.334c-.341.739-.874 1.202-1.636 1.428-.547.16-1.159.254-1.908.303-.261.017-.486.027-.821.037l-1.152.03c-1.845.06-2.649.215-3.455.796-1.069.77-1.518 3.23-1.143 4.648l.02.078c.014.053.027.11.042.173l.045.205.029.133.117.55.064.287c.057.247.114.468.177.683.253.86.588 1.556 1.08 2.13.068.08.258.423.467.816l.717 1.369c.579 1.02 1.181 1.762 1.942 2.258.321.21.614.296 1.165.395l.245.045c.447.083.658.136.924.24l.207.084c.207.08.452.138.806.2l.253.041c-.013-.002.597.09.94.145l.367.063c.35.064.661.132.957.212.288.078.556.166.804.266l.157.062c.252.094.462.153.832.24l.343.08c.158.037.269.066.369.097l.117.04c.44.157.812.433 1.279 1.01.618.766.618 1.124.142 1.453a.682.682 0 0 0 .776 1.122c1.212-.838 1.212-2.107.143-3.431-.619-.766-1.195-1.193-1.879-1.439a4.511 4.511 0 0 0-.42-.127l-.205-.05-.425-.1a4.66 4.66 0 0 1-.597-.174l-.305-.119a8.715 8.715 0 0 0-.775-.247 13.714 13.714 0 0 0-1.3-.278l-1.308-.205c-.31-.054-.5-.1-.609-.145-.423-.179-.682-.254-1.213-.357l-.474-.087c-.315-.06-.46-.106-.571-.179-.544-.354-3.456-5.182-3.642-5.815a12.322 12.322 0 0 1-.198-.785l-.19-.89a11.757 11.757 0 0 0-.049-.21l-.047-.188c-.246-.93.098-2.815.621-3.192.528-.38 1.213-.498 2.897-.546l.961-.024c.347-.01.583-.02.862-.039l.249-.018c.734-.06 1.365-.164 1.956-.338 1.141-.337 1.984-1.07 2.488-2.165a.682.682 0 0 0-.333-.905Z" fill="#00160A"/><path fill-rule="evenodd" clip-rule="evenodd" d="M105.278 107.223c.251-.492.465-.921.763-1.279.302-.363.683-.661 1.043-.972.036-.031.234.047.233.067-.006.108-.018.25-.088.316-.535.509-.579 1.184-.743 1.848-.179.729.003 1.299.335 1.906.221.405.383.85.521 1.292.291.932.579 1.867.812 2.815.158.639.303 1.301.309 1.954.03 3.292.013 6.585.014 9.877.001 1.682-.023 3.365.026 5.045.017.549.314 1.09.323 1.637.008.442-.214.892-.36 1.329-.021.063-.246.135-.279.103-.231-.227-.618-.478-.622-.727-.03-1.934.044-3.87.025-5.804-.009-.873-.21-1.743-.232-2.616-.051-2.036.178-4.107-.135-6.096-.245-1.554-.186-3.034-.162-4.562.006-.343-.951-.771-1.523-1.036-.742-.344-1.213.116-1.565.733-.032.056-.165.083-.165.124-.017 3.595-.04 7.189-.026 10.784.004 1.04.124 2.08.175 3.12.02.39-.022.593.577.502 1.012-.155 2.34 1.341 2.047 2.195-.225.657-.634 1.251-.86 1.908-.512 1.483-1.629 2.918-1.136 4.529.374 1.223 1.184 2.367 2.012 3.373.329.401 1.231.316 1.861.493.213.06.461.209.558.39.062.118-.074.427-.211.532-.082.064-.338-.101-.517-.16-.294-.096-.583-.237-.884-.273-1.418-.163-1.496-.25-2.141-1.828-.23-.566-.663-1.048-.909-1.61-.231-.53-.362-1.109-.491-1.678-.124-.547-.288-1.115-.252-1.662.042-.644.23-1.294.45-1.907.197-.547.535-1.042.78-1.574.029-.062-.117-.239-.219-.312-.055-.039-.206.003-.282.055-.734.5-1.083 1.308-1.547 2.016-.153.232-.106.597-.149.901-.063.455-.185.912-.175 1.365.019.839-.075 1.752.222 2.498.615 1.55 1.211 3.187 2.467 4.34.463.426 1.23.629 2.001.732 1.015.136 1.977-.158 2.972-.045.455.053.949-.344 1.425-.342.58.002 1.034-.316 1.548-.399.587-.096 1.071-.348 1.582-.591.835-.395 1.74-.677 2.502-1.18.677-.448 1.194-1.135 1.793-1.705.923-.88 1.703-1.852 2.323-2.984.273-.499.706-.878.528-1.509-.028-.099-.098-.256-.157-.26-.132-.009-.312.02-.398.106-1.957 1.976-3.866 4.001-5.879 5.918-.543.515-1.392.717-2.11 1.042-.4.181-.829.297-1.231.474-.875.384-1.57-.15-2.316-.429.035-.077.055-.207.107-.222 1.215-.323 2.448-.593 3.647-.967.555-.173 1.073-.508 1.559-.841.472-.322.861-.76 1.32-1.103 1.715-1.283 3.119-2.792 3.79-4.889.182-.568 1.403-.928 2.105-.718.423.126.907.116 1.279.32.238.131.494.575.447.822-.249 1.323-1.079 2.303-2.004 3.245-.614.625-.994 1.489-1.633 2.08-1.083 1.001-2.213 1.991-3.462 2.762-1.261.781-2.662 1.363-4.055 1.891-.998.378-2.072.659-3.132.747-1.809.153-3.589.008-5.194-1.067-1.005-.673-1.683-1.606-2.206-2.615-.294-.564-.012-1.415-.269-2.017-.509-1.196-.603-2.422-.496-3.654.073-.84.594-1.656.597-2.484.004-.93.687-1.387.986-2.089.06-.141-.101-.362-.101-.546-.009-2.101-.005-4.202-.006-6.303-.001-1.058.065-2.123-.038-3.171-.059-.609-.437-1.18-.587-1.789-.076-.31.054-.666.057-1.002.011-.951-.082-1.912.026-2.851.136-1.182.465-2.34.643-3.519.1-.658.064-1.337.087-2.007.046-1.318.315-2.618 1.233-3.566.717-.739 1.573-1.438 2.762-1.441.292-.001.691-.529.853-.446.369.187.727.563.872.945.064.17-.349.611-.631.803-.502.34-1.088.328-1.701.302-1.007-.044-1.925 1.274-2.314 2.431-.318.948.169 1.794-.048 2.697-.064.269.466.688.744 1.021.029.035.287-.045.287-.073.006-.571.045-1.149-.037-1.709-.077-.53-.434-1.063.228-1.464-.059-.066-.118-.132-.178-.292Z" fill="#FFB61D"/><path fill-rule="evenodd" clip-rule="evenodd" d="M142.532 150.309c-.177.962-.365 1.827-.52 2.696-.026.145.132.313.137.473.048 1.367-.202 2.72-.246 4.088-.021.657.037 1.375-.143 2.021-.224.799.099 1.849-.924 2.32-.395.18-.975.523-1.206.376-.446-.284-1.188-.44-1.071-1.317.103-.771-.113-1.596.052-2.343.28-1.277-.018-2.566.203-3.808.133-.752-.012-1.503.163-2.214.282-1.148.24-2.316.391-3.466.145-1.093.232-2.19.375-3.278.147-1.125.233-2.254.386-3.369.136-.999.113-2.057.401-2.981.255-.819-.343-1.763.455-2.47.11-.097-.176-.558-.133-.827.364-2.231.079-4.475.193-6.71.008-.157.257-.384.436-.437a11.672 11.672 0 0 1 1.723-.371c.135-.019.439.214.437.327-.035 1.918-.146 3.836-.155 5.753-.006 1.384.146 2.769.16 4.154.007.674-.157 1.349-.213 2.026-.059.704.16 1.374-.254 2.125-.312.564-.038 1.437-.09 2.167-.098 1.366-.181 2.74-.419 4.083-.05.284-.157.578-.138.982Zm-2.634 9.878c.309.467.292.453.577.098.336-.42.081-.909.191-1.334.295-1.144.221-2.316.361-3.47.111-.925.271-1.849.321-2.777.064-1.198-.06-2.414.086-3.599.125-1.018.085-2.04.446-3.074.366-1.05.209-2.283.273-3.436.016-.282-.104-.63.022-.835.428-.699.045-1.427.15-2.13.014-.094-.225-.224-.347-.339-.07.134-.183.26-.204.401-.134.92-.287 1.838-.362 2.764-.1 1.228-.135 2.464-.197 3.697-.004.094.039.218-.006.278-.51.683-.115 1.498-.346 2.264-.292.967-.161 2.062-.212 3.102-.002.032.005.064-.001.094-.154.729-.348 1.453-.453 2.189-.084.59.262 1.13-.216 1.817-.363.523-.045 1.498-.096 2.266-.03.464-.215.918-.268 1.384-.016.138.181.301.281.64Zm2.446-25.777c.02-.521.041-1.043.059-1.565a.685.685 0 0 0-.026-.212c-.118-.002-.336-.001-.342.034a13.517 13.517 0 0 0-.216 1.575c-.004.078.28.175.525.168ZM105.607 136.997a7.303 7.303 0 0 1-.031-.987c.257.073.544.097.765.23 1.167.698 2.311 1.433 3.477 2.132.203.122.472.15.716.185.187.027.382-.004.574-.01-.183.158-.403.479-.545.447-.889-.197-1.947.527-2.686-.473-.015-.02-.097-.014-.128.008-.332.232-.705.689-1.076.247-.425-.506-.686-1.148-1.066-1.779Z" fill="#00160A"/></svg>