<svg width="80" height="80" viewBox="0 0 80 80" fill="none" xmlns="http://www.w3.org/2000/svg">
<path d="M75 5H5V75H75V5Z" fill="#FFCA28"/>
<path d="M47.5 63.2197L52.6538 59.8092C53.0578 61.0782 55.6155 64.092 58.8462 64.092C62.077 64.092 63.577 62.3275 63.577 61.1575C63.577 57.9695 60.278 56.8455 58.6935 56.3057C58.435 56.2177 58.2225 56.1452 58.077 56.082C58.0023 56.0495 57.8895 56.0062 57.7448 55.951C55.9825 55.2777 49.4807 52.7937 49.4807 45.5932C49.4807 37.6625 57.1345 36.7505 58.8655 36.7505C59.9977 36.7505 65.4422 36.8892 68.1537 41.9847L63.1537 45.4745C62.0577 43.2537 60.2365 42.5202 59.1155 42.5202C56.3463 42.5202 55.7692 44.5502 55.7692 45.4745C55.7692 48.0675 58.778 49.2297 61.3182 50.211C61.983 50.4677 62.6155 50.712 63.1537 50.9665C65.923 52.275 70 54.4165 70 61.1575C70 64.534 67.168 70.0005 60.0385 70.0005C50.4615 70.0005 47.923 64.2507 47.5 63.2197Z" fill="#3E3E3E"/>
<path d="M22.5 63.8967L27.8717 60.4882C28.2925 61.7565 29.9282 64.095 32.3012 64.095C34.6745 64.095 35.8892 61.6575 35.8892 60.4882V37.5005H42.4955V60.4882C42.6025 63.659 40.844 70.0005 33.083 70.0005C25.9475 70.0005 22.9811 65.7597 22.5 63.8967Z" fill="#3E3E3E"/>
</svg>
