<svg width="66" height="50" viewBox="0 0 66 50" fill="none" xmlns="http://www.w3.org/2000/svg">
<path d="M7.57453 49.356C6.1692 49.356 4.83187 48.948 3.56253 48.132C2.2932 47.316 1.3412 46.092 0.706532 44.46C0.479866 43.8707 0.343866 43.236 0.298533 42.556C0.207866 41.9213 0.162532 41.2867 0.162532 40.652C0.162532 40.0173 0.275866 39.7 0.502533 39.7C0.729199 39.7 0.842533 39.8813 0.842533 40.244C0.842533 42.3747 1.38653 43.984 2.47453 45.072C3.5172 46.16 4.85453 46.704 6.48653 46.704C8.0732 46.704 9.61453 46.2507 11.1105 45.344C12.5612 44.4373 13.9212 43.2813 15.1905 41.876C17.3212 39.564 19.2479 36.9347 20.9705 33.988C22.7385 30.996 24.3252 27.9133 25.7305 24.74C26.0932 23.9693 26.6145 22.7453 27.2945 21.068C27.9745 19.3453 28.7225 17.4867 29.5385 15.492C30.3545 13.452 31.1479 11.616 31.9185 9.984C32.5985 8.44267 33.1652 7.21867 33.6185 6.312C34.1172 5.40533 34.7745 4.63467 35.5905 4C36.4065 3.36533 37.6305 2.73067 39.2625 2.096C38.5372 2.14133 37.8572 2.20933 37.2225 2.3C36.5879 2.34533 36.0892 2.368 35.7265 2.368C34.0039 2.41333 32.2812 2.52667 30.5585 2.708C28.8359 2.88933 27.2945 3.22933 25.9345 3.728C24.5745 4.18133 23.5999 4.83867 23.0105 5.7C22.6025 6.28933 22.3985 6.96933 22.3985 7.74C22.3985 8.51066 22.6025 9.25866 23.0105 9.984C23.4185 10.7093 23.9399 11.2307 24.5745 11.548C24.6652 11.6387 24.7105 11.7067 24.7105 11.752C24.7105 11.8427 24.5972 11.956 24.3705 12.092C24.1892 12.1827 23.9852 12.2053 23.7585 12.16C23.3959 11.9333 22.9425 11.5707 22.3985 11.072C21.8545 10.528 21.3559 9.96133 20.9025 9.372C20.4945 8.78267 20.2225 8.284 20.0865 7.876C19.9052 7.332 19.8145 6.788 19.8145 6.244C19.8145 5.156 20.1999 4.272 20.9705 3.592C21.7865 2.912 22.8292 2.39066 24.0985 2.028C25.3679 1.66533 26.7279 1.416 28.1785 1.28C29.6745 1.09866 31.1025 1.008 32.4625 1.008C33.8679 0.962665 35.0692 0.939999 36.0665 0.939999H43.4105C43.5012 0.939999 43.5465 0.962665 43.5465 1.008C43.5465 1.144 43.3879 1.348 43.0705 1.62C42.7985 1.84666 42.6172 1.96 42.5265 1.96C41.2572 2.00533 40.1239 2.48133 39.1265 3.388C38.1745 4.29467 37.3359 5.33733 36.6105 6.516C35.9305 7.64933 35.3639 8.692 34.9105 9.644C34.6385 10.188 34.2079 11.072 33.6185 12.296C33.0745 13.4747 32.4625 14.8347 31.7825 16.376C31.1479 17.872 30.4905 19.368 29.8105 20.864C29.1759 22.36 28.6092 23.652 28.1105 24.74C26.9319 27.46 25.8212 29.9987 24.7785 32.356C23.7812 34.668 22.6705 36.844 21.4465 38.884C20.2225 40.924 18.7039 42.9187 16.8905 44.868C15.7572 46.092 14.3292 47.1347 12.6065 47.996C10.8385 48.9027 9.1612 49.356 7.57453 49.356ZM29.615 38.476C29.5697 38.5213 29.5244 38.544 29.479 38.544C29.343 38.544 29.275 38.34 29.275 37.932C29.275 37.66 29.343 37.388 29.479 37.116C29.6604 36.7987 29.9777 36.6173 30.431 36.572C31.7004 36.4813 32.9017 36.0507 34.035 35.28C35.1684 34.5093 36.1657 33.6027 37.027 32.56C37.8884 31.472 38.5004 30.452 38.863 29.5L45.119 13.86C45.9804 11.7293 46.955 9.66667 48.043 7.672C49.1764 5.67733 50.6044 4.04533 52.327 2.776C54.095 1.50667 56.3164 0.872 58.991 0.872C60.0337 0.872 61.0764 1.008 62.119 1.28C63.207 1.50666 64.1137 1.892 64.839 2.436C65.5644 2.98 65.927 3.75066 65.927 4.748C65.927 4.884 65.927 5.02 65.927 5.156C65.927 5.292 65.9044 5.428 65.859 5.564C65.723 6.28933 65.315 7.01467 64.635 7.74C64.0004 8.46533 63.5017 9.372 63.139 10.46C63.0937 10.7773 62.8897 10.936 62.527 10.936C62.2097 10.936 62.1417 10.732 62.323 10.324C62.6857 9.78 62.9577 9.14533 63.139 8.42C63.3657 7.64933 63.479 6.87867 63.479 6.108C63.479 4.92933 63.207 3.88666 62.663 2.98C62.119 2.07333 61.1897 1.62 59.875 1.62C58.6964 1.62 57.495 1.96 56.271 2.64C55.047 3.32 53.9817 4.49867 53.075 6.176L40.495 29.364C39.3164 31.54 38.2284 33.104 37.231 34.056C36.279 34.9627 35.4857 35.5293 34.851 35.756H51.239C53.415 35.756 55.4324 35.688 57.291 35.552C59.1497 35.416 60.283 35.076 60.691 34.532C61.1444 33.8973 61.371 33.2173 61.371 32.492C61.371 31.3587 60.759 30.52 59.535 29.976C59.399 29.8853 59.331 29.7947 59.331 29.704C59.331 29.6133 59.3764 29.5227 59.467 29.432C59.603 29.3413 59.7617 29.3413 59.943 29.432C60.351 29.6133 60.827 30.0213 61.371 30.656C61.9604 31.2453 62.5044 31.9027 63.003 32.628C63.5017 33.308 63.819 33.852 63.955 34.26C64.091 34.668 64.159 35.076 64.159 35.484C64.159 37.3427 62.5497 38.272 59.331 38.272C56.7924 38.272 54.0724 38.1813 51.171 38C48.2697 37.8187 45.391 37.6147 42.535 37.388C39.7244 37.1613 37.0724 37.0027 34.579 36.912C33.627 36.8213 32.675 36.9573 31.723 37.32C30.8164 37.6373 30.1137 38.0227 29.615 38.476Z" fill="white"/>
</svg>
