<svg width="306" height="287" fill="none" xmlns="http://www.w3.org/2000/svg"><path fill-rule="evenodd" clip-rule="evenodd" d="M21.617 137.166s-13-11.106 5.238-49.45c18.24-38.345 55.176-29.94 78.786-45.023C140.526 20.408 126.227 2.97 169.726.158c54.767-3.54 57.869 53.657 85.27 53.657 1.802 0 44.471-17.145 50.716 29.79 3.145 23.637-50.716 59.681-50.716 59.681s-22.417 20.319-23.648 30.353c-5.162 42.079 5.604 90.274-115.049 112.461-15.604 2.87-41.515-7.51-55.81-26.683-11.198-15.021-56.122-4.364-60.315-53.749-2.114-24.89 21.443-68.502 21.443-68.502Z" fill="#5CC8FF"/><path d="M102.096 103.803a.855.855 0 0 1 1.171.302l.969 1.634c3.845 6.452 5.383 8.547 7.018 9.494 1.344.778 2.733.537 5.276-.955l.339-.204c1.6-.997 8.918-6.024 11.748-7.829a.855.855 0 0 1 .92 1.442l-.435.281c-3.154 2.044-10.237 6.908-11.491 7.658-3.079 1.841-5.075 2.255-7.075 1.165l-.14-.078c-2.149-1.245-3.82-3.634-8.602-11.738a.856.856 0 0 1 .302-1.172Z" fill="#fff"/><path d="M115.95 113.691a.855.855 0 0 1 .961.734c.291 2.177.989 4.359 2.097 6.549a.855.855 0 0 1-1.527.772c-1.192-2.357-1.948-4.722-2.266-7.093a.856.856 0 0 1 .735-.962Z" fill="#fff"/><path fill-rule="evenodd" clip-rule="evenodd" d="M215.608 165.94c-.138.349-.44.832-.792 1.29l.303.314.351.374.078.075c.034.03.061.048.08.053a.209.209 0 0 1 .177.236.207.207 0 0 1-.234.175c-.102-.002-.476-.148-.921-.509a3.058 3.058 0 0 1-.242-.224c-.257.287-.516.533-.74.685-.329.228-.615.246-.751.154-.134-.09-.263-.391-.045-1a.207.207 0 1 1 .395.127 1.042 1.042 0 0 0-.038.298l.126-.086c.045-.032.091-.068.133-.11.153-.15.323-.333.495-.531a5.943 5.943 0 0 1-.772-1.114 5.036 5.036 0 0 1-.279-.662.26.26 0 0 1 .132-.341.259.259 0 0 1 .34.133c.249.522.568.972.882 1.357l.105.126c.286-.375.532-.754.644-1.043a.307.307 0 1 1 .573.223Z" fill="#fff"/><path fill-rule="evenodd" clip-rule="evenodd" d="m88.323 58.022-.521-.095c-2.912-.541-5.144-1.206-9.315-2.651a.917.917 0 0 1 .6-1.732l1.04.357c3.659 1.249 5.711 1.821 8.515 2.316 9.433 1.663 16.496-3.18 17.073-12.416a.917.917 0 0 1 1.83.114c-.65 10.388-8.763 15.95-19.222 14.107ZM111.894 67.913l.526 1.17 1.2.344a.123.123 0 0 1 .084.151.124.124 0 0 1-.032.053l-.911.907.051 1.306a.122.122 0 0 1-.183.112l-1.032-.588a.121.121 0 0 0-.105-.008l-1.104.439a.122.122 0 0 1-.159-.069.127.127 0 0 1-.006-.067l.232-1.286-.776-1.025a.122.122 0 0 1 .08-.195l1.236-.174.684-1.085a.123.123 0 0 1 .215.015Z" fill="#00160A"/><path d="M232.458 38.516a.856.856 0 0 1 .121 1.707c-3.375.24-6.026 1.549-7.204 4.785-.071.194-.13.382-.177.561l-.032.123.052-.108a10.352 10.352 0 0 1 7.657-5.665l.216-.033a.856.856 0 0 1 .237 1.694 8.643 8.643 0 0 0-6.862 5.412l-.074.196c-.546 1.5-1.857 2.22-2.7.936-.515-.783-.481-2.174.075-3.702 1.411-3.875 4.648-5.617 8.691-5.906Z" fill="#fff"/><path d="M228.561 32.143a.855.855 0 1 1 .122 1.707 13.754 13.754 0 0 0-11.952 9.017c-.555 1.526-.658 2.83-.46 3.492l.025.073.038-.054c.095-.145.203-.353.308-.623l.045-.12a15.459 15.459 0 0 1 12.404-10.03.856.856 0 0 1 .237 1.695 13.746 13.746 0 0 0-10.943 8.68l-.09.24c-.734 2.017-2.321 2.888-3.335 1.344-.696-1.058-.647-3.055.163-5.282a15.465 15.465 0 0 1 13.438-10.139ZM223.31 23.646a.855.855 0 1 1 .122 1.706 19.615 19.615 0 0 0-17.046 12.862c-.91 2.499-.986 4.616-.489 5.497l.045.074c.074.112.049.115.068.1l.011-.008c.252-.138.584-.608.888-1.389l.06-.16a21.318 21.318 0 0 1 17.107-13.833.856.856 0 1 1 .237 1.694 19.609 19.609 0 0 0-15.637 12.456l-.099.268c-.95 2.609-2.854 3.654-4.065 1.812-.902-1.374-.836-4.067.266-7.096a21.326 21.326 0 0 1 18.532-13.983ZM213.936 15.66a.855.855 0 0 1 .329 1.679 18.05 18.05 0 0 0-14.126 13.658c-.547 2.37-.382 4.298.155 5.034l.072.092.005.013.01-.008c.193-.174.417-.617.592-1.304l.036-.151a19.754 19.754 0 0 1 14.171-14.654.855.855 0 1 1 .441 1.653 18.041 18.041 0 0 0-12.879 13.112l-.066.273c-.586 2.541-2.271 3.754-3.635 2.146-.998-1.177-1.243-3.673-.569-6.59a19.76 19.76 0 0 1 15.464-14.953ZM119.11 121.162l.493-.179c4.668-1.675 8.606-2.414 9.606-1.396.877.892 1.659 2.509 2.4 4.879a.856.856 0 1 1-1.633.511c-.641-2.051-1.295-3.43-1.913-4.113l-.026-.026-.022.001a2.524 2.524 0 0 0-.516-.032c-.493.01-1.167.097-1.972.256-1.655.328-3.747.938-5.825 1.705-3.475 1.281-6.369 2.787-7.968 4.147-.587.5-1.659-.891-.627-1.688 1.855-1.434 4.67-2.835 8.003-4.065ZM116.761 105.002c0 2.853 3.017 5.943 3.659 6.119.456.124-7.395 5.24-7.395 5.24-2.837.373-4.502-2.025-4.502-5.597 0-.472 8.238-6.234 8.238-5.762Z" fill="#fff"/><path fill-rule="evenodd" clip-rule="evenodd" d="M107.504 106.502c.993-.194 1.668-1.021 1.507-1.85-.161-.828-1.097-1.343-2.09-1.149-.994.193-1.669 1.021-1.508 1.849.161.828 1.097 1.343 2.091 1.15Z" fill="#FFB61D"/><path d="M208.762 10.916a.855.855 0 1 1 .293 1.686c-2.214.386-4.446 1.725-6.747 3.857-2.989 2.767-4.963 6.59-6.051 11.69-.877 4.107-.068 9.24 2.224 13.752 2.608 5.133 7.221 6.402 12.6 7.384 5.522 1.009 7.048.386 12.266-1.469l.48-.174c.713-.27 4.047-1.575 4.849-1.818 1.687-.51 2.837-.467 3.672.422a.855.855 0 0 1-1.185 1.232l-.063-.061c-.246-.262-.755-.293-1.779.001l-.15.044c-.771.233-4.387 1.652-4.855 1.823-5.636 2.057-7.547 2.778-13.542 1.683-5.941-1.085-10.982-2.71-13.818-8.293-2.465-4.852-3.333-10.382-2.372-14.884 1.161-5.441 3.313-9.58 6.561-12.588 2.544-2.355 5.077-3.844 7.617-4.287ZM249.004 78.983c-4.877-.249-8.717 3.517-8.757 8.573-.034 4.26 2.365 7.768 5.661 8.448 1.333.274 3.892-.056 5.79-1.12 2.883-1.546 5.086-4.724 5.364-7.432.453-4.41-3.119-8.216-8.058-8.469ZM160.636 78.093c1.558 3.146 3.977 10.412 2.93 10.377-2.906-.097-6.794-4.563-9.513-10.602l-.215-.485c-2.374-5.483-3.796-8.928-2.145-9.587 1.708-.683 5.728 3.803 8.943 10.297Z" fill="#fff"/><path fill-rule="evenodd" clip-rule="evenodd" d="M151.693 67.727c1.708-.682 5.787 3.599 9.002 10.092 1.558 3.146 2.614 6.164 2.89 8.328 0 0-5.26-11.084-8.469-15.144-1.233-1.56-3.423-3.276-3.423-3.276Z" fill="#E7EAEE"/><path d="M150.797 95.642a.855.855 0 1 1 1.649.454c-.161.586-2.427 2.123-7.371 5.171l-3.12 1.909c-6.161 3.751-10.272 6.151-10.786 6.151-3.401 0-6.466-3.209-8.704-8.272-1.954-4.421-2.968-9.683-2.51-13.132.143-1.076 3.729-3.862 9.266-7.595l.793-.532c4.898-3.263 9.085-5.683 10.6-5.989a.856.856 0 0 1 1.008.67c.058.29-13.444 11.67-14.763 19.224-.893 5.115 2.483 13.832 4.159 13.911l.151.004c-.136 0-.092-.032-.076-.041l.154-.08c.114-.059.249-.132.404-.217l.712-.398c.272-.155.576-.329.907-.52l.849-.493a441.134 441.134 0 0 0 5.707-3.4l1.962-1.192a325.715 325.715 0 0 0 6.161-3.846l.834-.542c.517-.34.954-.633 1.303-.876l.127-.088c.192-.136.352-.253.477-.349 0 0 .141-.056.107.068Z" fill="#fff"/><path fill-rule="evenodd" clip-rule="evenodd" d="M152.493 78.57c-2.067-4.589-2.981-8.795-2.289-11.342-1.25.398-2.814 1.112-4.366 2.003-2.063 1.183-3.701 2.506-3.739 2.793-.399 3.002 1.132 8.843 3.676 14.05 2.72 5.57 5.957 9.147 8.463 9.147.239 0 .926-.142 1.614-.382.979-.342 1.896-.84 2.647-1.493.374-.324.76-.691 1.164-1.1l.487-.503c.287-.304.583-.63 1.045-1.148l.644-.72.027-.03c-3.223-1.177-6.594-5.33-9.116-10.713l-.257-.561Zm-12.09-6.771c.266-2.003 7.764-6.332 11.186-6.612.143-.09.296-.167.46-.232 2.963-1.184 7.478 3.888 11.1 11.025l.249.495c1.635 3.302 2.75 6.488 3.054 8.871.363 2.848-.462 4.736-2.624 4.833a.853.853 0 0 1-.398.525l-.034.017-.084.084a13.81 13.81 0 0 0-.339.367l-1.062 1.186c-.386.425-.66.714-1.03 1.09-.433.438-.851.834-1.26 1.19-1.656 1.438-4.104 2.294-5.383 2.294-.679 0-1.365-.158-2.052-.46-.734.767-2.994 2.257-7.111 4.795l-3.12 1.91c-6.161 3.75-10.272 6.15-10.786 6.15-1.165 0-2.29-.377-3.356-1.075l-.031.02-.435.28c-1.514.982-3.935 2.614-6.181 4.128l-.001.001-.001.001-.001.001-.002.001-.001.001-.141.095c.291 2.077.953 4.16 1.988 6.25 3.674-1.136 6.584-1.52 7.424-.665.877.892 1.659 2.509 2.4 4.879a.856.856 0 1 1-1.633.511c-.641-2.051-1.295-3.43-1.913-4.113l-.026-.026-.022.001a2.53 2.53 0 0 0-.516-.032c-.493.01-1.167.097-1.972.256-1.655.328-3.748.938-5.825 1.705-4.75 1.752-8.416 3.923-9.17 5.568-.22.482-.192 1.187.072 2.266l.049.194c.039.153.081.304.135.496l.309 1.093.041.159a.856.856 0 0 1-1.656.43l-.152-.554-.253-.892a15.73 15.73 0 0 1-.08-.303c-.401-1.545-.466-2.628-.02-3.601.755-1.65 3.118-3.358 6.408-4.912l-.716-1.848-.176-.468a30.408 30.408 0 0 1-.78-2.438c-2.57 1.385-4.36 1.617-6.154.64l-.139-.078a7.338 7.338 0 0 1-1.042-.731l-10.025 6.09.282.607c.45.965-.344 1.648-1.56 2.18l-.132.055c-1.046.434-1.99.533-2.552-.084-2.331-2.559-4.8-8.68-3.471-10.08.255-.269.928-.669 2.2-1.337l.102-.052c.026-.018.053-.035.081-.051l9.372-5.077c.022-.012.044-.022.066-.032a331.646 331.646 0 0 1-1.915-3.212.853.853 0 0 1 .152-1.082c1.927-1.827 4.552-3.732 7.845-5.784l.399-.247c1.426-.879 4.315-2.527 6.771-3.927l.001-.001h.001c1.905-1.087 3.548-2.024 4.043-2.337l.12-.08a.852.852 0 0 1 .596-.16c-.163-1.484-.177-2.863-.021-4.033.143-1.076 3.729-3.862 9.265-7.595l.794-.532c4.64-3.091 8.643-5.426 10.339-5.923a10.966 10.966 0 0 1 .05-2.074Zm.137 3.809c-1.662.607-5.823 3.077-10.363 6.138l-.727.494c-2.044 1.394-3.931 2.753-5.357 3.861l-.396.31a25.88 25.88 0 0 0-1.525 1.288 6.472 6.472 0 0 0-.439.443l-.073.086c-.015.017-.02.01-.014-.043l.005-.036-.005.035-.022.184c-.823 7.22 4.397 19.009 9.394 19.244l.117.003.034.001-.034-.001c-.094-.005-.057-.032-.042-.04l.154-.079.404-.218.712-.398c.272-.155.575-.328.907-.52l.849-.493a434.864 434.864 0 0 0 5.706-3.4l1.962-1.192a322.469 322.469 0 0 0 6.162-3.846l.834-.542c.517-.339.954-.633 1.303-.876l.127-.088c.185-.13.339-.244.462-.337-2.203-1.617-4.373-4.604-6.299-8.48l-.139-.281c-1.856-3.8-3.198-7.916-3.697-11.217Zm-20.328 18.006c-.617.389-2.438 1.429-4.464 2.585-2.4 1.371-5.089 2.907-6.406 3.718-3.109 1.917-5.616 3.694-7.477 5.367l.616 1.04c2.698 4.526 4.26 6.908 5.517 8.254-.418-.991-.634-2.247-.634-3.823 0-.073.009-.143.026-.211a.855.855 0 0 1 .323-.899l.583-.433c.348-.264.919-.7 1.57-1.197l.005-.004.003-.003c1.431-1.093 3.238-2.475 3.883-2.937 2.029-1.453 3.524-2.268 4.886-2.551.65-.135 1.156.249 1.302.845l.024.109c.034.177.04.351.04.732l-.001.121c-.007 1.424.134 2.245.737 3.194.413.649 1.019 1.242 1.863 1.772a.874.874 0 0 1 .224.203 279.053 279.053 0 0 1 3.58-2.376c-1.484-1.437-2.82-3.516-3.947-6.065a32.628 32.628 0 0 1-2.253-7.44Zm44.543-8.051c-.276-2.165-1.333-5.183-2.89-8.329-3.215-6.493-7.473-11.373-9.181-10.69-1.652.66-1.22 5.356 1.154 10.839l.215.485c2.719 6.04 6.607 10.505 9.513 10.603 1.046.034 1.455-.82 1.189-2.908Zm-61.908 24.669c1.484 2.4 2.568 3.985 3.513 5.087l-9.505 5.773a210.674 210.674 0 0 1-2.69-6.139l8.547-4.631a.793.793 0 0 0 .135-.09Zm18.519 9.338c-.922-1.908-1.559-3.821-1.909-5.737a282.038 282.038 0 0 1-2.984 1.988c.117.59.555 1.991.932 2.987l.702 1.807.066.176c.69-.291 1.411-.575 2.158-.851l.494-.179c.182-.065.362-.129.541-.191Zm-.031-9.067c-.876-.608-1.547-1.299-2.034-2.065-.788-1.24-.995-2.298-1.004-3.898v-.143l-.121.045c-.868.337-1.903.946-3.203 1.864l-.219.156c-.619.444-2.38 1.789-3.801 2.875l-.002.001v.001l-.001.001-.003.001-.003.003c-.787.602-1.469 1.123-1.793 1.365l-.076.056c.001 2.846.712 4.152 2.033 4.786l.106.048c.315.14.539.21 1.181.386a.421.421 0 0 1 .038.011c.667-.224 1.43-.598 2.342-1.133l.34-.204c.753-.469 2.774-1.833 4.998-3.332v-.001l1.222-.823Zm-28.681 5.268.13.312a219.078 219.078 0 0 0 2.925 6.614l.416.903a3.403 3.403 0 0 1-.513.276c-.284.124-.572.21-.788.24l-.07.007-.103-.125c-.81-.997-1.75-2.691-2.43-4.376-.36-.897-.618-1.72-.735-2.352a3.472 3.472 0 0 1-.067-.638l.005-.108c.002-.027.002-.04-.005-.042l.026-.018c.144-.099.514-.316 1.063-.614l.145-.079Zm11.8-1.885a.856.856 0 0 0-1.21-.011c-.593.582-1.425 1.124-2.877 1.93l-1.477.82c-.39.222-.71.414-1 .602a9.755 9.755 0 0 0-.652.458.856.856 0 0 0 1.046 1.354c.154-.119.332-.244.537-.377.19-.122.397-.249.637-.39l.471-.27 1.501-.831c1.443-.81 2.311-1.388 3.012-2.075a.856.856 0 0 0 .012-1.21Z" fill="#00160A"/><path d="M85.32 200.757c4.277 23.85 20.31 41.78 40.769 46.007 3.756.776 10.259.878 16.993.006 8.676-1.123 17.119-3.698 24.545-7.873 20.4-10.964 35.879-33.339 37.885-52.927 1.763-17.206-4.811-33.1-16.71-44.44 0 0-37.38 18.36-55.729 28.796-15.967 9.081-47.754 30.431-47.754 30.431ZM172.372 129.634c-7.667-3.783-17.273-6.772-26.693-7.253-34.548-1.767-61.72 25.832-62.002 61.43 0 0 38.558-24.56 58.591-36.41 9.966-5.895 30.104-17.767 30.104-17.767Z" fill="#fff"/><path fill-rule="evenodd" clip-rule="evenodd" d="M243.432 111.491c-.116 5.948-6.409 15.847-16.526 27.049-7.329 8.115-15.857 15.959-23.007 21.244l-.445.326.296 1.313c1.738 7.621 4.008 15.905 3.151 24.259-2.082 20.277-17.942 43.153-38.901 54.393-7.644 4.288-16.332 6.933-25.245 8.084l-.85.105c-6.645.783-13.005.653-16.891-.148-15.085-3.11-27.856-13.655-35.577-28.916a.864.864 0 0 1-.061-.157c-1.017.579-2.384 1.228-3.009 1.439l-1.711.579c-18.441 6.202-36.724 11.392-44.192 8.153-2.843-1.233-3.815-3.604-2.626-6.79 1.155-3.096 4.36-7.086 9.735-12.05l.295-.272c5.094-4.669 16.406-13.202 33.935-25.597l.005-.228c.855-36.728 29.385-64.728 65.246-62.442 10.968.699 19.704 4.597 24.066 6.99l1.919-1.029c17.996-9.623 32.435-16.386 43.452-20.435 18.117-6.657 27.077-3.545 26.941 4.13Zm-26.351-.184c-20.259 7.444-52.276 24.187-96.853 51.12l-1.354.819c-34.711 21.012-57.696 36.976-69.85 48.117l-.599.553-.568.533c-9.123 8.62-10.74 13.449-6.713 15.195 6.895 2.99 25.41-2.05 43.542-7.998l1.681-.554c1.617-.536 2.69-.843 3.353-.985a.858.858 0 0 1 .794-.089c.048.009.079.024.095.044.148.08.273.204.355.366 7.495 14.815 19.846 23.843 34.395 26.842 3.777.779 10.149.893 16.779.073l.398-.05c8.707-1.125 17.188-2.537 24.642-6.718 20.481-10.984 35.998-33.366 38.021-53.067.864-8.42-.239-16.685-3.171-24.377-.242.169-.482.335-.721.497-.45.307-.282-.19.504-1.491a.856.856 0 0 1 .27-.441l.243-.384.267-.417 1.014-.855c9.556-8.082 16.9-14.965 22.031-20.646l.586-.652c9.494-10.625 15.396-20.011 15.494-25.282.106-5.783-7.523-6.442-24.635-.153Zm-85.9 108.183c2.295 7.015-1.177 11.527-7.29 11.76-5.647.216-10.79-3.343-10.528-8.4.226-4.371 3.219-9.043 6.903-10.759 4.456-2.075 8.638.442 10.915 7.399Zm-10.012-5.461c-2.948 1.374-5.484 5.333-5.67 8.931-.186 3.584 3.776 6.326 8.311 6.153 4.741-.181 7.175-3.344 5.338-8.958-1.913-5.846-4.821-7.596-7.979-6.126Zm56.678-8.834c2.928 5.534 2.162 10.97-2.342 13.407l-.126.067-.065.065c-6.039 5.98-13.583 6.705-18.502 2.371l-.169-.152c-5.667-5.191-4.317-14.109 4.7-21.101 5.803-4.499 12.892-1.482 16.504 5.343Zm-15.38-3.894c-8.187 6.347-9.337 13.948-4.586 18.301 3.408 3.121 8.443 3.294 13.146.264l.092-.061-.035-.007a.918.918 0 0 1-.661-.691l-.014-.087a.915.915 0 0 1 .802-1.018c1.15-.137 2.148-.414 2.994-.811l.115-.057.141-.145a23.425 23.425 0 0 0 1.612-1.896l.174-.23a.915.915 0 0 1 .809-.365l.024.002.012-.023c1.098-2.17.838-5.11-.769-8.24l-.096-.185c-3.141-5.934-9.012-8.433-13.76-4.751Zm54.512-65.78c-.471 1.674-1.905 3.97-4.103 6.69-3.831 4.742-9.586 10.26-14.617 14.034l1.116-1.227a.139.139 0 0 1-.028-.038l-.385-.707c-2.518-4.596-5.323-9.128-9.855-12.823-11.733 4.837-25.185 11.449-37.441 18.363l-4.018 2.271c-29.584 16.759-45.149 26.792-61.793 39.125.628 2.83 1.42 5.59 2.368 8.265.149.42-1.795 1.991-2.15 1.797-3.321 2.225-8.52 3.841-11.48 3.925-2.886.082-4.552-1.086-3.694-3.415.719-1.948 3.424-4.726 8.293-8.449l.556-.421 1.122-.844c18.326-13.719 36.468-24.853 69.955-43.744l1.402-.786c22.967-12.821 49.564-24.371 61.746-25.437 2.504-.219 3.64 1.167 3.006 3.421ZM83.626 202.869l-3.84 2.897c-3.424 2.598-5.894 4.519-7.228 5.751l-.098.091c-1.628 1.527.215 1.931 2.084 1.878 2.83-.081 7.166-2.227 10.836-4.18a72.433 72.433 0 0 1-1.754-6.437Zm60.059-9.288a.855.855 0 1 1-.421 1.658c-2.3-.584-3.659-.36-4.1.26-.292.411-.13 1.111.417 1.559.427.349.996.516 1.388.431.34-.074.531-.336.531-.993a.855.855 0 1 1 1.711 0c0 1.428-.715 2.412-1.878 2.665-.936.203-2.026-.117-2.836-.779-1.195-.978-1.586-2.668-.727-3.875.942-1.324 3.007-1.665 5.915-.926Zm-37.576-3.141c1.319.396 1.887 1.409 2.066 2.928l.018.165.022.25.009.13.045.869.013.195c.007.086.015.157.023.219l.023.131.014.057.024.022a.854.854 0 0 1 .163.998l-.043.076a.856.856 0 0 1-1.183.255c-.546-.352-.67-.715-.737-1.755l-.054-1.019a7.499 7.499 0 0 0-.022-.262c-.097-.996-.34-1.46-.872-1.62-1.495-.447-2.352.01-2.624 1.008-.242.89.108 1.826.721 2.085l.156.058a.856.856 0 0 1-.597 1.601c-1.629-.519-2.403-2.454-1.931-4.193.528-1.94 2.362-2.918 4.766-2.198Zm61.717-13.098c2.368 3.33 1.928 7.567-1.873 9.485a.856.856 0 0 1-.77-1.528c2.751-1.388 3.066-4.411 1.248-6.966-1.765-2.482-4.222-2.755-5.911-.073-1.79 2.843-1.66 4.512-.371 5.264 1.023.596 2.671.471 3.124-.017l.044-.053a.854.854 0 1 1 1.393.992c-.951 1.336-3.664 1.581-5.423.556-2.252-1.313-2.467-4.077-.215-7.653 2.412-3.83 6.345-3.393 8.754-.007Zm-35.467-4.906c.444 0 .81.34.851.774l.004.082c0 .151.14.319.642.687l.475.341c.518.377.768.612 1.004.985.539.853.845 1.721.845 2.742 0 2.614-3.928 6.17-8.215 7.752-5.139 1.897-9.349.491-10.495-4.783a.855.855 0 1 1 1.672-.363c.889 4.093 3.959 5.118 8.231 3.541 3.689-1.361 7.096-4.446 7.096-6.147 0-.658-.2-1.227-.58-1.828l-.052-.072c-.087-.11-.223-.229-.468-.411l-.565-.407c-.937-.691-1.301-1.158-1.301-2.037 0-.473.383-.856.856-.856Zm4.015-47.413-.54.06c-29.19 3.511-51.089 26.858-52.283 58.189l3.132-2.204c8.99-6.311 19.425-13.519 31.305-21.625l2.314-1.399a1585.761 1585.761 0 0 1 19.827-11.774.851.851 0 0 1-.069-.688c.441-1.346.848-2.251 1.595-3.157 2.337-2.835 5.539-4.22 7.808-2.44.223.176.336.44.327.703l2.015-1.15a954.14 954.14 0 0 1 18.018-10.013l-2.213-.63c-3.283-.924-7.367-2.02-11.435-2.863.037 2.707-1.989 4.868-5.356 6.355-2.861 1.264-6.591 1.944-9.242 1.786-4.961-.296-7.753-4.647-5.203-9.15Zm51.206 37.149c2.093 5.72.366 10.92-4.861 10.886-7.447-.048-14.72-6.551-13.544-12.376.525-2.599 2.478-4.898 5.875-6.045 5.426-1.832 10.399 1.713 12.53 7.535Zm-11.982-5.914c-2.808.948-4.34 2.751-4.746 4.762-.933 4.624 5.399 10.285 11.878 10.328 3.712.024 4.988-3.82 3.243-8.588-1.847-5.045-5.975-7.988-10.375-6.502Zm-62.902-20.251.061.088.411.655c.202.332.383.658.555 1.01 1.894 3.874 1.845 8.952-1.361 16.001-1.452 3.193-5.153 7.485-8.384 10.046-4.126 3.27-7.206 4.012-10.883 3.609l-1.091-.129-.134-.012a1.487 1.487 0 0 0-.17-.004l-.075.003c-.057.003-.077 0-.08-.007v-.006l-.028.044a.856.856 0 0 1-1.449-.906c.308-.552.822-.803 1.476-.834.173-.008.356-.002.574.016l.256.025.705.086c3.35.406 6.014-.197 9.836-3.226 3.036-2.406 6.563-6.497 7.89-9.414 3-6.596 3.044-11.14 1.381-14.54a10.083 10.083 0 0 0-.352-.658l-.179-.299-.359-.568a.856.856 0 0 1 1.4-.98Zm101.426-2.202c-5.468.478-14.041 3.18-23.924 7.198l.289.255c2.75 2.468 8.3 8.32 10.036 12.494l1.731-1.919c4.269-4.748 7.366-8.314 9.292-10.697l.39-.489c1.84-2.336 3.03-4.287 3.396-5.589l.052-.198c.228-.94-.036-1.162-1.262-1.055Zm-81.91 2.779c2.129 1.029 2.994 3.32 1.593 5.398a.856.856 0 0 1-1.419-.956c.771-1.143.336-2.296-.918-2.902-1.321-.639-2.769-.271-3.516 1.123-.688 1.284-.735 3.024-.186 4.163.483 1 1.185 1.191 2.256.385a.855.855 0 1 1 1.029 1.367c-1.952 1.469-3.884.942-4.825-1.009-.789-1.635-.726-3.951.218-5.714 1.206-2.25 3.663-2.873 5.768-1.855Zm10.763 6.929c-.399.484-.684.995-.948 1.65a1433.73 1433.73 0 0 1 6.501-3.753l-.062-.036-.059-.043c-1.306-1.025-3.609-.029-5.432 2.182Zm-3.648-18.752-.748.052-.05.064c-2.957 3.737-1.818 6.77 2.22 7.201 2.9.309 10.6-1.843 11.503-2.598.88-.736 1.992-2.427 2.164-3.798-2.613-.491-5.17-.852-7.45-.969a66.181 66.181 0 0 0-6.887.004l-.752.044Z" fill="#00160A"/><path d="M216.562 111.519c18.117-6.658 17.702-4.683.59 1.605-20.259 7.445-96.73 54.092-96.73 54.092-34.711 21.012-37.308 17.769-3.664-2.678l2.074-1.258c.391-.237 38.695-24.412 66.066-37.346 3.08-1.455 29.601-13.657 31.664-14.415Z" fill="#fff"/><path fill-rule="evenodd" clip-rule="evenodd" d="M247.845 78.374c-5.614-.287-9.996 4.076-10.042 9.784-.038 4.782 2.706 8.843 6.637 9.653 1.036.214 4.023.214 6.614-1.24l.215-.118c3.267-1.85 5.489-5.37 5.787-8.265.527-5.133-3.597-9.527-9.211-9.814Zm-8.82 9.793.002-.11a.593.593 0 0 0 .102-.044c4.402-2.37 7.119-4.178 8.204-5.482.716-.862 1.066-1.834 1.037-2.89a9.463 9.463 0 0 1 2.104.477.622.622 0 0 0-.004.097c.054 1.52-.351 2.734-1.212 3.68-.99 1.086-2.188 2.12-3.551 3.096a34.894 34.894 0 0 1-4.587 2.751c-.365.184-.712.352-1.038.503l-.472.214-.189.083-.14.059a10.707 10.707 0 0 1-.256-2.434Zm.599 3.615a8.513 8.513 0 0 0 1.642 2.799l.365-.21c5.744-3.326 9.309-5.938 10.659-7.781 1.365-1.864 1.851-3.294 1.546-4.267a.863.863 0 0 1-.018-.069 8.293 8.293 0 0 0-2.123-1.602c-.034 1.615-.545 2.98-1.534 4.065-1.052 1.156-2.314 2.245-3.743 3.267a36.16 36.16 0 0 1-4.748 2.85c-.472.237-.916.449-1.324.634l-.477.211-.245.103Zm4.575 4.71a6.128 6.128 0 0 1-1.999-1.039c5.913-3.42 9.592-6.115 11.076-8.141.921-1.257 1.509-2.388 1.748-3.397.298.556.523 1.148.668 1.767a.618.618 0 0 0-.06.206c-.149 1.429-.885 2.846-2.231 4.258-1.292 1.356-4.081 3.311-8.342 5.84l-.86.505Zm2.065.197c1.312-.083 2.916-.468 4.213-1.195 2.411-1.293 4.346-3.728 5.078-6.074-.354.53-.777 1.053-1.27 1.57-1.327 1.392-3.993 3.283-8.021 5.7Zm-6.883-10.204-.218.119c.694-4.038 3.92-6.936 7.982-7.02.043.794-.203 1.506-.752 2.165-.886 1.066-3.238 2.662-7.012 4.736Z" fill="#00160A"/><path fill-rule="evenodd" clip-rule="evenodd" d="M291.957 66.665a.206.206 0 0 1 .18.23c0 .166-.108.257-.252.315-.13.052-.338.032-.458.049-1.324.102-2.364-.872-2.821-2.127-.44-1.205-.323-2.647.475-3.536a.252.252 0 0 1 .356-.023c.104.091.7.25.608.356-.658.768-1.103 1.234-.483 3.057.621 1.822 2.31 1.67 2.395 1.68Z" fill="#E7EAEE"/><path fill-rule="evenodd" clip-rule="evenodd" d="M81.266 79.717a.764.764 0 0 0-.865 1.26c.382.261.72.504 1.018.728-.321.256-.641.548-.975.882l-.675.685a.764.764 0 0 0 1.085 1.076l.81-.82c.33-.32.64-.59.95-.812.69.684.901 1.186.912 1.685v.128l.004.079a.764.764 0 0 0 1.524-.079v-.15c-.014-.778-.289-1.518-1.028-2.364.488-.145 1.038-.227 1.705-.261a.764.764 0 1 0-.08-1.526c-1.158.06-2.058.254-2.86.62a21.052 21.052 0 0 0-1.143-.864l-.382-.267ZM195.711 247.079l.53.002c2.962.028 5.275.295 9.634.994a.918.918 0 0 1-.291 1.81l-1.428-.225c-3.606-.553-5.684-.748-8.445-.748-9.578 0-15.693 5.996-14.658 15.192a.916.916 0 0 1-1.822.205c-1.164-10.343 5.86-17.23 16.48-17.23Zm7.418 3.701-.089-.079a.207.207 0 0 0-.27.315l.093.078a.206.206 0 1 0 .266-.314Zm-16.608 1.917a.764.764 0 0 0-1.074.116c-1.067 1.328-1.845 2.622-2.33 3.885-.472 1.228-.633 3.292-.51 6.242l.029.623a.764.764 0 1 0 1.526-.08c-.162-3.083-.024-5.183.381-6.238.424-1.104 1.121-2.264 2.094-3.475a.763.763 0 0 0-.116-1.073Zm8.335-2.527a.764.764 0 1 1 .703 1.356c-1.551.804-2.736 2.151-3.562 4.072-.886 2.061-1.611 3.9-2.175 5.517a.764.764 0 0 1-1.443-.503c.577-1.653 1.315-3.525 2.215-5.618.96-2.232 2.383-3.851 4.262-4.824Zm4.441-.041a.764.764 0 0 0-1.078-.071c-1.275 1.117-2.255 2.133-2.94 3.055-.681.914-1.478 2.282-2.4 4.112a.763.763 0 1 0 1.364.688c.886-1.758 1.643-3.057 2.261-3.889.614-.824 1.521-1.765 2.721-2.817a.763.763 0 0 0 .072-1.078Zm-2.789 8.626a.764.764 0 0 1-1.007-1.149c1.2-1.051 2.108-1.993 2.721-2.817.619-.831 1.376-2.131 2.262-3.889a.763.763 0 1 1 1.364.688c-.922 1.83-1.719 3.198-2.4 4.113-.686.921-1.665 1.937-2.94 3.054Zm-5.783-7.963a.764.764 0 0 0-1.062.195c-1.708 2.473-2.798 4.32-3.28 5.575-.484 1.26-.819 2.958-1.013 5.104a.764.764 0 0 0 1.522.137c.182-2.017.491-3.585.917-4.693.397-1.033 1.322-2.627 2.768-4.755l.343-.5a.765.765 0 0 0-.195-1.063ZM176.226 246.288l.526 1.17 1.2.344a.123.123 0 0 1 .084.151.126.126 0 0 1-.032.053l-.911.908.051 1.306a.121.121 0 0 1-.117.126.126.126 0 0 1-.066-.015l-1.032-.588a.121.121 0 0 0-.105-.008l-1.104.439a.122.122 0 0 1-.159-.069.124.124 0 0 1-.006-.066l.232-1.287-.776-1.025a.121.121 0 0 1 .08-.195l1.236-.174.684-1.085a.123.123 0 0 1 .215.015ZM218.726 82.542c.281.25.632.699.942 1.186l.398-.177.472-.203c.095-.043.156-.077.175-.104a.208.208 0 0 1 .367.194c-.038.096-.302.397-.794.691a3.076 3.076 0 0 1-.293.151c.181.34.324.667.39.93.101.387.021.662-.112.758-.13.096-.457.114-.955-.3a.208.208 0 0 1 .254-.328c.095.07.19.11.268.139l-.038-.149a1.087 1.087 0 0 0-.058-.162 9.463 9.463 0 0 0-.33-.647c-.39.147-.832.28-1.311.345a5.065 5.065 0 0 1-.718.035.258.258 0 0 1-.034-.515 6.788 6.788 0 0 0 1.578-.364l.154-.055c-.254-.398-.527-.758-.76-.962a.31.31 0 0 1-.028-.434.306.306 0 0 1 .433-.029Z" fill="#00160A"/><path fill-rule="evenodd" clip-rule="evenodd" d="M46.782 177.871c-1.366.09-3.532.438-5.303 1.14-1.514.602-1.514 16.952 3.664 18.256 5.148 1.717 10.777-.556 10.105-9.306-.012-.183-.16-.681-.33-1.251-.249-.836-.544-1.827-.526-2.215.07-1.374-.291-2.532-1.244-3.259-1.027-2.177-3.038-3.579-6.366-3.365Zm-.741 15.415c-2.535-1.893-2.446-10.73.447-11.321 1.8 1.384 3.442 3.382 3.997 7.231-.62 2.12-1.93 3.346-3.075 4.419-.122.114-.243.227-.36.339a9.997 9.997 0 0 1-1.01-.668Z" fill="#fff"/><path fill-rule="evenodd" clip-rule="evenodd" d="M43.1 189.43c-.23-1.375-.073-2.914.618-4.557.314-.743 1.138-1.35 2.169-1.757 1.205-.475 2.68-.712 3.609-.773 2.265-.146 3.633.803 4.331 2.274.648.492.894 1.275.846 2.204-.02.442.561 2.039.581 2.344.455 5.918-3.376 7.457-6.88 6.297-1.33.677-2.614.789-3.58.07-.866-.641-1.532-1.993-1.684-4.378-.04-.616-.044-1.19-.01-1.724Zm6.214-3.897c-2.01.394-2.094 6.196-.339 7.433.24.167.473.315.7.436.848-.765 1.48-1.383 1.84-2.648.358-1.266-.955-4.317-2.201-5.221Z" fill="#FFB61D"/><path fill-rule="evenodd" clip-rule="evenodd" d="M128.537 276.695a.763.763 0 1 0-.864 1.259c.382.262.719.504 1.017.729-.321.256-.641.548-.974.881l-.676.686a.763.763 0 1 0 1.085 1.076l.81-.82c.33-.321.639-.589.95-.813.691.685.901 1.187.913 1.686v.128l.004.078a.764.764 0 0 0 1.523-.078v-.15c-.014-.778-.289-1.518-1.028-2.364.488-.145 1.038-.227 1.706-.262a.764.764 0 1 0-.08-1.525c-1.158.06-2.059.253-2.861.62a21.304 21.304 0 0 0-1.142-.865l-.383-.266Z" fill="#00160A"/><path fill-rule="evenodd" clip-rule="evenodd" d="M128.537 276.695a.763.763 0 1 0-.864 1.259c.382.262.719.504 1.017.729-.321.256-.641.548-.974.881l-.676.686a.763.763 0 1 0 1.085 1.076l.81-.82c.33-.321.639-.589.95-.813.691.685.901 1.187.913 1.686v.128l.004.078a.764.764 0 0 0 1.523-.078v-.15c-.014-.778-.289-1.518-1.028-2.364.488-.145 1.038-.227 1.706-.262a.764.764 0 1 0-.08-1.525c-1.158.06-2.059.253-2.861.62a21.304 21.304 0 0 0-1.142-.865l-.383-.266ZM154.641 255.77l.526 1.17 1.2.344a.123.123 0 0 1 .084.151.126.126 0 0 1-.032.053l-.911.908.051 1.306a.122.122 0 0 1-.183.11l-1.032-.587a.121.121 0 0 0-.105-.008l-1.104.439a.122.122 0 0 1-.166-.136l.233-1.286-.777-1.025a.122.122 0 0 1 .081-.195l1.236-.174.684-1.085a.122.122 0 0 1 .168-.038.12.12 0 0 1 .047.053ZM88.425 247.733l.895.919 1.245-.086a.122.122 0 0 1 .12.174l-.547 1.164.495 1.21a.122.122 0 0 1-.067.159.127.127 0 0 1-.067.008l-1.17-.2a.125.125 0 0 0-.102.029l-.888.79a.122.122 0 0 1-.201-.071l-.222-1.288-1.08-.698a.122.122 0 0 1 .009-.21l1.102-.587.272-1.253a.123.123 0 0 1 .207-.06ZM74.456 163.976l.526 1.169 1.2.345a.122.122 0 0 1 .052.204l-.911.907.05 1.306a.122.122 0 0 1-.182.111l-1.032-.587a.12.12 0 0 0-.106-.008l-1.103.439a.123.123 0 0 1-.166-.136l.233-1.286-.777-1.025a.123.123 0 0 1 .024-.172.129.129 0 0 1 .057-.023l1.236-.174.684-1.085a.122.122 0 0 1 .215.015Z" fill="#00160A"/><path fill-rule="evenodd" clip-rule="evenodd" d="m74.333 165.141.224.497.51.146a.052.052 0 0 1 .022.086l-.388.386.022.555a.053.053 0 0 1-.05.054.054.054 0 0 1-.028-.007l-.438-.25a.05.05 0 0 0-.045-.003l-.469.186a.051.051 0 0 1-.067-.029.051.051 0 0 1-.003-.028l.099-.547-.33-.435a.052.052 0 0 1 .034-.083l.525-.074.29-.461a.052.052 0 0 1 .072-.016.053.053 0 0 1 .02.023Z" fill="#E7EAEE"/><path fill-rule="evenodd" clip-rule="evenodd" d="m11.887 215.292.526 1.169 1.2.345a.122.122 0 0 1 .052.204l-.911.907.05 1.306a.122.122 0 0 1-.182.111l-1.032-.587a.12.12 0 0 0-.105-.008l-1.104.439a.123.123 0 0 1-.165-.136l.232-1.286-.776-1.025a.123.123 0 0 1 .023-.172.129.129 0 0 1 .057-.023l1.236-.174.684-1.085a.122.122 0 0 1 .215.015ZM64.769 110.268l.382.267c.429.304 2.03 1.814 2.366 2.088.8-.368 1.7-.561 2.86-.622a.764.764 0 0 1 .08 1.526c-.668.035-1.219.116-1.707.262.74.846 1.014 1.586 1.028 2.363v.151a.764.764 0 0 1-1.523.078l-.004-.078v-.128c-.011-.499-.222-1.002-.912-1.686-.311.223-.62.492-.95.813l-.81.819a.763.763 0 1 1-1.085-1.075l.675-.686c.333-.333.654-.626.975-.881-.564-1.287-2.676-2.666-2.437-3.014a.764.764 0 0 1 1.062-.197ZM212.133 198.354l1.04.75 1.212-.302a.122.122 0 0 1 .148.089.126.126 0 0 1-.001.061l-.336 1.242.698 1.106a.122.122 0 0 1-.103.187l-1.188.007a.121.121 0 0 0-.095.046l-.736.932a.122.122 0 0 1-.211-.035l-.442-1.23-1.185-.5a.12.12 0 0 1-.065-.16.11.11 0 0 1 .037-.048l.983-.769.05-1.282a.123.123 0 0 1 .194-.094ZM224.086 150.485l.315 1.243 1.122.548a.12.12 0 0 1 .056.163.121.121 0 0 1-.04.047l-1.055.735-.177 1.295a.122.122 0 0 1-.199.078l-.914-.758a.12.12 0 0 0-.103-.026l-1.163.24a.122.122 0 0 1-.139-.162l.452-1.226-.586-1.145a.121.121 0 0 1 .053-.164.113.113 0 0 1 .06-.014l1.247.043.862-.949a.123.123 0 0 1 .173-.009.13.13 0 0 1 .036.061ZM196.865 100.45l.315 1.243 1.122.547c.06.03.086.103.056.164a.126.126 0 0 1-.04.046l-1.055.736-.177 1.295a.121.121 0 0 1-.137.104.12.12 0 0 1-.062-.027l-.914-.758a.123.123 0 0 0-.103-.025l-1.163.24a.122.122 0 0 1-.139-.162l.452-1.226-.587-1.145a.124.124 0 0 1 .053-.165.128.128 0 0 1 .06-.013l1.248.043.862-.95a.123.123 0 0 1 .209.053ZM277.284 112.631l.464-.041c.524-.043 1-.067 1.433-.072.377-.797.942-1.523 1.791-2.314a.762.762 0 1 1 1.041 1.117c-.488.456-.858.872-1.138 1.298 1.11.172 1.796.562 2.307 1.149l.097.115a.763.763 0 0 1-1.117 1.039l-.054-.057-.082-.098c-.329-.375-.813-.625-1.782-.705a8.312 8.312 0 0 0-.205 1.233l-.094 1.149a.764.764 0 0 1-1.523-.127l.077-.959c.041-.47.098-.9.18-1.302-.372.019-.787.051-1.248.096a.764.764 0 0 1-.147-1.521Z" fill="#00160A"/><path fill-rule="evenodd" clip-rule="evenodd" d="M215.608 165.355c-.138.349-.44.833-.792 1.29l.303.314.351.374.078.075c.034.03.061.048.08.053a.208.208 0 0 1-.057.412c-.102-.003-.476-.148-.921-.51a3.238 3.238 0 0 1-.242-.223c-.257.286-.516.532-.74.684-.329.228-.615.246-.751.154-.134-.09-.263-.391-.045-1a.207.207 0 1 1 .395.127 1.044 1.044 0 0 0-.038.299l.126-.087c.045-.032.091-.068.133-.11.153-.15.323-.333.495-.531a5.943 5.943 0 0 1-.772-1.114 4.979 4.979 0 0 1-.279-.662.259.259 0 0 1 .472-.208c.249.522.568.972.882 1.357l.105.126c.286-.375.532-.754.644-1.043a.307.307 0 1 1 .573.223Z" fill="#E7EAEE"/><path fill-rule="evenodd" clip-rule="evenodd" d="M208.151 9.694a.855.855 0 1 1 .293 1.686c-2.214.385-4.878 1.709-7.179 3.84-2.989 2.767-5.194 6.673-6.282 11.771-.877 4.108-.071 9.516 2.221 14.029 2.608 5.133 6.799 8.623 12.178 9.606 5.522 1.008 10.194.382 15.411-1.473l.481-.175c.151-.057.42-.16.758-.291l.008-.003h.001c1.257-.485 3.451-1.332 4.081-1.523 1.687-.51 2.838-.467 3.672.422a.854.854 0 0 1-1.184 1.232l-.063-.061c-.246-.262-.755-.293-1.779 0l-.15.045c-.556.168-2.589.952-3.857 1.44v.001c-.491.19-.867.334-.998.382-5.636 2.057-10.693 2.782-16.688 1.687-5.941-1.085-10.56-4.931-13.396-10.515-2.465-4.852-3.33-10.658-2.369-15.16 1.162-5.441 3.543-9.661 6.792-12.67 2.543-2.354 5.509-3.827 8.049-4.27Zm5.785 4.133a.855.855 0 1 1 .329 1.679 18.05 18.05 0 0 0-14.126 13.658c-.547 2.37-.382 4.298.155 5.034l.071.092.006.013.01-.008c.192-.174.417-.617.592-1.304l.036-.151a19.753 19.753 0 0 1 14.171-14.654.856.856 0 0 1 .441 1.653 18.044 18.044 0 0 0-12.88 13.112l-.065.273c-.586 2.541-2.271 3.754-3.635 2.146-.998-1.177-1.243-3.673-.569-6.59a19.759 19.759 0 0 1 15.464-14.953Zm10.288 9.39a.855.855 0 0 0-.914-.793 21.326 21.326 0 0 0-18.532 13.983c-1.102 3.029-1.168 5.722-.266 7.095 1.211 1.843 3.115.798 4.065-1.811l.099-.268a19.61 19.61 0 0 1 15.637-12.456.856.856 0 0 0-.236-1.694 21.318 21.318 0 0 0-17.108 13.833l-.06.16c-.304.78-.636 1.251-.888 1.39l-.011.007-.004.004-.002.001-.002.001a.505.505 0 0 0-.06-.106l-.045-.075c-.497-.88-.421-2.997.489-5.496a19.615 19.615 0 0 1 17.046-12.862.855.855 0 0 0 .792-.914Zm3.726 8.315a.855.855 0 1 1 .122 1.707 13.754 13.754 0 0 0-11.952 9.017c-.555 1.526-.658 2.83-.46 3.492l.025.073.038-.054c.095-.145.203-.353.308-.623l.045-.12a15.459 15.459 0 0 1 12.404-10.03.856.856 0 0 1 .237 1.695 13.746 13.746 0 0 0-10.943 8.68l-.09.24c-.734 2.017-2.321 2.888-3.335 1.344-.696-1.058-.647-3.055.163-5.282a15.465 15.465 0 0 1 13.438-10.139Zm4.509 6.893a.856.856 0 0 0-.915-.793 10.357 10.357 0 0 0-8.999 6.79c-.556 1.528-.59 2.919-.075 3.702.843 1.284 2.154.564 2.7-.936l.074-.197a8.643 8.643 0 0 1 6.862-5.41.856.856 0 1 0-.237-1.695l-.217.032a10.352 10.352 0 0 0-7.656 5.666l-.052.108.032-.123a6.4 6.4 0 0 1 .177-.562 8.645 8.645 0 0 1 7.513-5.668.856.856 0 0 0 .793-.914Z" fill="#00160A"/><path fill-rule="evenodd" clip-rule="evenodd" d="M227.95 31.532a.856.856 0 0 1 .122 1.707 13.754 13.754 0 0 0-11.952 9.017c-.555 1.526-.659 2.83-.46 3.492l.025.073.037-.054c.096-.145.203-.353.309-.623l.045-.12a15.458 15.458 0 0 1 12.404-10.03.856.856 0 0 1 .237 1.695 13.747 13.747 0 0 0-10.943 8.68l-.09.24c-.734 2.017-2.321 2.888-3.336 1.344-.695-1.058-.646-3.055.164-5.282a15.465 15.465 0 0 1 13.438-10.139Z" fill="#00160A"/><path d="M174.675 142.908c17.934-8.389 32.928-12.82 42.263-13.633 2.859-.25 4.156 1.327 3.432 3.89-.538 1.904-2.175 4.516-4.684 7.609-4.374 5.393-10.142 10.008-15.886 14.3 9.189-8.481 11.533-12.029 14.367-15.523l.445-.555c2.101-2.657 3.459-4.877 3.877-6.358l.06-.225c.26-1.069-.041-1.322-1.441-1.2-9.124.795-24.061 5.235-41.929 13.612-17.897 8.391-18.409 6.458-.504-1.917ZM92.654 115.771l.13.312a219.974 219.974 0 0 0 2.925 6.615l.416.902a3.403 3.403 0 0 1-.513.276c-.284.124-.572.21-.788.24l-.07.007-.103-.125c-.81-.997-1.75-2.691-2.43-4.376-.36-.897-.618-1.72-.735-2.352a3.464 3.464 0 0 1-.067-.638l.005-.108c.002-.027.002-.04-.005-.042l.026-.018c.145-.099.514-.316 1.063-.614l.146-.079Z" fill="#fff"/><path fill-rule="evenodd" clip-rule="evenodd" d="M115.325 107.967c.561-.687 1.289-.584 2.211-.025l.237.149.662.439c.186.119.266.16.374.203a.489.489 0 0 1-.362.909l-.089-.037c-.169-.073-.297-.148-.641-.376l-.475-.317a7.211 7.211 0 0 0-.213-.134c-.552-.335-.802-.37-.947-.192-.092.112-.069.351.112.84l.2.514c.396 1.053.399 1.523-.308 1.925-.608.346-.919.184-1.792-.672l-.212-.209c-.559-.559-.853-.753-1.041-.713-.063.013-.136.057-.226.153-.104.111-.134.468-.07 1.102l.099.827c.115 1.012.068 1.274-.349 1.553-.575.385-1.34-.05-2.758-1.323a.489.489 0 0 1 .653-.728c.606.545 1.064.899 1.384 1.081l.071.039.06.03.001-.061-.003-.147a8.385 8.385 0 0 0-.052-.511l-.062-.508c-.119-1.03-.082-1.602.313-2.023.22-.234.466-.384.736-.441.628-.133 1.074.136 1.815.86l.374.368c.403.387.553.486.576.473.092-.052.078-.214-.17-.85l-.108-.275c-.346-.888-.412-1.42 0-1.923ZM168.69 28.404l-.465.041a.763.763 0 0 0-.311 1.42l-.081.057a.765.765 0 0 0 .882 1.248l.785-.556c-.023.18-.043.365-.06.558l-.076.96a.764.764 0 0 0 1.522.126l.095-1.149c.024-.246.054-.476.091-.694.269.509.322.9.265 1.271l-.022.127-.009.077a.763.763 0 0 0 1.514.188l.026-.148a3.142 3.142 0 0 0-.165-1.61c.109.078.203.165.287.26l.082.099.053.057a.764.764 0 0 0 1.117-1.04l-.096-.114a4.198 4.198 0 0 0-.106-.116.764.764 0 0 0 .137-1.52c-.72-.089-1.349-.109-1.929-.057.208-.244.449-.492.729-.754a.763.763 0 1 0-1.041-1.117c-.518.482-.93.94-1.259 1.406-.127-.135-.26-.273-.4-.414l-.33-.33a.764.764 0 1 0-1.07 1.09c.209.206.402.4.58.584-.237.012-.485.029-.745.05Z" fill="#00160A"/><path fill-rule="evenodd" clip-rule="evenodd" d="M140.184 33.922a.778.778 0 0 0-1.134.02.864.864 0 0 0 .001 1.184c.298.305.563.587.801.85-.502.213-1.007.489-1.546.83l-.819.524a.688.688 0 0 0-.176 1.024.868.868 0 0 0 1.127.194l.982-.627c.513-.314.975-.551 1.44-.718.706.982.854 1.61.764 2.194l-.024.139-.011.085c-.033.423.245.807.653.88.436.076.854-.231.934-.687l.029-.163c.134-.846-.01-1.699-.616-2.752.411-.006.86.024 1.368.09.443.056.84-.225.888-.627.047-.403-.274-.776-.716-.832-.971-.124-1.785-.139-2.53-.038a22.22 22.22 0 0 0-1.071-1.212l-.344-.358Z" fill="#E7EAEE"/><path fill-rule="evenodd" clip-rule="evenodd" d="m40.826 161.027.526 1.169 1.2.345a.122.122 0 0 1 .053.204l-.912.907.051 1.306a.122.122 0 0 1-.182.111l-1.032-.588a.122.122 0 0 0-.106-.007l-1.104.438a.122.122 0 0 1-.165-.135l.232-1.286-.776-1.026a.122.122 0 0 1 .08-.194l1.236-.174.684-1.085a.122.122 0 0 1 .215.015ZM47.844 96.11l.527 1.17 1.2.344a.122.122 0 0 1 .052.204l-.912.907.051 1.306a.122.122 0 0 1-.182.111l-1.032-.588a.122.122 0 0 0-.106-.007l-1.103.439a.123.123 0 0 1-.166-.136l.232-1.286-.776-1.025a.122.122 0 0 1 .08-.195l1.236-.174.684-1.085a.122.122 0 0 1 .215.015Z" fill="#00160A"/><path d="M63.741 199.465a.877.877 0 0 1 1.225.194c.285.392-12.126 10.501-16.94 15.134l-.56.543c-2.75 2.69-4.778 5.02-5.92 6.862-1.212 1.952-1.29 3.012-.507 3.445 2.966 1.644 7.231 2.445 13.34 1.434l.627-.107c2.325-.408 19.816-4.222 19.539-4.121l-.108.032c-.551.146-7.673 2.609-10.131 3.235l-.297.075c-3.758.945-6.699 1.593-9.344 2.032-6.464 1.07-11.082.836-14.477-1.045-1.959-1.086-1.803-3.214-.133-5.905 1.313-2.116 3.622-4.731 6.754-7.744 4.879-4.695 11.741-10.295 16.932-14.064Z" fill="#fff"/></svg>