<svg width="306" height="287" viewBox="0 0 306 287" fill="none" xmlns="http://www.w3.org/2000/svg">
<path fill-rule="evenodd" clip-rule="evenodd" d="M21.617 137.166C21.617 137.166 8.61654 126.06 26.8553 87.7156C45.0941 49.3711 82.0311 57.7755 105.641 42.6932C140.526 20.4084 126.227 2.96883 169.726 0.157741C224.493 -3.38163 227.595 53.8149 254.996 53.8149C256.798 53.8149 299.467 36.6701 305.712 83.6049C308.857 107.242 254.996 143.286 254.996 143.286C254.996 143.286 232.579 163.605 231.348 173.639C226.186 215.718 236.952 263.913 116.299 286.1C100.695 288.97 74.7842 278.59 60.4896 259.417C49.2907 244.396 4.36748 255.053 0.174025 205.668C-1.93956 180.778 21.617 137.166 21.617 137.166Z" fill="#5CC8FF"/>
<path d="M102.096 103.803C102.503 103.563 103.027 103.698 103.267 104.105L104.236 105.739C108.081 112.191 109.619 114.286 111.254 115.233C112.598 116.011 113.987 115.77 116.53 114.278L116.869 114.074C118.469 113.077 125.787 108.05 128.617 106.245C129.015 105.991 129.544 106.108 129.798 106.506C130.052 106.904 129.935 107.433 129.537 107.687L129.102 107.968C125.948 110.012 118.865 114.876 117.611 115.626C114.532 117.467 112.536 117.881 110.536 116.791L110.396 116.713C108.247 115.468 106.576 113.079 101.794 104.975C101.554 104.568 101.689 104.043 102.096 103.803Z" fill="white"/>
<path d="M115.95 113.691C116.418 113.628 116.848 113.957 116.911 114.425C117.202 116.602 117.9 118.784 119.008 120.974C119.221 121.396 119.052 121.91 118.631 122.123C118.209 122.337 117.695 122.168 117.481 121.746C116.289 119.389 115.533 117.024 115.215 114.653C115.152 114.184 115.481 113.754 115.95 113.691Z" fill="white"/>
<path fill-rule="evenodd" clip-rule="evenodd" d="M215.608 165.94C215.47 166.289 215.168 166.772 214.816 167.23L215.119 167.544L215.47 167.918L215.548 167.993C215.582 168.023 215.609 168.041 215.628 168.046C215.742 168.063 215.821 168.167 215.805 168.282C215.789 168.393 215.685 168.474 215.571 168.457C215.469 168.455 215.095 168.309 214.65 167.948C214.57 167.883 214.49 167.807 214.408 167.724C214.151 168.011 213.892 168.257 213.668 168.409C213.339 168.637 213.053 168.655 212.917 168.563C212.783 168.473 212.654 168.172 212.872 167.563C212.906 167.453 213.024 167.395 213.133 167.429C213.241 167.464 213.301 167.58 213.267 167.69C213.234 167.803 213.229 167.906 213.229 167.988L213.355 167.902C213.4 167.87 213.446 167.834 213.488 167.792C213.641 167.642 213.811 167.459 213.983 167.261C213.711 166.945 213.435 166.575 213.211 166.147C213.102 165.939 213.014 165.717 212.932 165.485C212.875 165.355 212.934 165.202 213.064 165.144C213.194 165.087 213.347 165.147 213.404 165.277C213.653 165.799 213.972 166.249 214.286 166.634L214.391 166.76C214.677 166.385 214.923 166.006 215.035 165.717C215.097 165.56 215.275 165.482 215.433 165.542C215.592 165.605 215.67 165.782 215.608 165.94Z" fill="white"/>
<path fill-rule="evenodd" clip-rule="evenodd" d="M88.3233 58.0217L87.8019 57.9273C84.8902 57.386 82.6578 56.7215 78.4874 55.2756C78.0091 55.1097 77.7558 54.5876 77.9216 54.1094C78.0875 53.6311 78.6096 53.3778 79.0878 53.5436L80.1272 53.9013C83.7855 55.1498 85.8382 55.7222 88.6416 56.2165C98.0746 57.8798 105.138 53.0368 105.715 43.8005C105.747 43.2953 106.182 42.9114 106.687 42.943C107.193 42.9746 107.577 43.4098 107.545 43.915C106.895 54.3026 98.7817 59.8658 88.3233 58.0217Z" fill="#00160A"/>
<path fill-rule="evenodd" clip-rule="evenodd" d="M111.894 67.913L112.42 69.0826L113.62 69.427C113.685 69.4456 113.722 69.5133 113.704 69.5782C113.698 69.5982 113.687 69.6164 113.672 69.6311L112.761 70.5385L112.812 71.8445C112.815 71.912 112.762 71.9688 112.695 71.9714C112.672 71.9723 112.649 71.9668 112.629 71.9555L111.597 71.3677C111.565 71.3494 111.526 71.3467 111.492 71.3604L110.388 71.7987C110.325 71.8237 110.254 71.793 110.229 71.7303C110.221 71.7091 110.219 71.6859 110.223 71.6635L110.455 70.3773L109.679 69.3518C109.638 69.298 109.648 69.2213 109.702 69.1806C109.719 69.168 109.738 69.1599 109.759 69.157L110.995 68.983L111.679 67.898C111.715 67.8409 111.79 67.8238 111.848 67.8598C111.868 67.8726 111.884 67.8911 111.894 67.913Z" fill="#00160A"/>
<path d="M232.458 38.5163C232.929 38.4827 233.338 38.8375 233.372 39.3087C233.405 39.7799 233.051 40.1892 232.579 40.2228C229.204 40.4637 226.553 41.7718 225.375 45.0076C225.304 45.2024 225.245 45.3904 225.198 45.569L225.166 45.6918L225.218 45.5841C226.7 42.5563 229.56 40.4525 232.875 39.9186L233.091 39.886C233.559 39.8207 233.992 40.1471 234.057 40.615C234.122 41.0829 233.796 41.5151 233.328 41.5804C230.249 42.0102 227.615 44.0565 226.466 46.9915L226.392 47.1884C225.846 48.6885 224.535 49.4078 223.692 48.1241C223.177 47.3411 223.211 45.9504 223.767 44.4224C225.178 40.5467 228.415 38.8047 232.458 38.5163Z" fill="white"/>
<path d="M228.561 32.1433C229.032 32.1097 229.442 32.4644 229.475 32.9357C229.509 33.4069 229.154 33.8162 228.683 33.8498C223.313 34.2329 218.605 37.7201 216.731 42.8674C216.176 44.3932 216.073 45.6978 216.271 46.3585L216.296 46.4322L216.334 46.3776C216.429 46.2328 216.537 46.0247 216.642 45.7548L216.687 45.6354C218.666 40.1985 223.464 36.3909 229.091 35.6053C229.559 35.54 229.992 35.8664 230.057 36.3343C230.122 36.8022 229.796 37.2345 229.328 37.2998C224.405 37.9869 220.197 41.2724 218.385 45.98L218.295 46.2206C217.561 48.2368 215.974 49.1078 214.96 47.5639C214.264 46.506 214.313 44.5089 215.123 42.2822C217.23 36.495 222.524 32.574 228.561 32.1433Z" fill="white"/>
<path d="M223.31 23.646C223.781 23.6124 224.191 23.9671 224.224 24.4384C224.258 24.9096 223.903 25.3189 223.432 25.3525C215.773 25.8989 209.058 30.8727 206.386 38.2142C205.476 40.7127 205.4 42.8303 205.897 43.7106L205.942 43.785C206.016 43.8969 205.991 43.9002 206.01 43.8848L206.021 43.8773C206.273 43.7391 206.605 43.2686 206.909 42.4882L206.969 42.328C209.698 34.8296 216.315 29.5784 224.076 28.4951C224.544 28.4297 224.977 28.7561 225.042 29.224C225.107 29.6919 224.781 30.1242 224.313 30.1895C217.266 31.1732 211.245 35.8908 208.676 42.6455L208.577 42.9131C207.627 45.5218 205.723 46.5669 204.512 44.7245C203.61 43.351 203.676 40.6576 204.778 37.629C207.683 29.6476 214.984 24.24 223.31 23.646Z" fill="white"/>
<path d="M213.936 15.66C214.4 15.5692 214.849 15.8715 214.94 16.3351C215.031 16.7987 214.729 17.2482 214.265 17.339C207.332 18.6968 201.756 23.9924 200.139 30.997C199.592 33.3677 199.757 35.2952 200.294 36.0307L200.366 36.1228L200.371 36.1357L200.381 36.1279C200.574 35.9544 200.798 35.511 200.973 34.8237L201.009 34.6726C202.672 27.4686 208.165 21.8921 215.18 20.0194C215.637 19.8976 216.105 20.1688 216.227 20.6253C216.349 21.0818 216.078 21.5506 215.621 21.6724C209.301 23.3596 204.335 28.3357 202.742 34.7842L202.676 35.0575C202.09 37.5983 200.405 38.8112 199.041 37.2029C198.043 36.0265 197.798 33.5304 198.472 30.6122C200.242 22.9441 206.347 17.1464 213.936 15.66Z" fill="white"/>
<path d="M119.11 121.162L119.603 120.983C124.271 119.308 128.209 118.569 129.209 119.587C130.086 120.479 130.868 122.096 131.609 124.466C131.75 124.917 131.499 125.397 131.048 125.538C130.597 125.679 130.117 125.428 129.976 124.977C129.335 122.926 128.681 121.547 128.063 120.864L128.037 120.838L128.015 120.839C127.898 120.815 127.723 120.803 127.499 120.807C127.006 120.817 126.332 120.904 125.527 121.063C123.872 121.391 121.78 122.001 119.702 122.768C116.227 124.049 113.333 125.555 111.734 126.915C111.147 127.415 110.075 126.024 111.107 125.227C112.962 123.793 115.777 122.392 119.11 121.162Z" fill="white"/>
<path d="M116.761 105.002C116.761 107.855 119.778 110.945 120.42 111.121C120.876 111.245 113.025 116.361 113.025 116.361C110.188 116.734 108.523 114.336 108.523 110.764C108.523 110.292 116.761 104.53 116.761 105.002Z" fill="white"/>
<path fill-rule="evenodd" clip-rule="evenodd" d="M107.504 106.502C108.497 106.308 109.172 105.481 109.011 104.652C108.85 103.824 107.914 103.309 106.921 103.503C105.927 103.696 105.252 104.524 105.413 105.352C105.574 106.18 106.51 106.695 107.504 106.502Z" fill="#FFB61D"/>
<path d="M208.762 10.9164C209.227 10.8353 209.67 11.1469 209.751 11.6123C209.832 12.0778 209.521 12.5208 209.055 12.6019C206.841 12.9875 204.609 14.3273 202.308 16.4585C199.319 19.2259 197.345 23.0498 196.257 28.1482C195.38 32.2559 196.189 37.3885 198.481 41.9006C201.089 47.0341 205.702 48.3028 211.081 49.2853C216.603 50.2938 218.129 49.671 223.347 47.816L223.827 47.6416C224.54 47.3714 227.874 46.0669 228.676 45.8245C230.363 45.3144 231.513 45.357 232.348 46.2462C232.671 46.5907 232.654 47.1321 232.309 47.4554C231.986 47.7584 231.49 47.7623 231.163 47.4777L231.1 47.417C230.854 47.1547 230.345 47.1243 229.321 47.418L229.171 47.4621C228.4 47.6953 224.784 49.1144 224.316 49.2853C218.68 51.3424 216.769 52.0633 210.774 50.9683C204.833 49.8831 199.792 48.2586 196.956 42.6755C194.491 37.8233 193.623 32.293 194.584 27.791C195.745 22.3496 197.897 18.2115 201.145 15.2032C203.689 12.8483 206.222 11.3587 208.762 10.9164Z" fill="white"/>
<path d="M249.004 78.9834C244.127 78.734 240.287 82.5004 240.247 87.5563C240.213 91.8161 242.612 95.3239 245.908 96.0035C247.241 96.2783 249.8 95.9477 251.698 94.8833C254.581 93.3375 256.784 90.1598 257.062 87.4523C257.515 83.0411 253.943 79.2359 249.004 78.9834Z" fill="white"/>
<path d="M160.636 78.0927C162.194 81.2387 164.613 88.5054 163.566 88.4705C160.66 88.3734 156.772 83.9072 154.053 77.8684L153.838 77.3827C151.464 71.8999 150.042 68.4554 151.693 67.7956C153.401 67.1131 157.421 71.5995 160.636 78.0927Z" fill="white"/>
<path fill-rule="evenodd" clip-rule="evenodd" d="M151.693 67.7271C153.401 67.0446 157.48 71.326 160.695 77.8192C162.253 80.9652 163.309 83.9832 163.585 86.1475C163.585 86.1475 158.325 75.0631 155.116 71.0031C153.883 69.4436 151.693 67.7271 151.693 67.7271Z" fill="#E7EAEE"/>
<path d="M150.797 95.6423C150.922 95.1868 151.393 94.9191 151.849 95.0444C152.304 95.1697 152.572 95.6405 152.446 96.096C152.285 96.682 150.019 98.219 145.075 101.267L141.955 103.176C135.794 106.927 131.683 109.327 131.169 109.327C127.768 109.327 124.703 106.118 122.465 101.055C120.511 96.6339 119.497 91.3717 119.955 87.9232C120.098 86.8469 123.684 84.0607 129.221 80.3279L130.014 79.7964C134.912 76.5331 139.099 74.113 140.614 73.8073C141.077 73.7139 141.528 74.0136 141.622 74.4767C141.68 74.7664 128.178 86.1474 126.859 93.7012C125.966 98.8158 129.342 107.533 131.018 107.612L131.169 107.616C131.033 107.616 131.077 107.584 131.093 107.575L131.247 107.495C131.361 107.436 131.496 107.363 131.651 107.278L132.363 106.88C132.635 106.725 132.939 106.551 133.27 106.36L134.119 105.867C135.74 104.92 137.763 103.716 139.826 102.467L141.788 101.275C144.173 99.8169 146.329 98.4729 147.949 97.4292L148.783 96.887C149.3 96.5479 149.737 96.2545 150.086 96.0113L150.213 95.9225C150.405 95.7867 150.565 95.67 150.69 95.5741C150.69 95.5741 150.831 95.5183 150.797 95.6423Z" fill="white"/>
<path fill-rule="evenodd" clip-rule="evenodd" d="M152.493 78.5709C150.426 73.9812 149.512 69.7751 150.204 67.2283C148.954 67.6257 147.39 68.3401 145.838 69.2305C143.775 70.4141 142.137 71.7371 142.099 72.0243C141.7 75.0265 143.231 80.867 145.775 86.0739C148.495 91.6435 151.732 95.2209 154.238 95.2209C154.477 95.2209 155.164 95.0794 155.852 94.839C156.831 94.497 157.748 93.9989 158.499 93.3462C158.873 93.0217 159.259 92.655 159.663 92.2456L160.15 91.7427C160.437 91.4393 160.733 91.1125 161.195 90.5948L161.839 89.8758L161.866 89.8455C158.643 88.6677 155.272 84.5159 152.75 79.1319L152.493 78.5709ZM140.403 71.799C140.669 69.7963 148.167 65.4672 151.589 65.1875C151.732 65.0977 151.885 65.0199 152.049 64.9547C155.012 63.7705 159.527 68.8428 163.149 75.9798L163.398 76.4752C165.033 79.7771 166.148 82.9631 166.452 85.3462C166.815 88.1941 165.99 90.0821 163.828 90.1789C163.771 90.4033 163.624 90.5909 163.43 90.7039L163.396 90.721L163.312 90.8053C163.227 90.8924 163.128 91.0004 162.973 91.1718L161.911 92.3583C161.525 92.7833 161.251 93.0717 160.881 93.4471C160.448 93.8859 160.03 94.2823 159.621 94.6378C157.965 96.0764 155.517 96.9318 154.238 96.9318C153.559 96.9318 152.873 96.774 152.186 96.4728C151.452 97.2388 149.192 98.7291 145.075 101.267L141.955 103.177C135.794 106.927 131.683 109.327 131.169 109.327C130.004 109.327 128.879 108.95 127.813 108.252C127.803 108.259 127.793 108.266 127.782 108.272L127.347 108.552C125.833 109.534 123.412 111.166 121.166 112.68L121.165 112.681L121.164 112.682L121.163 112.683L121.161 112.684L121.16 112.685L121.16 112.685L121.16 112.685L121.019 112.78C121.31 114.857 121.972 116.94 123.007 119.03C126.681 117.894 129.591 117.51 130.431 118.365C131.308 119.257 132.09 120.874 132.831 123.244C132.972 123.695 132.721 124.175 132.27 124.316C131.819 124.457 131.339 124.206 131.198 123.755C130.557 121.704 129.903 120.325 129.285 119.642L129.259 119.616L129.237 119.617C129.12 119.593 128.944 119.581 128.721 119.585C128.228 119.595 127.554 119.682 126.749 119.841C125.094 120.169 123.001 120.779 120.924 121.546C116.174 123.298 112.508 125.469 111.754 127.114C111.534 127.596 111.562 128.301 111.826 129.38L111.875 129.574C111.914 129.727 111.956 129.878 112.01 130.07L112.319 131.163C112.331 131.211 112.344 131.26 112.36 131.322C112.479 131.779 112.204 132.246 111.747 132.365C111.29 132.483 110.823 132.209 110.704 131.752L110.552 131.198L110.299 130.306C110.27 130.2 110.244 130.102 110.219 130.003C109.818 128.458 109.753 127.375 110.199 126.402C110.954 124.752 113.317 123.044 116.607 121.49L115.891 119.642L115.715 119.174C115.444 118.445 115.128 117.457 114.935 116.736C112.365 118.121 110.575 118.353 108.781 117.376L108.642 117.298C108.287 117.092 107.945 116.856 107.6 116.567L97.5746 122.657C97.6677 122.858 97.7618 123.06 97.857 123.264C98.3068 124.229 97.5133 124.912 96.2965 125.444L96.1652 125.499C95.1192 125.933 94.1753 126.032 93.6134 125.415C91.282 122.856 88.8139 116.735 90.1417 115.335C90.3966 115.066 91.0697 114.666 92.3426 113.998L92.4437 113.946C92.4697 113.928 92.497 113.911 92.5255 113.895L101.897 108.818C101.919 108.806 101.941 108.796 101.963 108.786C101.384 107.829 100.749 106.763 100.048 105.574C99.9397 105.399 99.9007 105.195 99.9298 104.999C99.9472 104.881 99.9889 104.767 100.055 104.664C100.095 104.602 100.143 104.543 100.2 104.492C102.127 102.665 104.752 100.76 108.045 98.7083L108.444 98.4609C109.87 97.5823 112.759 95.9342 115.215 94.5336L115.215 94.5336L115.215 94.5334L115.216 94.5328L115.217 94.5325L115.217 94.5324C117.122 93.4459 118.765 92.5086 119.26 92.1956L119.38 92.1161C119.559 91.9851 119.772 91.9339 119.976 91.9559C119.813 90.472 119.799 89.0933 119.955 87.9233C120.098 86.847 123.684 84.0608 129.22 80.3279L130.014 79.7964C134.654 76.7048 138.657 74.3698 140.353 73.873C140.307 73.1069 140.322 72.4091 140.403 71.799ZM140.54 75.6076C138.878 76.215 134.717 78.6854 130.177 81.7465L129.45 82.2397C127.406 83.6339 125.519 84.9933 124.093 86.1012L123.697 86.4119C123.06 86.9161 122.546 87.3506 122.172 87.6991C121.985 87.8738 121.837 88.0234 121.733 88.1424L121.66 88.2282C121.645 88.2447 121.64 88.2384 121.646 88.1845L121.651 88.1486C121.649 88.1624 121.647 88.1743 121.646 88.1845L121.624 88.3681C120.801 95.5873 126.021 107.377 131.018 107.612L131.135 107.615C131.145 107.616 131.156 107.616 131.169 107.616L131.135 107.615C131.041 107.61 131.078 107.583 131.093 107.575L131.247 107.496C131.36 107.436 131.495 107.363 131.651 107.278L132.363 106.88C132.635 106.725 132.938 106.552 133.27 106.36L134.119 105.867C135.74 104.92 137.763 103.716 139.825 102.467L141.787 101.275C144.173 99.817 146.329 98.4729 147.949 97.4292L148.783 96.887C149.3 96.548 149.737 96.2545 150.086 96.0113L150.213 95.9225C150.398 95.7922 150.552 95.6793 150.675 95.5856C148.472 93.9687 146.302 90.9824 144.376 87.1061L144.237 86.8249C142.381 83.0247 141.039 78.9095 140.54 75.6076ZM120.212 93.6144C119.595 94.0029 117.774 95.0426 115.748 96.1995C113.348 97.5703 110.659 99.1056 109.342 99.9172C106.233 101.834 103.726 103.611 101.865 105.284L102.481 106.324C105.179 110.85 106.741 113.232 107.998 114.578C107.58 113.587 107.364 112.331 107.364 110.755C107.364 110.682 107.373 110.612 107.39 110.544C107.307 110.217 107.424 109.857 107.713 109.645L108.296 109.212C108.644 108.948 109.215 108.512 109.866 108.015L109.871 108.011L109.874 108.008L109.874 108.008C111.305 106.915 113.112 105.533 113.757 105.071C115.786 103.618 117.281 102.803 118.643 102.52C119.293 102.385 119.799 102.769 119.945 103.365L119.969 103.474C120.003 103.651 120.009 103.825 120.009 104.206L120.008 104.327C120.001 105.751 120.142 106.572 120.745 107.521C121.158 108.17 121.764 108.763 122.608 109.293C122.697 109.349 122.771 109.418 122.832 109.496C124.194 108.581 125.47 107.73 126.412 107.12C124.928 105.683 123.592 103.604 122.465 101.055C121.415 98.6803 120.637 96.063 120.212 93.6144ZM164.755 85.5626C164.479 83.3984 163.422 80.3804 161.865 77.2344C158.65 70.7412 154.392 65.8609 152.684 66.5434C151.032 67.2032 151.464 71.8999 153.838 77.3827L154.053 77.8684C156.772 83.9072 160.66 88.3734 163.566 88.4705C164.612 88.5054 165.021 87.651 164.755 85.5626ZM102.847 110.232C104.331 112.632 105.415 114.217 106.36 115.319L96.8549 121.092C95.8814 118.958 95.0104 116.971 94.1653 114.953L102.712 110.322C102.761 110.296 102.806 110.266 102.847 110.232ZM121.366 119.57C120.444 117.662 119.807 115.749 119.457 113.833C118.228 114.659 117.16 115.374 116.473 115.821C116.59 116.411 117.028 117.812 117.405 118.808L118.107 120.615L118.173 120.791C118.863 120.5 119.584 120.216 120.331 119.94L120.825 119.761C121.007 119.696 121.187 119.632 121.366 119.57ZM121.335 110.503C120.459 109.895 119.788 109.204 119.301 108.438C118.513 107.198 118.306 106.14 118.297 104.54L118.297 104.397L118.176 104.442C117.308 104.779 116.273 105.388 114.973 106.306L114.754 106.462C114.135 106.906 112.374 108.251 110.953 109.337L110.951 109.338L110.951 109.339L110.95 109.34L110.947 109.341L110.947 109.341L110.944 109.344C110.157 109.946 109.475 110.467 109.151 110.709L109.075 110.765C109.076 113.611 109.787 114.917 111.108 115.551L111.214 115.599C111.529 115.739 111.753 115.809 112.395 115.985C112.408 115.988 112.421 115.992 112.433 115.996C113.1 115.772 113.863 115.398 114.775 114.863L115.115 114.659C115.868 114.19 117.889 112.826 120.113 111.327L120.113 111.326C120.516 111.055 120.926 110.779 121.335 110.503ZM92.6535 115.771L92.7847 116.083C93.6932 118.237 94.6373 120.371 95.7088 122.697L96.1255 123.6C95.9889 123.692 95.8093 123.789 95.6118 123.876C95.3282 124 95.0403 124.086 94.8238 124.116L94.7548 124.123L94.6507 123.998C93.8409 123.001 92.901 121.307 92.2219 119.622C91.8601 118.725 91.6025 117.902 91.4863 117.27C91.439 117.012 91.4171 116.796 91.419 116.632L91.424 116.524C91.4257 116.497 91.4257 116.484 91.4193 116.482L91.4448 116.464C91.5894 116.365 91.9589 116.148 92.5077 115.85L92.6535 115.771ZM104.454 113.886C104.123 113.549 103.581 113.544 103.244 113.875C102.651 114.457 101.819 114.999 100.367 115.805L98.8897 116.625C98.4993 116.847 98.1796 117.039 97.8901 117.227C97.6482 117.384 97.432 117.535 97.2378 117.685C96.8639 117.974 96.7951 118.511 97.0839 118.885C97.3728 119.259 97.91 119.328 98.2839 119.039C98.4382 118.92 98.6165 118.795 98.8212 118.662C99.0102 118.54 99.2179 118.413 99.4583 118.272L99.9293 118.002L101.43 117.171C102.873 116.361 103.741 115.783 104.442 115.096C104.779 114.765 104.785 114.224 104.454 113.886Z" fill="#00160A"/>
<path d="M85.3191 200.757C89.5969 224.607 105.63 242.537 126.089 246.764C129.845 247.54 136.348 247.642 143.082 246.77C151.758 245.647 160.201 243.072 167.627 238.897C188.027 227.933 203.506 205.558 205.512 185.97C207.275 168.764 200.701 152.87 188.802 141.53C188.802 141.53 151.422 159.89 133.073 170.326C117.106 179.407 85.3191 200.757 85.3191 200.757Z" fill="white"/>
<path d="M172.372 129.634C164.705 125.851 155.099 122.862 145.679 122.381C111.131 120.614 83.9598 148.213 83.6765 183.811C83.6765 183.811 122.235 159.251 142.268 147.401C152.234 141.506 172.372 129.634 172.372 129.634Z" fill="white"/>
<path fill-rule="evenodd" clip-rule="evenodd" d="M243.432 111.491C243.316 117.439 237.023 127.338 226.906 138.54C219.577 146.655 211.049 154.499 203.899 159.784L203.454 160.11L203.75 161.423C205.488 169.044 207.758 177.328 206.901 185.682C204.819 205.959 188.959 228.835 168 240.075C160.356 244.363 151.668 247.008 142.755 248.159L141.905 248.264C135.26 249.047 128.9 248.917 125.014 248.116C109.929 245.006 97.1582 234.461 89.437 219.2C89.4111 219.149 89.3908 219.096 89.3759 219.043C88.3594 219.622 86.9918 220.271 86.3672 220.482L84.656 221.061C66.2147 227.263 47.9323 232.453 40.4637 229.214C37.6205 227.981 36.6487 225.61 37.8377 222.424C38.9933 219.328 42.1973 215.338 47.5729 210.374L47.8682 210.102C52.9619 205.433 64.2737 196.9 81.8034 184.505L81.8079 184.277C82.6632 147.549 111.193 119.549 147.054 121.835C158.022 122.534 166.758 126.432 171.12 128.825L173.039 127.796C191.035 118.173 205.474 111.41 216.491 107.361C234.608 100.704 243.568 103.816 243.432 111.491ZM217.081 111.307C196.822 118.751 164.805 135.494 120.228 162.427L118.874 163.246C84.1627 184.258 61.178 200.222 49.0243 211.363L48.4253 211.916L47.8574 212.449C38.7339 221.069 37.1168 225.898 41.1444 227.644C48.039 230.634 66.5543 225.594 84.6863 219.646L86.3672 219.092C87.9842 218.556 89.0566 218.249 89.7203 218.107C89.7492 218.086 89.7809 218.067 89.8141 218.05C90.041 217.936 90.2948 217.932 90.5141 218.018C90.5616 218.027 90.5925 218.042 90.6087 218.062C90.7565 218.142 90.8821 218.266 90.9636 218.428C98.4591 233.243 110.81 242.271 125.359 245.27C129.136 246.049 135.508 246.163 142.138 245.343L142.536 245.293C151.243 244.168 159.724 242.756 167.178 238.575C187.659 227.591 203.176 205.209 205.199 185.508C206.063 177.088 204.96 168.823 202.028 161.131C201.786 161.3 201.546 161.466 201.307 161.628C200.857 161.935 201.025 161.438 201.811 160.137C201.853 159.967 201.947 159.812 202.081 159.696L202.324 159.312C202.408 159.179 202.498 159.04 202.591 158.895L203.605 158.04C213.161 149.958 220.505 143.075 225.636 137.394L226.222 136.742C235.716 126.117 241.618 116.731 241.716 111.46C241.822 105.677 234.193 105.018 217.081 111.307ZM131.181 219.49C133.476 226.505 130.004 231.017 123.891 231.25C118.244 231.466 113.101 227.907 113.363 222.85C113.589 218.479 116.582 213.807 120.266 212.091C124.722 210.016 128.904 212.533 131.181 219.49ZM121.169 214.029C118.221 215.403 115.685 219.362 115.499 222.96C115.313 226.544 119.275 229.286 123.81 229.113C128.551 228.932 130.985 225.769 129.148 220.155C127.235 214.309 124.327 212.559 121.169 214.029ZM177.847 205.195C180.775 210.729 180.009 216.165 175.505 218.602L175.379 218.669L175.314 218.734C169.275 224.714 161.731 225.439 156.812 221.105L156.643 220.953C150.976 215.762 152.326 206.844 161.343 199.852C167.146 195.353 174.235 198.37 177.847 205.195ZM162.467 201.301C154.28 207.648 153.13 215.249 157.881 219.602C161.289 222.723 166.324 222.896 171.027 219.866L171.119 219.805L171.084 219.798C170.759 219.712 170.497 219.449 170.423 219.107L170.409 219.02C170.349 218.517 170.708 218.061 171.211 218.002C172.361 217.865 173.359 217.588 174.205 217.191L174.32 217.134L174.461 216.989C175.012 216.408 175.551 215.776 176.073 215.093L176.247 214.863C176.443 214.601 176.752 214.473 177.056 214.498L177.08 214.5L177.092 214.477C178.19 212.307 177.93 209.367 176.323 206.237L176.227 206.052C173.086 200.118 167.215 197.619 162.467 201.301ZM216.979 135.521C216.508 137.195 215.074 139.491 212.876 142.211C209.045 146.953 203.29 152.471 198.259 156.245L199.375 155.018C199.364 155.008 199.355 154.995 199.347 154.98L198.962 154.273C196.444 149.677 193.639 145.145 189.107 141.45C177.374 146.287 163.922 152.899 151.666 159.813L147.648 162.084C118.064 178.843 102.499 188.876 85.8551 201.209C86.4834 204.039 87.2749 206.799 88.2229 209.474C88.3717 209.894 86.4279 211.465 86.0721 211.271C82.7517 213.496 77.5523 215.112 74.5922 215.196C71.7073 215.278 70.0406 214.11 70.8992 211.781C71.6175 209.833 74.3232 207.055 79.1925 203.332L79.7476 202.911L80.87 202.067C99.1958 188.348 117.338 177.214 150.825 158.323L152.227 157.537C175.194 144.716 201.791 133.166 213.973 132.1C216.477 131.881 217.613 133.267 216.979 135.521ZM83.6265 202.869L79.7868 205.766C76.3616 208.364 73.8922 210.285 72.5583 211.517L72.4604 211.608C70.8322 213.135 72.6752 213.539 74.5436 213.486C77.3738 213.405 81.7096 211.259 85.3796 209.306C84.7013 207.205 84.1161 205.057 83.6265 202.869ZM143.685 193.581C144.143 193.697 144.42 194.162 144.304 194.62C144.188 195.078 143.722 195.355 143.264 195.239C140.964 194.655 139.605 194.879 139.164 195.499C138.872 195.91 139.034 196.61 139.581 197.058C140.008 197.407 140.577 197.574 140.969 197.489C141.309 197.415 141.5 197.153 141.5 196.496C141.5 196.023 141.883 195.64 142.355 195.64C142.828 195.64 143.211 196.023 143.211 196.496C143.211 197.924 142.496 198.908 141.333 199.161C140.397 199.364 139.307 199.044 138.497 198.382C137.302 197.404 136.911 195.714 137.77 194.507C138.712 193.183 140.777 192.842 143.685 193.581ZM106.109 190.44C107.428 190.836 107.996 191.849 108.175 193.368L108.193 193.533L108.215 193.783C108.218 193.825 108.221 193.868 108.224 193.913L108.269 194.782L108.282 194.977C108.289 195.063 108.297 195.134 108.305 195.196L108.328 195.327L108.342 195.384L108.366 195.406C108.63 195.664 108.7 196.069 108.529 196.404L108.486 196.48C108.23 196.877 107.7 196.991 107.303 196.735C106.757 196.383 106.633 196.02 106.566 194.98L106.512 193.961C106.506 193.869 106.499 193.79 106.49 193.699C106.393 192.703 106.15 192.239 105.618 192.079C104.123 191.632 103.266 192.089 102.994 193.087C102.752 193.977 103.102 194.913 103.715 195.172L103.871 195.23C104.271 195.401 104.484 195.853 104.349 196.276C104.205 196.726 103.724 196.975 103.274 196.831C101.645 196.312 100.871 194.377 101.343 192.638C101.871 190.698 103.705 189.72 106.109 190.44ZM167.826 177.342C170.194 180.672 169.754 184.909 165.953 186.827C165.532 187.04 165.017 186.87 164.804 186.448C164.591 186.027 164.761 185.512 165.183 185.299C167.934 183.911 168.249 180.888 166.431 178.333C164.666 175.851 162.209 175.578 160.52 178.26C158.73 181.103 158.86 182.772 160.149 183.524C161.172 184.12 162.82 183.995 163.273 183.507L163.317 183.454C163.59 183.069 164.125 182.979 164.509 183.253C164.894 183.527 164.984 184.061 164.71 184.446C163.759 185.782 161.046 186.027 159.287 185.002C157.035 183.689 156.82 180.925 159.072 177.349C161.484 173.519 165.417 173.956 167.826 177.342ZM132.359 172.436C132.803 172.436 133.169 172.776 133.21 173.21L133.214 173.292C133.214 173.443 133.354 173.611 133.856 173.979L134.331 174.32C134.849 174.697 135.099 174.932 135.335 175.305C135.874 176.158 136.18 177.026 136.18 178.047C136.18 180.661 132.252 184.217 127.965 185.799C122.826 187.696 118.616 186.29 117.47 181.016C117.369 180.554 117.662 180.099 118.124 179.999C118.586 179.898 119.041 180.191 119.142 180.653C120.031 184.746 123.101 185.771 127.373 184.194C131.062 182.833 134.469 179.748 134.469 178.047C134.469 177.389 134.269 176.82 133.889 176.219L133.837 176.147C133.75 176.037 133.614 175.918 133.369 175.736L132.804 175.329C131.867 174.638 131.503 174.171 131.503 173.292C131.503 172.819 131.886 172.436 132.359 172.436ZM136.374 125.023L135.834 125.083C106.644 128.594 84.7452 151.941 83.5509 183.272L86.683 181.068C95.6728 174.757 106.108 167.549 117.988 159.443L120.302 158.044C127.213 153.875 133.821 149.951 140.129 146.27C140.014 146.068 139.982 145.82 140.06 145.582C140.501 144.236 140.908 143.331 141.655 142.425C143.992 139.59 147.194 138.205 149.463 139.985C149.686 140.161 149.799 140.425 149.79 140.688L151.805 139.538C158.151 135.926 164.156 132.59 169.823 129.525L167.61 128.895C164.327 127.971 160.243 126.875 156.175 126.032C156.212 128.739 154.186 130.9 150.819 132.387C147.958 133.651 144.228 134.331 141.577 134.173C136.616 133.877 133.824 129.526 136.374 125.023ZM187.58 162.172C189.673 167.892 187.946 173.092 182.719 173.058C175.272 173.01 167.999 166.507 169.175 160.682C169.7 158.083 171.653 155.784 175.05 154.637C180.476 152.805 185.449 156.35 187.58 162.172ZM175.598 156.258C172.79 157.206 171.258 159.009 170.852 161.02C169.919 165.644 176.251 171.305 182.73 171.348C186.442 171.372 187.718 167.528 185.973 162.76C184.126 157.715 179.998 154.772 175.598 156.258ZM112.696 136.007L112.757 136.095L113.168 136.75C113.37 137.082 113.551 137.408 113.723 137.76C115.617 141.634 115.568 146.712 112.362 153.761C110.91 156.954 107.209 161.246 103.978 163.807C99.852 167.077 96.7715 167.819 93.0945 167.416L92.0035 167.287L91.8704 167.275C91.7974 167.27 91.7508 167.269 91.6996 167.271L91.6248 167.274C91.5679 167.277 91.5482 167.274 91.5449 167.267L91.5446 167.261L91.5172 167.305C91.2692 167.661 90.7872 167.778 90.4001 167.563C89.9873 167.333 89.8388 166.812 90.0684 166.399C90.3759 165.847 90.8898 165.596 91.5438 165.565C91.717 165.557 91.9002 165.563 92.1184 165.581L92.3735 165.606L93.0791 165.692C96.4284 166.098 99.0931 165.495 102.915 162.466C105.951 160.06 109.478 155.969 110.805 153.052C113.805 146.456 113.849 141.912 112.186 138.512C112.075 138.285 111.96 138.07 111.834 137.854L111.655 137.555L111.296 136.987C111.046 136.587 111.166 136.059 111.567 135.808C111.942 135.573 112.429 135.665 112.696 136.007ZM214.122 133.805C208.654 134.283 200.081 136.985 190.198 141.003L190.487 141.258C193.237 143.726 198.787 149.578 200.523 153.752L202.254 151.833C206.523 147.085 209.62 143.519 211.546 141.136L211.936 140.647C213.776 138.311 214.966 136.36 215.332 135.058L215.384 134.86C215.612 133.92 215.348 133.698 214.122 133.805ZM132.212 136.584C134.341 137.613 135.206 139.904 133.805 141.982C133.541 142.374 133.009 142.477 132.617 142.213C132.226 141.949 132.122 141.418 132.386 141.026C133.157 139.883 132.722 138.73 131.468 138.124C130.147 137.485 128.699 137.853 127.952 139.247C127.264 140.531 127.217 142.271 127.766 143.41C128.249 144.41 128.951 144.601 130.022 143.795C130.4 143.511 130.936 143.586 131.22 143.964C131.504 144.341 131.429 144.878 131.051 145.162C129.099 146.631 127.167 146.104 126.226 144.153C125.437 142.518 125.5 140.202 126.444 138.439C127.65 136.189 130.107 135.566 132.212 136.584ZM142.975 143.513C142.576 143.997 142.291 144.508 142.027 145.163C144.232 143.883 146.399 142.631 148.528 141.41L148.466 141.374L148.407 141.331C147.101 140.306 144.798 141.302 142.975 143.513ZM139.327 124.761L138.579 124.813L138.529 124.877C135.572 128.614 136.711 131.647 140.749 132.078C143.649 132.387 151.349 130.235 152.252 129.48C153.132 128.744 154.244 127.053 154.416 125.682C151.803 125.191 149.246 124.83 146.966 124.713C144.636 124.594 142.338 124.597 140.079 124.717L139.327 124.761Z" fill="#00160A"/>
<path d="M216.562 111.519C234.679 104.861 234.264 106.836 217.152 113.124C196.893 120.569 120.422 167.216 120.422 167.216C85.7107 188.228 83.1141 184.985 116.758 164.538L118.832 163.28C119.223 163.043 157.527 138.868 184.898 125.934C187.978 124.479 214.499 112.277 216.562 111.519Z" fill="white"/>
<path fill-rule="evenodd" clip-rule="evenodd" d="M247.845 78.374C242.231 78.0869 237.849 82.4496 237.803 88.1577C237.765 92.9401 240.509 97.0009 244.44 97.8114C245.476 98.0249 248.463 98.0249 251.054 96.5713L251.269 96.453C254.536 94.603 256.758 91.0834 257.056 88.1881C257.583 83.055 253.459 78.661 247.845 78.374ZM239.025 88.1674C239.025 88.1306 239.026 88.0938 239.027 88.0571C239.062 88.0458 239.096 88.0312 239.129 88.0132C243.531 85.6422 246.248 83.8353 247.333 82.5306C248.049 81.6691 248.399 80.6975 248.37 79.6419C249.109 79.7235 249.814 79.8857 250.474 80.118C250.47 80.1496 250.469 80.182 250.47 80.2149C250.524 81.7342 250.119 82.9487 249.258 83.8943C248.268 84.9811 247.07 86.0153 245.707 86.9905C244.25 88.0332 242.685 88.9538 241.12 89.7421C240.755 89.9259 240.408 90.0936 240.082 90.2447L239.61 90.459C239.542 90.489 239.479 90.5165 239.421 90.5416L239.281 90.6007C239.108 89.8301 239.018 89.0136 239.025 88.1674ZM239.624 91.782C240.011 92.855 240.572 93.8061 241.266 94.5806L241.631 94.3705C247.375 91.045 250.94 88.4327 252.29 86.5898C253.655 84.7264 254.141 83.2957 253.836 82.3229C253.829 82.3 253.823 82.277 253.818 82.254C253.217 81.6228 252.502 81.0803 251.695 80.6521C251.661 82.2671 251.15 83.6311 250.161 84.717C249.109 85.8725 247.847 86.9619 246.418 87.9843C244.905 89.0668 243.287 90.0187 241.67 90.8335C241.198 91.0711 240.754 91.2829 240.346 91.4682L239.869 91.6793L239.624 91.782ZM244.199 96.4915C243.477 96.2758 242.805 95.9217 242.2 95.4531C248.113 92.0331 251.792 89.3382 253.276 87.3118C254.197 86.0547 254.785 84.9242 255.024 83.9154C255.322 84.4708 255.547 85.063 255.692 85.6816C255.661 85.7447 255.64 85.8141 255.632 85.8881C255.483 87.3166 254.747 88.7345 253.401 90.1465C252.109 91.5017 249.32 93.4571 245.059 95.9851L244.199 96.4915ZM246.264 96.6893C247.576 96.6059 249.18 96.2213 250.477 95.4944C252.888 94.2014 254.823 91.7663 255.555 89.4199C255.201 89.9498 254.778 90.4732 254.285 90.9898C252.958 92.3815 250.292 94.2732 246.264 96.6893ZM239.381 86.4854L239.163 86.6036C239.857 82.5658 243.083 79.6684 247.145 79.5846C247.188 80.3779 246.942 81.0898 246.393 81.7492C245.507 82.8152 243.155 84.4107 239.381 86.4854Z" fill="#00160A"/>
<path fill-rule="evenodd" clip-rule="evenodd" d="M291.957 66.6652C292.071 66.6783 292.15 66.7814 292.137 66.8946C292.137 67.0614 292.029 67.1515 291.885 67.2101C291.755 67.2623 291.547 67.2423 291.427 67.2587C290.103 67.3608 289.063 66.3871 288.606 65.1321C288.166 63.9266 288.283 62.485 289.081 61.5959C289.173 61.4911 289.332 61.4807 289.437 61.5725C289.541 61.6643 290.137 61.8239 290.045 61.9287C289.387 62.6967 288.942 63.1627 289.562 64.9856C290.183 66.8085 291.872 66.6554 291.957 66.6652Z" fill="#E7EAEE"/>
<path fill-rule="evenodd" clip-rule="evenodd" d="M81.2661 79.7168C80.9183 79.4781 80.4429 79.5664 80.2041 79.9142C79.9653 80.2619 80.0537 80.7374 80.4014 80.9761C80.7834 81.2384 81.121 81.4806 81.4189 81.7055C81.098 81.9609 80.7775 82.2534 80.4444 82.5865L79.7689 83.2725C79.472 83.5721 79.4741 84.0557 79.7737 84.3526C80.0733 84.6496 80.5569 84.6475 80.8538 84.3479L81.6643 83.5287C81.9941 83.2075 82.3032 82.9389 82.6141 82.7156C83.3048 83.4002 83.5151 83.9023 83.5263 84.4014L83.5264 84.5294L83.5303 84.6075C83.5694 84.9926 83.8947 85.2931 84.2901 85.2931C84.712 85.2931 85.0539 84.9512 85.0539 84.5294L85.0538 84.3792C85.0396 83.6011 84.765 82.8611 84.0257 82.0154C84.514 81.8699 85.0642 81.7885 85.7314 81.7536C86.1527 81.7316 86.4763 81.3723 86.4543 80.951C86.4323 80.5298 86.073 80.2061 85.6517 80.2281C84.4933 80.2887 83.5931 80.4817 82.7911 80.8486C82.4563 80.5749 82.077 80.2876 81.6484 79.9836L81.2661 79.7168Z" fill="#00160A"/>
<path fill-rule="evenodd" clip-rule="evenodd" d="M195.711 247.079L196.241 247.081C199.203 247.109 201.516 247.376 205.875 248.075C206.374 248.156 206.714 248.626 206.634 249.126C206.554 249.625 206.084 249.965 205.584 249.885L204.156 249.66C200.55 249.107 198.472 248.912 195.711 248.912C186.133 248.912 180.018 254.908 181.053 264.104C181.109 264.607 180.748 265.061 180.244 265.117C179.741 265.174 179.288 264.812 179.231 264.309C178.067 253.966 185.091 247.079 195.711 247.079ZM203.129 250.78L203.04 250.701C202.954 250.627 202.821 250.637 202.748 250.724C202.673 250.811 202.684 250.942 202.77 251.016L202.863 251.094C202.949 251.168 203.079 251.158 203.154 251.071C203.227 250.985 203.219 250.854 203.129 250.78ZM186.521 252.697C186.192 252.432 185.711 252.485 185.447 252.813C184.38 254.141 183.602 255.435 183.117 256.698C182.645 257.926 182.484 259.99 182.607 262.94L182.636 263.563C182.658 263.985 183.018 264.308 183.439 264.286C183.86 264.264 184.184 263.904 184.162 263.483C184 260.4 184.138 258.3 184.543 257.245C184.967 256.141 185.664 254.981 186.637 253.77C186.902 253.442 186.849 252.961 186.521 252.697ZM194.856 250.17C195.231 249.976 195.692 250.122 195.886 250.497C196.08 250.871 195.933 251.332 195.559 251.526C194.008 252.33 192.823 253.677 191.997 255.598C191.111 257.659 190.386 259.498 189.822 261.115C189.683 261.513 189.247 261.723 188.849 261.584C188.451 261.445 188.24 261.01 188.379 260.612C188.956 258.959 189.694 257.087 190.594 254.994C191.554 252.762 192.977 251.143 194.856 250.17ZM199.297 250.129C199.019 249.812 198.536 249.78 198.219 250.058C196.944 251.175 195.964 252.191 195.279 253.113C194.598 254.027 193.801 255.395 192.879 257.225C192.689 257.602 192.84 258.061 193.217 258.251C193.594 258.441 194.053 258.29 194.243 257.913C195.129 256.155 195.886 254.856 196.504 254.024C197.118 253.2 198.025 252.259 199.225 251.207C199.543 250.929 199.575 250.447 199.297 250.129ZM196.508 258.755C196.191 259.033 195.708 259.001 195.43 258.684C195.152 258.366 195.184 257.884 195.501 257.606C196.701 256.555 197.609 255.613 198.222 254.789C198.841 253.958 199.598 252.658 200.484 250.9C200.674 250.523 201.133 250.372 201.51 250.562C201.886 250.752 202.038 251.211 201.848 251.588C200.926 253.418 200.129 254.786 199.448 255.701C198.762 256.622 197.783 257.638 196.508 258.755ZM190.725 250.792C190.378 250.553 189.902 250.64 189.663 250.987C187.955 253.46 186.865 255.307 186.383 256.562C185.899 257.822 185.564 259.52 185.37 261.666C185.333 262.086 185.642 262.457 186.062 262.495C186.483 262.533 186.854 262.223 186.892 261.803C187.074 259.786 187.383 258.218 187.809 257.11C188.206 256.077 189.131 254.483 190.577 252.355L190.92 251.855C191.159 251.508 191.072 251.032 190.725 250.792Z" fill="#00160A"/>
<path fill-rule="evenodd" clip-rule="evenodd" d="M176.226 246.288L176.752 247.458L177.952 247.802C178.017 247.821 178.054 247.888 178.036 247.953C178.03 247.973 178.019 247.991 178.004 248.006L177.093 248.914L177.144 250.22C177.147 250.287 177.094 250.344 177.027 250.346C177.004 250.347 176.981 250.342 176.961 250.331L175.929 249.743C175.897 249.724 175.858 249.722 175.824 249.735L174.72 250.174C174.657 250.199 174.586 250.168 174.561 250.105C174.553 250.084 174.551 250.061 174.555 250.039L174.787 248.752L174.011 247.727C173.97 247.673 173.98 247.596 174.034 247.556C174.051 247.543 174.07 247.535 174.091 247.532L175.327 247.358L176.011 246.273C176.047 246.216 176.122 246.199 176.18 246.235C176.2 246.248 176.216 246.266 176.226 246.288Z" fill="#00160A"/>
<path fill-rule="evenodd" clip-rule="evenodd" d="M218.726 82.5423C219.007 82.7915 219.358 83.241 219.668 83.7276L220.066 83.5505L220.538 83.3485C220.633 83.3052 220.694 83.2713 220.713 83.2439C220.767 83.1427 220.892 83.1042 220.994 83.1579C221.094 83.2114 221.134 83.3369 221.08 83.4377C221.042 83.5337 220.778 83.8346 220.286 84.129C220.197 84.1824 220.098 84.232 219.993 84.2804C220.174 84.6195 220.317 84.9472 220.383 85.21C220.484 85.5974 220.404 85.8719 220.271 85.9684C220.141 86.0638 219.814 86.0816 219.316 85.6684C219.224 85.5986 219.21 85.4683 219.279 85.3778C219.349 85.2875 219.478 85.2708 219.57 85.3406C219.665 85.4104 219.76 85.45 219.838 85.4786L219.8 85.3303C219.785 85.2773 219.767 85.222 219.742 85.1681C219.653 84.973 219.539 84.7502 219.412 84.5214C219.022 84.6684 218.58 84.8017 218.101 84.8659C217.868 84.8973 217.63 84.9034 217.383 84.9014C217.242 84.9107 217.118 84.803 217.109 84.6607C217.1 84.5187 217.208 84.3957 217.349 84.3864C217.925 84.3309 218.457 84.1855 218.927 84.022L219.081 83.9666C218.827 83.5694 218.554 83.2085 218.321 83.0049C218.195 82.893 218.182 82.6984 218.293 82.5709C218.406 82.4429 218.6 82.4301 218.726 82.5423Z" fill="#00160A"/>
<path fill-rule="evenodd" clip-rule="evenodd" d="M46.7819 177.871C45.416 177.961 43.2499 178.309 41.4793 179.011C39.9647 179.613 39.9647 195.963 45.1427 197.267C50.2909 198.984 55.92 196.711 55.2479 187.961C55.2358 187.778 55.0876 187.28 54.9178 186.71C54.6691 185.874 54.3739 184.883 54.3917 184.495C54.4616 183.121 54.1006 181.963 53.1478 181.236C52.1213 179.059 50.1097 177.657 46.7819 177.871ZM46.0406 193.286C43.5064 191.393 43.5954 182.556 46.4876 181.965C48.2875 183.349 49.9304 185.347 50.4847 189.196C49.8645 191.316 48.5552 192.542 47.4105 193.615C47.288 193.729 47.1674 193.842 47.0498 193.954C46.7229 193.769 46.3863 193.542 46.0406 193.286Z" fill="white"/>
<path fill-rule="evenodd" clip-rule="evenodd" d="M43.1005 189.43C42.8707 188.055 43.0274 186.516 43.7185 184.873C44.032 184.13 44.856 183.523 45.8869 183.116C47.0921 182.641 48.5662 182.404 49.4958 182.343C51.7606 182.197 53.1292 183.146 53.8271 184.617C54.4753 185.109 54.7207 185.892 54.6727 186.821C54.6522 187.263 55.2343 188.86 55.2544 189.165C55.7094 195.083 51.8779 196.622 48.3749 195.462C47.044 196.139 45.7603 196.251 44.7942 195.532C43.9276 194.891 43.2623 193.539 43.1099 191.154C43.0693 190.538 43.0662 189.964 43.1005 189.43ZM49.3139 185.533C47.3039 185.927 47.2199 191.729 48.975 192.966C49.2145 193.133 49.4477 193.281 49.6742 193.402C50.5226 192.637 51.1552 192.019 51.5142 190.754C51.8731 189.488 50.5604 186.437 49.3139 185.533Z" fill="#FFB61D"/>
<path fill-rule="evenodd" clip-rule="evenodd" d="M128.537 276.695C128.19 276.456 127.714 276.544 127.475 276.892C127.237 277.24 127.325 277.715 127.673 277.954C128.055 278.216 128.392 278.458 128.69 278.683C128.369 278.939 128.049 279.231 127.716 279.564L127.04 280.25C126.743 280.55 126.745 281.033 127.045 281.33C127.345 281.627 127.828 281.625 128.125 281.326L128.935 280.506C129.265 280.185 129.574 279.917 129.885 279.693C130.576 280.378 130.786 280.88 130.798 281.379L130.798 281.507L130.802 281.585C130.841 281.97 131.166 282.271 131.561 282.271C131.983 282.271 132.325 281.929 132.325 281.507L132.325 281.357C132.311 280.579 132.036 279.839 131.297 278.993C131.785 278.848 132.335 278.766 133.003 278.731C133.424 278.709 133.748 278.35 133.726 277.929C133.704 277.507 133.344 277.184 132.923 277.206C131.765 277.266 130.864 277.459 130.062 277.826C129.728 277.553 129.348 277.265 128.92 276.961L128.537 276.695Z" fill="#00160A"/>
<path fill-rule="evenodd" clip-rule="evenodd" d="M128.537 276.695C128.19 276.456 127.714 276.544 127.475 276.892C127.237 277.24 127.325 277.715 127.673 277.954C128.055 278.216 128.392 278.458 128.69 278.683C128.369 278.939 128.049 279.231 127.716 279.564L127.04 280.25C126.743 280.55 126.745 281.033 127.045 281.33C127.345 281.627 127.828 281.625 128.125 281.326L128.935 280.506C129.265 280.185 129.574 279.917 129.885 279.693C130.576 280.378 130.786 280.88 130.798 281.379L130.798 281.507L130.802 281.585C130.841 281.97 131.166 282.271 131.561 282.271C131.983 282.271 132.325 281.929 132.325 281.507L132.325 281.357C132.311 280.579 132.036 279.839 131.297 278.993C131.785 278.848 132.335 278.766 133.003 278.731C133.424 278.709 133.748 278.35 133.726 277.929C133.704 277.507 133.344 277.184 132.923 277.206C131.765 277.266 130.864 277.459 130.062 277.826C129.728 277.553 129.348 277.265 128.92 276.961L128.537 276.695Z" fill="#00160A"/>
<path fill-rule="evenodd" clip-rule="evenodd" d="M154.641 255.77L155.167 256.94L156.367 257.284C156.432 257.303 156.469 257.37 156.451 257.435C156.445 257.455 156.434 257.473 156.419 257.488L155.508 258.396L155.559 259.702C155.561 259.769 155.509 259.826 155.441 259.828C155.419 259.829 155.396 259.824 155.376 259.812L154.344 259.225C154.312 259.206 154.273 259.204 154.239 259.217L153.135 259.656C153.072 259.681 153.001 259.65 152.976 259.587C152.968 259.566 152.965 259.543 152.969 259.52L153.202 258.234L152.425 257.209C152.385 257.155 152.395 257.078 152.449 257.038C152.466 257.025 152.485 257.017 152.506 257.014L153.742 256.84L154.426 255.755C154.462 255.698 154.537 255.681 154.594 255.717C154.615 255.73 154.631 255.748 154.641 255.77Z" fill="#00160A"/>
<path fill-rule="evenodd" clip-rule="evenodd" d="M88.4255 247.733L89.3201 248.652L90.5653 248.566C90.6326 248.561 90.691 248.612 90.6957 248.679C90.6972 248.7 90.6933 248.721 90.6844 248.74L90.1382 249.904L90.6329 251.114C90.6584 251.176 90.6285 251.248 90.566 251.273C90.5449 251.282 90.5218 251.284 90.4993 251.281L89.3285 251.081C89.2919 251.075 89.2545 251.086 89.2267 251.11L88.3395 251.9C88.2891 251.945 88.2118 251.94 88.167 251.89C88.1518 251.873 88.1417 251.852 88.1378 251.829L87.9162 250.541L86.8359 249.843C86.7792 249.806 86.763 249.731 86.7996 249.674C86.8109 249.657 86.8265 249.642 86.8448 249.633L87.9468 249.046L88.2185 247.793C88.2328 247.727 88.2978 247.685 88.3638 247.699C88.3873 247.704 88.4087 247.716 88.4255 247.733Z" fill="#00160A"/>
<path fill-rule="evenodd" clip-rule="evenodd" d="M74.4556 163.976L74.9819 165.145L76.1817 165.49C76.2466 165.508 76.2841 165.576 76.2655 165.641C76.2597 165.661 76.249 165.679 76.2342 165.694L75.3227 166.601L75.3737 167.907C75.3764 167.975 75.3238 168.032 75.2564 168.034C75.2336 168.035 75.211 168.03 75.1911 168.018L74.1591 167.431C74.1269 167.412 74.088 167.409 74.0535 167.423L72.9498 167.862C72.8871 167.886 72.816 167.856 72.7911 167.793C72.7827 167.772 72.7804 167.749 72.7844 167.726L73.0168 166.44L72.2404 165.415C72.1996 165.361 72.2102 165.284 72.264 165.243C72.2806 165.231 72.3001 165.223 72.3207 165.22L73.5568 165.046L74.2408 163.961C74.2768 163.904 74.3522 163.887 74.4093 163.923C74.4296 163.935 74.4457 163.954 74.4556 163.976Z" fill="#00160A"/>
<path fill-rule="evenodd" clip-rule="evenodd" d="M74.3331 165.141L74.5566 165.638L75.0663 165.784C75.0938 165.792 75.1097 165.82 75.1018 165.848C75.0994 165.857 75.0948 165.864 75.0886 165.87L74.7014 166.256L74.7231 166.811C74.7242 166.839 74.7019 166.863 74.6732 166.865C74.6635 166.865 74.6539 166.863 74.6455 166.858L74.2071 166.608C74.1934 166.6 74.1769 166.599 74.1623 166.605L73.6935 166.791C73.6668 166.802 73.6366 166.789 73.6261 166.762C73.6225 166.753 73.6215 166.743 73.6232 166.734L73.7219 166.187L73.3921 165.752C73.3748 165.729 73.3793 165.696 73.4022 165.679C73.4092 165.674 73.4175 165.67 73.4263 165.669L73.9513 165.595L74.2418 165.134C74.2571 165.11 74.2892 165.103 74.3134 165.118C74.322 165.124 74.3289 165.131 74.3331 165.141Z" fill="#E7EAEE"/>
<path fill-rule="evenodd" clip-rule="evenodd" d="M11.8867 215.292L12.4131 216.461L13.6129 216.806C13.6777 216.824 13.7152 216.892 13.6966 216.957C13.6909 216.977 13.6801 216.995 13.6654 217.01L12.7538 217.917L12.8049 219.223C12.8075 219.291 12.755 219.348 12.6875 219.35C12.6647 219.351 12.6421 219.346 12.6223 219.334L11.5903 218.747C11.558 218.728 11.5192 218.725 11.4847 218.739L10.381 219.178C10.3182 219.202 10.2472 219.172 10.2223 219.109C10.2138 219.088 10.2115 219.065 10.2156 219.042L10.4479 217.756L9.67151 216.731C9.63077 216.677 9.64137 216.6 9.69518 216.559C9.71177 216.547 9.73129 216.539 9.7519 216.536L10.988 216.362L11.6719 215.277C11.7079 215.22 11.7834 215.203 11.8405 215.239C11.8608 215.251 11.8769 215.27 11.8867 215.292Z" fill="#00160A"/>
<path fill-rule="evenodd" clip-rule="evenodd" d="M64.7687 110.268L65.151 110.535C65.58 110.839 67.1817 112.349 67.5167 112.623C68.3176 112.255 69.2179 112.062 70.3764 112.001C70.7977 111.979 71.157 112.303 71.179 112.724C71.201 113.146 70.8774 113.505 70.4561 113.527C69.7886 113.562 69.2383 113.643 68.7499 113.789C69.4898 114.635 69.7642 115.375 69.7785 116.152L69.7786 116.303C69.7786 116.724 69.4366 117.066 69.0148 117.066C68.6193 117.066 68.2941 116.766 68.255 116.381L68.251 116.303L68.251 116.175C68.2397 115.676 68.0295 115.173 67.3389 114.489C67.0279 114.712 66.7188 114.981 66.389 115.302L65.5786 116.121C65.2816 116.421 64.798 116.423 64.4984 116.126C64.1988 115.829 64.1967 115.345 64.4937 115.046L65.1691 114.36C65.5022 114.027 65.8227 113.734 66.1436 113.479C65.58 112.192 63.468 110.813 63.7067 110.465C63.9455 110.118 64.4209 110.029 64.7687 110.268Z" fill="#00160A"/>
<path fill-rule="evenodd" clip-rule="evenodd" d="M212.133 198.354L213.173 199.104L214.385 198.802C214.45 198.786 214.516 198.825 214.533 198.891C214.538 198.911 214.537 198.932 214.532 198.952L214.196 200.194L214.894 201.3C214.93 201.357 214.912 201.432 214.855 201.468C214.836 201.48 214.814 201.487 214.791 201.487L213.603 201.494C213.566 201.494 213.531 201.511 213.508 201.54L212.772 202.472C212.73 202.525 212.653 202.534 212.6 202.492C212.582 202.478 212.568 202.459 212.561 202.437L212.119 201.207L210.934 200.707C210.871 200.681 210.842 200.61 210.869 200.547C210.877 200.528 210.889 200.511 210.906 200.499L211.889 199.73L211.939 198.448C211.942 198.381 211.999 198.328 212.066 198.331C212.09 198.332 212.113 198.34 212.133 198.354Z" fill="#00160A"/>
<path fill-rule="evenodd" clip-rule="evenodd" d="M224.086 150.485L224.401 151.728L225.523 152.276C225.584 152.305 225.609 152.378 225.579 152.439C225.57 152.458 225.556 152.474 225.539 152.486L224.484 153.221L224.307 154.516C224.298 154.583 224.237 154.63 224.17 154.621C224.147 154.618 224.126 154.608 224.108 154.594L223.194 153.836C223.166 153.812 223.128 153.802 223.091 153.81L221.928 154.05C221.862 154.064 221.798 154.021 221.784 153.955C221.779 153.933 221.781 153.909 221.789 153.888L222.241 152.662L221.655 151.517C221.624 151.457 221.648 151.383 221.708 151.353C221.726 151.343 221.747 151.338 221.768 151.339L223.015 151.382L223.877 150.433C223.922 150.383 224 150.379 224.05 150.424C224.067 150.44 224.08 150.462 224.086 150.485Z" fill="#00160A"/>
<path fill-rule="evenodd" clip-rule="evenodd" d="M196.865 100.45L197.18 101.693L198.302 102.24C198.362 102.27 198.388 102.343 198.358 102.404C198.349 102.422 198.335 102.438 198.318 102.45L197.263 103.186L197.086 104.481C197.077 104.548 197.016 104.594 196.949 104.585C196.926 104.582 196.905 104.573 196.887 104.558L195.973 103.8C195.944 103.777 195.907 103.767 195.87 103.775L194.707 104.015C194.641 104.028 194.576 103.986 194.563 103.92C194.558 103.897 194.56 103.874 194.568 103.853L195.02 102.627L194.433 101.482C194.403 101.422 194.426 101.348 194.486 101.317C194.505 101.308 194.526 101.303 194.546 101.304L195.794 101.347L196.656 100.397C196.701 100.348 196.779 100.344 196.828 100.389C196.846 100.405 196.859 100.426 196.865 100.45Z" fill="#00160A"/>
<path fill-rule="evenodd" clip-rule="evenodd" d="M277.284 112.631L277.748 112.59C278.272 112.547 278.748 112.523 279.181 112.518C279.558 111.721 280.123 110.995 280.972 110.204C281.28 109.916 281.764 109.933 282.051 110.242C282.339 110.55 282.322 111.033 282.013 111.321C281.525 111.777 281.155 112.193 280.875 112.619C281.985 112.791 282.671 113.181 283.182 113.768L283.279 113.883C283.55 114.206 283.508 114.688 283.184 114.959C282.882 115.213 282.439 115.192 282.162 114.922L282.108 114.865L282.026 114.767C281.697 114.392 281.213 114.142 280.244 114.062C280.149 114.433 280.085 114.837 280.039 115.295L279.945 116.444C279.91 116.864 279.541 117.177 279.12 117.142C278.7 117.107 278.387 116.738 278.422 116.317L278.499 115.358C278.54 114.888 278.597 114.458 278.679 114.056C278.307 114.075 277.892 114.107 277.431 114.152C277.011 114.192 276.637 113.885 276.597 113.465C276.556 113.045 276.864 112.672 277.284 112.631Z" fill="#00160A"/>
<path fill-rule="evenodd" clip-rule="evenodd" d="M215.608 165.355C215.47 165.704 215.168 166.188 214.816 166.645L215.119 166.959L215.47 167.333L215.548 167.408C215.582 167.438 215.609 167.456 215.628 167.461C215.742 167.478 215.821 167.582 215.805 167.697C215.789 167.808 215.685 167.889 215.571 167.873C215.469 167.87 215.095 167.725 214.65 167.363C214.57 167.298 214.49 167.222 214.408 167.14C214.151 167.426 213.892 167.672 213.668 167.824C213.339 168.052 213.053 168.07 212.917 167.978C212.783 167.888 212.654 167.587 212.872 166.978C212.906 166.868 213.024 166.81 213.133 166.844C213.241 166.879 213.301 166.995 213.267 167.105C213.234 167.218 213.229 167.321 213.229 167.404L213.355 167.317C213.4 167.285 213.446 167.249 213.488 167.207C213.641 167.057 213.811 166.874 213.983 166.676C213.711 166.36 213.435 165.99 213.211 165.562C213.102 165.354 213.014 165.133 212.932 164.9C212.875 164.77 212.934 164.617 213.064 164.56C213.194 164.502 213.347 164.562 213.404 164.692C213.653 165.214 213.972 165.664 214.286 166.049L214.391 166.175C214.677 165.8 214.923 165.421 215.035 165.132C215.097 164.975 215.275 164.897 215.433 164.957C215.592 165.02 215.67 165.198 215.608 165.355Z" fill="#E7EAEE"/>
<path fill-rule="evenodd" clip-rule="evenodd" d="M208.151 9.69435C208.616 9.61328 209.059 9.92487 209.14 10.3903C209.221 10.8557 208.91 11.2988 208.444 11.3798C206.23 11.7654 203.566 13.0886 201.265 15.2198C198.276 17.9872 196.071 21.893 194.983 26.9914C194.106 31.0991 194.912 36.5073 197.204 41.0195C199.812 46.1529 204.003 49.6431 209.382 50.6256C214.904 51.6341 219.576 51.0078 224.793 49.1528L225.274 48.9784C225.425 48.9211 225.694 48.8173 226.032 48.6869L226.04 48.6839L226.04 48.6837L226.041 48.6835L226.041 48.6835C227.298 48.1986 229.492 47.3519 230.122 47.1613C231.809 46.6512 232.96 46.6939 233.794 47.583C234.118 47.9275 234.101 48.4689 233.756 48.7922C233.433 49.0953 232.937 49.0991 232.61 48.8145L232.547 48.7538C232.301 48.4915 231.792 48.4611 230.768 48.7548L230.618 48.799C230.062 48.967 228.029 49.7511 226.761 50.2399L226.761 50.24C226.27 50.4293 225.894 50.5744 225.763 50.6221C220.127 52.6792 215.07 53.4037 209.075 52.3086C203.134 51.2235 198.515 47.3775 195.679 41.7943C193.214 36.9421 192.349 31.1362 193.31 26.6343C194.472 21.1928 196.853 16.9727 200.102 13.9645C202.645 11.6096 205.611 10.1367 208.151 9.69435ZM213.936 13.827C214.4 13.7362 214.849 14.0384 214.94 14.5021C215.031 14.9657 214.729 15.4152 214.265 15.506C207.332 16.8638 201.756 22.1594 200.139 29.164C199.592 31.5346 199.757 33.4622 200.294 34.1976L200.365 34.2898L200.371 34.3027L200.381 34.2949C200.573 34.1213 200.798 33.678 200.973 32.9906L201.009 32.8396C202.672 25.6355 208.165 20.0591 215.18 18.1864C215.636 18.0646 216.105 18.3358 216.227 18.7923C216.349 19.2487 216.078 19.7175 215.621 19.8394C209.301 21.5266 204.335 26.5026 202.741 32.9511L202.676 33.2245C202.09 35.7653 200.405 36.9781 199.041 35.3698C198.043 34.1934 197.798 31.6973 198.472 28.7791C200.242 21.111 206.346 15.3134 213.936 13.827ZM224.224 23.2163C224.191 22.745 223.781 22.3903 223.31 22.4239C214.984 23.0179 207.683 28.4255 204.778 36.4069C203.676 39.4355 203.61 42.1288 204.512 43.5024C205.723 45.3448 207.627 44.2996 208.577 41.691L208.676 41.4233C211.245 34.6687 217.266 29.9511 224.313 28.9674C224.781 28.9021 225.107 28.4698 225.042 28.0019C224.977 27.534 224.544 27.2076 224.077 27.2729C216.315 28.3563 209.698 33.6074 206.969 41.1059L206.909 41.2661C206.605 42.0465 206.273 42.517 206.021 42.6551L206.01 42.6626C206.008 42.6642 206.007 42.6655 206.006 42.6666C206.005 42.6672 206.004 42.6677 206.004 42.6682C206.003 42.669 206.002 42.6694 206.002 42.6693C206 42.6691 205.999 42.6667 205.997 42.661C205.992 42.6484 205.98 42.6195 205.942 42.5629L205.897 42.4884C205.4 41.6082 205.476 39.4906 206.386 36.9921C209.058 29.6506 215.773 24.6768 223.432 24.1304C223.903 24.0968 224.258 23.6875 224.224 23.2163ZM227.95 31.5323C228.421 31.4987 228.831 31.8534 228.864 32.3247C228.898 32.7959 228.543 33.2052 228.072 33.2388C222.702 33.6219 217.994 37.1091 216.12 42.2564C215.565 43.7822 215.462 45.0868 215.66 45.7475L215.685 45.8212L215.723 45.7666C215.818 45.6218 215.926 45.4137 216.031 45.1438L216.076 45.0244C218.055 39.5875 222.853 35.7799 228.48 34.9943C228.948 34.929 229.381 35.2554 229.446 35.7233C229.511 36.1912 229.185 36.6235 228.717 36.6888C223.794 37.3759 219.586 40.6614 217.774 45.369L217.684 45.6096C216.95 47.6258 215.363 48.4968 214.349 46.9529C213.653 45.895 213.702 43.8979 214.512 41.6712C216.619 35.884 221.913 31.963 227.95 31.5323ZM232.459 38.4246C232.425 37.9533 232.016 37.5986 231.544 37.6322C227.502 37.9206 223.956 40.5467 222.545 44.4224C221.989 45.9504 221.955 47.341 222.47 48.124C223.313 49.4078 224.624 48.6885 225.17 47.1884L225.244 46.9914C226.393 44.0564 229.027 42.0102 232.106 41.5804C232.574 41.5151 232.9 41.0828 232.835 40.6149C232.769 40.147 232.337 39.8206 231.869 39.886L231.652 39.9185C228.338 40.4524 225.478 42.5562 223.996 45.584L223.944 45.6918L223.976 45.569C224.023 45.3903 224.082 45.2023 224.153 45.0075C225.331 41.7717 228.29 39.5796 231.666 39.3387C232.137 39.3051 232.492 38.8958 232.459 38.4246Z" fill="#00160A"/>
<path fill-rule="evenodd" clip-rule="evenodd" d="M227.95 31.5323C228.421 31.4987 228.83 31.8535 228.864 32.3247C228.898 32.796 228.543 33.2052 228.072 33.2389C222.702 33.6219 217.994 37.1091 216.12 42.2564C215.565 43.7823 215.461 45.0868 215.66 45.7475L215.685 45.8213L215.722 45.7667C215.818 45.6218 215.925 45.4137 216.031 45.1439L216.076 45.0245C218.055 39.5875 222.853 35.7799 228.48 34.9944C228.948 34.9291 229.38 35.2554 229.446 35.7233C229.511 36.1912 229.185 36.6235 228.717 36.6888C223.794 37.376 219.586 40.6615 217.774 45.369L217.684 45.6096C216.95 47.6258 215.363 48.4968 214.348 46.953C213.653 45.895 213.702 43.8979 214.512 41.6713C216.619 35.8841 221.913 31.963 227.95 31.5323Z" fill="#00160A"/>
<path d="M174.675 142.908C192.609 134.519 207.603 130.088 216.938 129.275C219.797 129.025 221.094 130.602 220.37 133.165C219.832 135.069 218.195 137.681 215.686 140.774C211.312 146.167 205.544 150.782 199.8 155.074C208.989 146.593 211.333 143.045 214.167 139.551L214.612 138.996C216.713 136.339 218.071 134.119 218.489 132.638L218.549 132.413C218.809 131.344 218.508 131.091 217.108 131.213C207.984 132.008 193.047 136.448 175.179 144.825C157.282 153.216 156.77 151.283 174.675 142.908Z" fill="white"/>
<path d="M92.6536 115.771L92.7847 116.083C93.6932 118.237 94.6373 120.371 95.7089 122.698L96.1255 123.6C95.9889 123.692 95.8093 123.789 95.6118 123.876C95.3282 124 95.0403 124.086 94.8238 124.116L94.7549 124.123L94.6508 123.998C93.8409 123.001 92.9011 121.307 92.2219 119.622C91.8602 118.725 91.6025 117.902 91.4864 117.27C91.439 117.012 91.4172 116.796 91.4191 116.632L91.424 116.524C91.4257 116.497 91.4258 116.484 91.4193 116.482L91.4449 116.464C91.5895 116.365 91.959 116.148 92.5078 115.85L92.6536 115.771Z" fill="white"/>
<path fill-rule="evenodd" clip-rule="evenodd" d="M115.325 107.967C115.886 107.28 116.614 107.383 117.536 107.942L117.773 108.091L118.435 108.53C118.621 108.649 118.701 108.69 118.809 108.733C119.06 108.833 119.182 109.118 119.082 109.368C118.983 109.619 118.698 109.742 118.447 109.642L118.358 109.605C118.189 109.532 118.061 109.457 117.717 109.229L117.242 108.912C117.163 108.861 117.096 108.818 117.029 108.778C116.477 108.443 116.227 108.408 116.082 108.586C115.99 108.698 116.013 108.937 116.194 109.426L116.394 109.94C116.79 110.993 116.793 111.463 116.086 111.865C115.478 112.211 115.167 112.049 114.294 111.193L114.082 110.984C113.523 110.425 113.229 110.231 113.041 110.271C112.978 110.284 112.905 110.328 112.815 110.424C112.711 110.535 112.681 110.892 112.745 111.526L112.844 112.353C112.959 113.365 112.912 113.627 112.495 113.906C111.92 114.291 111.155 113.856 109.737 112.583C109.536 112.402 109.519 112.093 109.7 111.892C109.88 111.692 110.189 111.675 110.39 111.855C110.996 112.4 111.454 112.754 111.774 112.936L111.845 112.975L111.905 113.005L111.906 112.944L111.903 112.797C111.896 112.677 111.881 112.532 111.851 112.286L111.789 111.778C111.67 110.748 111.707 110.176 112.102 109.755C112.322 109.521 112.568 109.371 112.838 109.314C113.466 109.181 113.912 109.45 114.653 110.174L115.027 110.542C115.43 110.929 115.58 111.028 115.603 111.015C115.695 110.963 115.681 110.801 115.433 110.165L115.325 109.89C114.979 109.002 114.913 108.47 115.325 107.967Z" fill="#00160A"/>
<path fill-rule="evenodd" clip-rule="evenodd" d="M168.69 28.4037L168.225 28.4451C167.805 28.4857 167.498 28.859 167.539 29.2789C167.563 29.5327 167.709 29.7455 167.914 29.865L167.833 29.9224C167.489 30.1659 167.407 30.6425 167.65 30.9869C167.894 31.3314 168.37 31.4133 168.715 31.1698L169.5 30.614C169.477 30.7938 169.457 30.9794 169.44 31.1715L169.364 32.1312C169.329 32.5516 169.642 32.9207 170.062 32.9556C170.482 32.9905 170.851 32.678 170.886 32.2576L170.981 31.1092C171.005 30.8634 171.035 30.633 171.072 30.415C171.341 30.9238 171.394 31.3158 171.337 31.6865L171.315 31.8126L171.306 31.8902C171.277 32.2762 171.545 32.6287 171.935 32.6974C172.35 32.7706 172.746 32.4932 172.82 32.0778L172.846 31.9299C172.927 31.4145 172.89 30.8956 172.681 30.3196C172.79 30.3981 172.884 30.4854 172.968 30.5808L173.05 30.6788L173.103 30.7361C173.381 31.006 173.823 31.0272 174.126 30.773C174.449 30.5018 174.492 30.0201 174.22 29.6969L174.124 29.582C174.089 29.5426 174.054 29.504 174.018 29.4664C174.417 29.4897 174.771 29.1992 174.82 28.7971C174.872 28.3784 174.574 27.9973 174.155 27.9458C173.435 27.8573 172.806 27.8373 172.226 27.8894C172.434 27.6448 172.675 27.3965 172.955 27.1351C173.264 26.8475 173.281 26.3642 172.993 26.0556C172.705 25.7471 172.222 25.7301 171.914 26.0177C171.396 26.5002 170.984 26.9588 170.655 27.4238C170.528 27.2892 170.395 27.1513 170.255 27.0097L169.925 26.6807C169.624 26.3851 169.14 26.3896 168.845 26.6906C168.549 26.9916 168.554 27.4752 168.855 27.7707C169.064 27.9759 169.257 28.1701 169.435 28.3541C169.198 28.366 168.95 28.3825 168.69 28.4037Z" fill="#00160A"/>
<path fill-rule="evenodd" clip-rule="evenodd" d="M140.184 33.9217C139.87 33.6002 139.363 33.6092 139.05 33.9417C138.737 34.2742 138.738 34.8043 139.051 35.1257C139.349 35.4305 139.614 35.713 139.852 35.976C139.35 36.1889 138.845 36.4646 138.306 36.8051L137.487 37.3304C137.127 37.5595 137.049 38.0177 137.311 38.354C137.574 38.6902 138.079 38.7771 138.438 38.548L139.42 37.9215C139.933 37.6073 140.395 37.3696 140.86 37.2028C141.566 38.1846 141.714 38.8139 141.624 39.3973L141.6 39.5357L141.589 39.6208C141.556 40.0443 141.834 40.4284 142.242 40.5004C142.678 40.5772 143.096 40.2697 143.176 39.8137L143.205 39.6513C143.339 38.8051 143.195 37.9525 142.589 36.8994C143 36.893 143.449 36.9235 143.957 36.9885C144.4 37.0451 144.797 36.7644 144.845 36.3616C144.892 35.9587 144.571 35.5862 144.129 35.5296C143.158 35.4055 142.344 35.3913 141.599 35.4919C141.292 35.1151 140.937 34.7127 140.528 34.2796L140.184 33.9217Z" fill="#E7EAEE"/>
<path fill-rule="evenodd" clip-rule="evenodd" d="M40.8262 161.027L41.3525 162.196L42.5523 162.541C42.6172 162.559 42.6547 162.627 42.6361 162.692C42.6303 162.712 42.6196 162.73 42.6048 162.745L41.6933 163.652L41.7443 164.958C41.747 165.026 41.6944 165.082 41.627 165.085C41.6042 165.086 41.5816 165.08 41.5617 165.069L40.5297 164.481C40.4975 164.463 40.4586 164.46 40.4242 164.474L39.3204 164.912C39.2577 164.937 39.1866 164.907 39.1617 164.844C39.1533 164.823 39.151 164.8 39.155 164.777L39.3874 163.491L38.611 162.465C38.5702 162.412 38.5808 162.335 38.6346 162.294C38.6512 162.282 38.6707 162.273 38.6914 162.271L39.9274 162.097L40.6114 161.012C40.6474 160.954 40.7228 160.937 40.7799 160.973C40.8002 160.986 40.8163 161.005 40.8262 161.027Z" fill="#00160A"/>
<path fill-rule="evenodd" clip-rule="evenodd" d="M47.8443 96.1098L48.3706 97.2794L49.5704 97.6238C49.6353 97.6424 49.6728 97.7101 49.6541 97.7749C49.6484 97.7949 49.6376 97.8131 49.6229 97.8278L48.7113 98.7353L48.7624 100.041C48.765 100.109 48.7125 100.166 48.6451 100.168C48.6222 100.169 48.5996 100.164 48.5798 100.152L47.5478 99.5645C47.5156 99.5462 47.4767 99.5434 47.4422 99.5571L46.3385 99.9955C46.2757 100.02 46.2047 99.9898 46.1798 99.9271C46.1714 99.9058 46.169 99.8827 46.1731 99.8602L46.4054 98.5741L45.629 97.5486C45.5883 97.4947 45.5989 97.4181 45.6527 97.3774C45.6693 97.3648 45.6888 97.3567 45.7094 97.3538L46.9455 97.1797L47.6294 96.0948C47.6654 96.0377 47.7409 96.0206 47.798 96.0566C47.8183 96.0694 47.8344 96.0879 47.8443 96.1098Z" fill="#00160A"/>
<path d="M63.741 199.465C64.1331 199.18 64.6816 199.267 64.9663 199.659C65.251 200.051 52.84 210.16 48.0254 214.793L47.4658 215.336C44.7159 218.026 42.6883 220.356 41.5454 222.198C40.3344 224.15 40.2567 225.21 41.0386 225.643C44.005 227.287 48.27 228.088 54.3783 227.077L55.006 226.97C57.3311 226.562 74.8215 222.748 74.5446 222.849L74.437 222.881C73.8856 223.027 66.7638 225.49 64.3058 226.116L64.0086 226.191C60.2509 227.136 57.3104 227.784 54.665 228.223C48.201 229.293 43.5827 229.059 40.1881 227.178C38.2292 226.092 38.3852 223.964 40.0546 221.273C41.3676 219.157 43.6771 216.542 46.8089 213.529C51.6878 208.834 58.5502 203.234 63.741 199.465Z" fill="white"/>
</svg>
