<svg width="76" height="66" viewBox="0 0 76 66" fill="none" xmlns="http://www.w3.org/2000/svg">
<path fill-rule="evenodd" clip-rule="evenodd" d="M59.751 20.8842C61.1652 15.3119 62.943 4.9787 56.676 1.4754C50.4382 -2.01263 42.321 4.67107 38.0348 8.68295C33.761 4.71105 25.4158 -1.94408 19.1541 1.57035C12.9188 5.07007 14.8416 15.232 16.2872 20.8392C10.4708 22.441 0.5 25.891 0.5 32.9397C0.5 39.9685 10.4604 43.722 16.2424 45.3222C14.7914 50.9605 12.9649 60.9772 19.2082 64.4692C25.4932 67.983 33.8125 61.4862 38.1385 57.4305C42.4523 61.466 50.4915 68.0052 56.7305 64.5035C62.989 60.9907 61.359 50.796 59.9133 45.1562C65.5183 43.5525 75.5 39.8807 75.5 32.9397C75.5 25.9587 65.4757 22.4807 59.751 20.8842ZM59.0405 42.1675C58.0913 39.254 56.81 36.1557 55.2428 32.9552C56.7388 29.8302 57.9703 26.772 58.893 23.8772C63.0898 25.057 72.2962 27.7532 72.2962 32.9397C72.2962 38.175 63.4615 40.8967 59.0405 42.1675ZM55.125 61.815C50.47 64.4275 43.5552 58.174 40.3695 55.2022C42.483 52.961 44.595 50.3555 46.6562 47.4622C50.2822 47.1505 53.7075 46.6405 56.814 45.9442C57.8315 49.9335 59.8005 59.1907 55.125 61.815ZM20.809 61.7777C16.1536 59.175 18.2814 50.2365 19.3489 46.0832C22.4208 46.7422 25.8215 47.2162 29.456 47.502C31.5308 50.333 33.704 52.9352 35.894 55.2142C33.1883 57.752 25.4862 64.3925 20.809 61.7777ZM3.70373 32.9397C3.70373 27.685 12.8552 25.0082 17.1476 23.8315C18.0863 26.7912 19.3174 29.886 20.8031 33.0155C19.2981 36.1915 18.0494 39.3352 17.1021 42.33C13.0092 41.194 3.70373 38.1977 3.70373 32.9397ZM20.7592 4.25885C25.4337 1.6354 32.6867 8.02457 35.7897 10.9003C33.611 13.1688 31.4577 15.7515 29.4007 18.5662C25.8735 18.8832 22.4969 19.3922 19.3927 20.0742C18.2281 15.5518 16.0898 6.87947 20.7592 4.25885ZM48.9482 21.9427C51.3412 22.2355 53.634 22.625 55.7868 23.1015C55.1405 25.11 54.335 27.2102 53.3862 29.3632C52.011 26.8332 50.5347 24.354 48.9482 21.9427ZM38.0357 13.1202C39.5135 14.6724 40.9935 16.4057 42.4495 18.2862C39.4963 18.1507 36.5382 18.1502 33.585 18.2842C35.0422 16.4212 36.535 14.6904 38.0357 13.1202ZM22.6412 29.361C21.7082 27.2155 20.91 25.106 20.2581 23.0687C22.398 22.6045 24.68 22.225 27.0575 21.937C25.4665 24.343 23.9927 26.8212 22.6412 29.361ZM27.1257 44.1642C24.6697 43.8985 22.3531 43.5382 20.2139 43.0867C20.8761 41.0137 21.6919 38.8587 22.6449 36.667C24.015 39.2332 25.5112 41.7355 27.1257 44.1642ZM38.1245 52.9787C36.606 51.39 35.0912 49.6327 33.612 47.7427C36.582 47.8557 39.5578 47.856 42.5275 47.7275C41.067 49.652 39.5923 51.4117 38.1245 52.9787ZM53.4168 36.5555C54.4193 38.771 55.2643 40.9142 55.9355 42.9522C53.7608 43.4335 51.413 43.821 48.9393 44.1087C50.5375 41.6517 52.0373 39.134 53.4168 36.5555ZM44.8682 44.4852C40.3252 44.8 35.754 44.7965 31.2095 44.511C28.6272 40.8537 26.3285 37.0075 24.3442 33.0145C26.319 29.0297 28.601 25.191 31.171 21.5395C35.7188 21.2062 40.2945 21.2052 44.8423 21.5415C47.3903 25.1927 49.6688 29.0215 51.6893 32.9702C49.6928 36.953 47.3987 40.7995 44.8682 44.4852ZM55.0757 4.1665C59.7515 6.78135 57.6703 16.0681 56.6488 20.1065C53.5373 19.4102 50.1583 18.8922 46.6208 18.5702C44.5598 15.7251 42.4245 13.1379 40.281 10.8987C43.4237 7.96102 50.4452 1.57722 55.0757 4.1665Z" fill="#53C1DE"/>
</svg>
