<svg width="80" height="80" viewBox="0 0 80 80" fill="none" xmlns="http://www.w3.org/2000/svg">
<path d="M46.6972 39.9397C46.6972 36.3537 43.699 33.4462 40 33.4462C36.3015 33.4462 33.3027 36.3537 33.3027 39.9397C33.3027 43.5262 36.3015 46.4335 40 46.4335C43.699 46.4335 46.6972 43.5262 46.6972 39.9397Z" fill="#53C1DE"/>
<path fill-rule="evenodd" clip-rule="evenodd" d="M61.751 27.8842C63.1652 22.3119 64.943 11.9787 58.676 8.4754C52.4382 4.98737 44.321 11.6711 40.0348 15.6829C35.761 11.711 27.4157 5.05592 21.1541 8.57035C14.9188 12.0701 16.8416 22.232 18.2872 27.8392C12.4708 29.441 2.5 32.891 2.5 39.9397C2.5 46.9685 12.4604 50.722 18.2424 52.3222C16.7914 57.9605 14.9649 67.9772 21.2082 71.4692C27.4932 74.983 35.8125 68.4862 40.1385 64.4305C44.4523 68.466 52.4915 75.0052 58.7305 71.5035C64.989 67.9907 63.359 57.796 61.9133 52.1562C67.5182 50.5525 77.5 46.8807 77.5 39.9397C77.5 32.9587 67.4757 29.4807 61.751 27.8842ZM61.0405 49.1675C60.0913 46.254 58.81 43.1557 57.2428 39.9552C58.7388 36.8302 59.9703 33.772 60.893 30.8772C65.0898 32.057 74.2962 34.7532 74.2962 39.9397C74.2962 45.175 65.4615 47.8967 61.0405 49.1675ZM57.125 68.815C52.47 71.4275 45.5552 65.174 42.3695 62.2022C44.483 59.961 46.595 57.3555 48.6562 54.4622C52.2822 54.1505 55.7075 53.6405 58.814 52.9442C59.8315 56.9335 61.8005 66.1907 57.125 68.815ZM22.809 68.7777C18.1536 66.175 20.2815 57.2365 21.3489 53.0832C24.4208 53.7422 27.8215 54.2162 31.456 54.502C33.5308 57.333 35.704 59.9352 37.894 62.2142C35.1883 64.752 27.4862 71.3925 22.809 68.7777ZM5.70373 39.9397C5.70373 34.685 14.8552 32.0082 19.1476 30.8315C20.0863 33.7912 21.3174 36.886 22.8031 40.0155C21.2981 43.1915 20.0494 46.3352 19.1021 49.33C15.0092 48.194 5.70373 45.1977 5.70373 39.9397ZM22.7592 11.2588C27.4337 8.6354 34.6867 15.0246 37.7897 17.9003C35.611 20.1688 33.4578 22.7515 31.4007 25.5662C27.8735 25.8832 24.4969 26.3922 21.3927 27.0742C20.2281 22.5518 18.0898 13.8795 22.7592 11.2588ZM50.9482 28.9427C53.3412 29.2355 55.634 29.625 57.7868 30.1015C57.1405 32.11 56.335 34.2102 55.3862 36.3632C54.011 33.8332 52.5347 31.354 50.9482 28.9427ZM40.0357 20.1202C41.5135 21.6724 42.9935 23.4057 44.4495 25.2862C41.4963 25.1507 38.5382 25.1502 35.585 25.2842C37.0423 23.4212 38.535 21.6904 40.0357 20.1202ZM24.6412 36.361C23.7082 34.2155 22.91 32.106 22.2581 30.0687C24.398 29.6045 26.68 29.225 29.0575 28.937C27.4665 31.343 25.9927 33.8212 24.6412 36.361ZM29.1257 51.1642C26.6698 50.8985 24.3531 50.5382 22.2139 50.0867C22.8761 48.0137 23.6919 45.8587 24.6449 43.667C26.015 46.2332 27.5112 48.7355 29.1257 51.1642ZM40.1245 59.9787C38.606 58.39 37.0912 56.6327 35.612 54.7427C38.582 54.8557 41.5578 54.856 44.5275 54.7275C43.067 56.652 41.5923 58.4117 40.1245 59.9787ZM55.4168 43.5555C56.4193 45.771 57.2643 47.9142 57.9355 49.9522C55.7607 50.4335 53.413 50.821 50.9393 51.1087C52.5375 48.6517 54.0373 46.134 55.4168 43.5555ZM46.8682 51.4852C42.3252 51.8 37.754 51.7965 33.2095 51.511C30.6273 47.8537 28.3285 44.0075 26.3442 40.0145C28.319 36.0297 30.601 32.191 33.171 28.5395C37.7188 28.2062 42.2945 28.2052 46.8423 28.5415C49.3903 32.1927 51.6688 36.0215 53.6893 39.9702C51.6927 43.953 49.3987 47.7995 46.8682 51.4852ZM57.0757 11.1665C61.7515 13.7813 59.6702 23.0681 58.6488 27.1065C55.5372 26.4102 52.1582 25.8922 48.6208 25.5702C46.5597 22.7251 44.4245 20.1379 42.281 17.8987C45.4237 14.961 52.4452 8.57722 57.0757 11.1665Z" fill="#53C1DE"/>
</svg>
