<svg width="80" height="80" viewBox="0 0 80 80" fill="none" xmlns="http://www.w3.org/2000/svg">
<path d="M65.275 43.93C63.0767 43.9329 60.9079 44.4355 58.9325 45.4C58.314 44.3736 57.8364 43.2687 57.5125 42.115C57.3264 41.2106 57.2834 40.2827 57.385 39.365C57.5987 38.3552 57.8759 37.3599 58.215 36.385C58.2025 36.2575 58.0625 35.655 56.655 35.635C55.2475 35.615 54.035 35.9025 53.905 36.275C53.6606 36.9554 53.4642 37.6521 53.3175 38.36C52.1526 41.2338 50.7188 43.991 49.035 46.595C48.0917 45.0485 47.7037 43.2267 47.935 41.43C48.1487 40.4202 48.4259 39.4249 48.765 38.45C48.7525 38.3225 48.6125 37.72 47.205 37.7C45.7975 37.68 44.585 37.9675 44.455 38.34C44.325 38.7125 44.16 39.59 43.8675 40.425C43.575 41.26 40.16 48.89 39.265 50.8575C38.805 51.8575 38.4075 52.6725 38.1275 53.2225C38.1142 53.2582 38.0975 53.2925 38.0775 53.325C37.8275 53.7975 37.695 54.055 37.695 54.055V54.0675C37.5025 54.4125 37.2975 54.7325 37.195 54.7325C37.0162 54.0182 37.0248 53.2699 37.22 52.56C37.72 49.9125 38.945 45.7975 38.9325 45.655C38.9325 45.5775 39.1625 44.8625 38.14 44.4925C37.9029 44.3796 37.6366 44.3431 37.3778 44.3879C37.119 44.4326 36.8805 44.5565 36.695 44.7425C36.605 44.7425 36.5425 44.96 36.5425 44.96C36.5425 44.96 37.655 40.3325 34.42 40.3325C33.1602 40.5859 31.9639 41.0887 30.9013 41.8112C29.8387 42.5338 28.9313 43.4616 28.2325 44.54C27.3625 45.0125 25.51 46.0225 23.5275 47.11C22.7775 47.5325 21.9925 47.955 21.265 48.36C21.215 48.31 21.1625 48.245 21.1125 48.195C17.175 44 9.93751 41.04 10.25 35.4275C10.365 33.3825 11.0675 28.0125 24.1475 21.49C34.9125 16.185 43.48 17.655 44.9625 20.915C47.085 25.57 40.3725 34.2125 29.25 35.465C28.0195 35.7146 26.7487 35.6845 25.5314 35.3768C24.3141 35.0692 23.1816 34.4918 22.2175 33.6875C21.63 33.0475 21.54 33.01 21.3225 33.1375C20.965 33.33 21.195 33.905 21.3225 34.2375C21.7468 35.0054 22.3207 35.6804 23.0103 36.2227C23.6999 36.7651 24.4912 37.1637 25.3375 37.395C29.7131 38.3405 34.2751 37.8884 38.38 36.1025C45.13 33.495 50.38 26.245 48.84 20.1725C47.2925 14.01 37.065 11.9775 27.385 15.4225C21.3219 17.4627 15.7196 20.6762 10.8975 24.88C5.56501 29.8675 4.72251 34.2 5.06751 36.0175C6.31751 42.4625 15.195 46.655 18.7475 49.7675C18.5675 49.87 18.4025 49.96 18.2625 50.035C16.485 50.9175 9.71001 54.46 8.01251 58.205C6.09501 62.455 8.32001 65.4925 9.79001 65.9025C12.005 66.4327 14.3303 66.2581 16.4413 65.4029C18.5522 64.5478 20.3435 63.0548 21.565 61.1325C22.6052 59.538 23.2445 57.7158 23.4287 55.821C23.6128 53.9261 23.3362 52.0149 22.6225 50.25C22.6105 50.2215 22.5935 50.1952 22.5725 50.1725L23.965 49.355C24.8725 48.8175 25.7675 48.32 26.535 47.91C26.0146 49.4111 25.709 50.9783 25.6275 52.565C25.4508 54.9969 26.1951 57.4064 27.7125 59.315C27.9434 59.5137 28.2115 59.6647 28.5011 59.7591C28.7908 59.8535 29.0963 59.8895 29.4 59.865C30.9 59.865 31.5875 58.615 32.34 57.13C33.26 55.315 34.09 53.205 34.09 53.205C34.09 53.205 33.055 58.9075 35.8675 58.9075C36.89 58.9075 37.925 57.5775 38.3875 56.9075V56.92C38.3875 56.92 38.4125 56.8825 38.465 56.7925L38.63 56.525V56.5C39.04 55.785 39.96 54.16 41.3275 51.4625C43.0925 47.985 44.7925 43.6375 44.7925 43.6375C44.9565 44.5929 45.1828 45.5366 45.47 46.4625C45.8818 47.5848 46.3687 48.6781 46.9275 49.735C46.5175 50.31 46.2625 50.63 46.2625 50.63L46.275 50.6425C45.9425 51.0775 45.585 51.55 45.1875 52.01C44.0049 53.3102 42.9076 54.6856 41.9025 56.1275C41.7532 56.3697 41.7018 56.6597 41.759 56.9384C41.8161 57.2172 41.9774 57.4636 42.21 57.6275C42.7363 57.9013 43.3362 58.0003 43.9225 57.91C44.8061 57.8601 45.675 57.6615 46.4925 57.3225C47.2825 57.0445 48.0279 56.6529 48.705 56.16C49.4031 55.6764 49.965 55.0213 50.3367 54.2577C50.7084 53.4941 50.8774 52.6478 50.8275 51.8C50.7489 50.7321 50.4761 49.6875 50.0225 48.7175C50.15 48.5375 50.2725 48.36 50.3925 48.18C51.8138 46.0584 53.0949 43.8462 54.2275 41.5575C54.3915 42.5129 54.6178 43.4566 54.905 44.3825C55.2446 45.3524 55.6627 46.293 56.155 47.195C54.5199 48.453 53.2319 50.1066 52.4125 52C51.6075 54.3275 52.2325 55.375 53.4125 55.6175C54.0582 55.662 54.7038 55.5298 55.28 55.235C56.1272 54.9566 56.9253 54.5465 57.645 54.02C58.4039 53.5721 59.0395 52.9426 59.4947 52.1881C59.9498 51.4335 60.2103 50.5777 60.2525 49.6975C60.1958 48.8189 59.9974 47.9553 59.665 47.14C61.8228 46.297 64.1623 46.0283 66.455 46.36C72.54 47.075 73.7425 50.8725 73.5125 52.4725C73.4046 53.0397 73.1766 53.5773 72.8437 54.049C72.5108 54.5207 72.0808 54.9158 71.5825 55.2075C71.16 55.475 71.02 55.565 71.0575 55.7575C71.1075 56.04 71.3075 56.025 71.67 55.975C72.5871 55.6899 73.3963 55.1336 73.9908 54.3793C74.5852 53.6251 74.9371 52.7083 75 51.75C75.1925 48 71.6125 43.8875 65.2825 43.925L65.275 43.93ZM18.325 59.75C16.305 61.95 13.4925 62.78 12.2775 62.0775C10.9725 61.3275 11.485 58.0775 13.965 55.7475C15.4361 54.4232 17.0262 53.2374 18.715 52.205C19.01 52.025 19.445 51.77 19.965 51.455L20.105 51.3775L20.4125 51.185C20.8556 52.6695 20.8957 54.2451 20.5289 55.7502C20.1621 57.2554 19.4014 58.6358 18.325 59.75ZM33.0275 49.75C32.325 51.4625 30.855 55.85 29.96 55.605C29.1925 55.4 28.71 52.075 29.8075 48.79C30.3616 47.2086 31.1688 45.7277 32.1975 44.405C33.2975 43.1775 34.5125 42.7675 34.805 43.2675C34.5381 45.5047 33.9391 47.6896 33.0275 49.75ZM45.16 55.555C44.865 55.7075 44.585 55.805 44.4575 55.735C44.3675 55.685 44.585 55.485 44.585 55.485C44.585 55.485 46.1075 53.8475 46.7075 53.1075C47.0525 52.6725 47.4575 52.1625 47.8975 51.585V51.75C47.8975 53.705 46.005 55.0225 45.1625 55.56L45.16 55.555ZM54.52 53.42C54.3025 53.2675 54.34 52.755 55.07 51.1575C55.5776 50.1315 56.2867 49.2183 57.155 48.4725C57.2881 48.8509 57.3574 49.2488 57.36 49.65C57.3699 50.5038 57.0968 51.3369 56.5836 52.0194C56.0703 52.7018 55.3456 53.1951 54.5225 53.4225L54.52 53.42Z" fill="#CD6799"/>
</svg>
