<svg width="87" height="87" viewBox="0 0 87 87" fill="none" xmlns="http://www.w3.org/2000/svg">
<path d="M43.5 17.332C31.9 17.332 24.65 23.132 21.75 34.732C26.1 28.932 31.175 26.757 36.975 28.207C40.2842 29.0343 42.6495 31.4351 45.2675 34.0926C49.5325 38.4216 54.4686 43.432 65.25 43.432C76.85 43.432 84.1 37.632 87 26.032C82.65 31.832 77.575 34.007 71.775 32.557C68.4658 31.7297 66.1005 29.329 63.4825 26.6715C59.2175 22.3424 54.2814 17.332 43.5 17.332ZM21.75 43.432C10.15 43.432 2.9 49.232 0 60.832C4.35 55.032 9.425 52.857 15.225 54.307C18.5342 55.1343 20.8995 57.5351 23.5175 60.1926C27.7825 64.5216 32.7186 69.532 43.5 69.532C55.1 69.532 62.35 63.732 65.25 52.132C60.9 57.932 55.825 60.107 50.025 58.657C46.7158 57.8297 44.3505 55.429 41.7325 52.7715C37.4675 48.4424 32.5314 43.432 21.75 43.432Z" fill="url(#paint0_linear_23_4)"/>
<defs>
<linearGradient id="paint0_linear_23_4" x1="-241.667" y1="1687.73" x2="7272.21" y2="6020.06" gradientUnits="userSpaceOnUse">
<stop stop-color="#2298BD"/>
<stop offset="1" stop-color="#0ED7B5"/>
</linearGradient>
</defs>
</svg>
