<svg width="72" height="73" viewBox="0 0 72 73" fill="none" xmlns="http://www.w3.org/2000/svg">
<g clip-path="url(#clip0_90_66)">
<path d="M35.95 14.6154C26.3633 14.6154 20.3717 19.4088 17.975 28.9954C21.57 24.2021 25.7642 22.4046 30.5575 23.6029C33.2924 24.2867 35.2471 26.2707 37.4108 28.467C40.9355 32.0447 45.0149 36.1854 53.925 36.1854C63.5117 36.1854 69.5033 31.3921 71.9 21.8054C68.305 26.5988 64.1108 28.3963 59.3175 27.1979C56.5826 26.5142 54.6279 24.5302 52.4642 22.3339C48.9395 18.7562 44.8601 14.6154 35.95 14.6154ZM17.975 36.1854C8.38833 36.1854 2.39667 40.9788 0 50.5654C3.595 45.7721 7.78917 43.9746 12.5825 45.1729C15.3174 45.8567 17.2721 47.8407 19.4358 50.037C22.9605 53.6147 27.0399 57.7554 35.95 57.7554C45.5367 57.7554 51.5283 52.9621 53.925 43.3754C50.33 48.1688 46.1358 49.9663 41.3425 48.7679C38.6076 48.0842 36.6529 46.1002 34.4892 43.9039C30.9645 40.3262 26.8851 36.1854 17.975 36.1854Z" fill="url(#paint0_linear_90_66)"/>
</g>
<defs>
<linearGradient id="paint0_linear_90_66" x1="-199.722" y1="1395.1" x2="6010.02" y2="4975.49" gradientUnits="userSpaceOnUse">
<stop stop-color="#2298BD"/>
<stop offset="1" stop-color="#0ED7B5"/>
</linearGradient>
<clipPath id="clip0_90_66">
<rect width="71.9" height="71.9" fill="white" transform="translate(0 0.291626)"/>
</clipPath>
</defs>
</svg>
